M48
INCH,TZ
VER,1
FMAT,2
DETECT,ON
ATC,ON
T1C0.0630
T2C0.0120
T3C0.0350
T4C0.0392
T5C0.1000
%
T1
X27742Y24435
X27905Y7609
X31343Y7709
X35160Y7579
X53424Y19895
X56563
X50285
X50273Y22704
X56581
X41483Y24818
X27662Y27891
X41486Y27825
X53427Y22704
T2
X27800Y21900
X32200Y25800
X31100Y26500
X32000Y21500
X35100Y15800
X31600Y15400
X32700Y14700
X31300Y14600
X29500Y14700
X28500Y14400
X34700Y13200
X32200Y14300
X27900Y9300
X44400Y20400
X43600
X46500Y25400
Y13800
X45100Y23300
X45700Y23500
X47000Y24300
X46400Y17500
X47500Y17600
X31300Y9400
X35200
X37400
X46600Y9200
X48200Y17400
X27500Y15300
X33400
X53400Y16300
X40200Y10600
X43400Y9700
X40800Y10700
X55300Y16310
X42680Y7220
X47070Y26800
X50240Y26740
X51260Y26660
X56130Y26810
X51320Y28490
X52120
X53420
X50790Y28670
X54680Y29300
X54690Y25580
X48760Y30400
X48460Y29580
X49290Y30360
X49210Y28550
X49740Y28490
X49630Y29600
X48320Y28430
X48750Y28680
X58190Y25940
X59100Y25930
X58110Y28950
X59120Y28960
X53020Y28200
X52570Y28210
X52670Y26870
X53270Y26880
X52060Y26870
X57300Y27040
Y27930
X56520Y27950
X55670Y27940
X55650Y27060
X55160Y27950
Y27050
X56690Y29150
X55700Y29160
X57280Y30400
X55430Y30440
X53690Y30420
X50340Y30450
X51660Y29440
X52810Y29680
X50780Y25920
X52370Y25910
X53550Y25880
X55600Y25940
X56860Y25920
X56290Y24860
X54400Y24840
X50260Y25230
X46940Y27180
X51820Y30450
X35270Y18440
X56920Y26800
X53910Y29190
X51760Y25260
X53230Y24820
X46900Y26250
X49250Y27600
X49220Y27150
X48820Y27140
Y27600
X43790Y9060
X50000Y28240
X36410Y10080
X35170Y20560
X35180Y22590
T3
X57359Y14960
X52359
X51359
X53359
X55359
X54359
X56359
X31525Y17234
X33525
Y16234
X32525Y17234
X28525
Y16234
X27525Y17234
X31525Y16234
X30525Y17234
Y16234
X29525Y17234
Y16234
X32525
X31968Y19838
X30968
X31116Y27894
X30116
X54353Y6040
X53353
X55353
T4
X50359Y14960
X27525Y16234
X32968Y19838
X32116Y27894
X52353Y6040
T5
X49400Y6500
X57400
M30
