G04 Generated by Ultiboard 14.0 *
%FSLAX24Y24*%
%MOIN*%

%ADD10C,0.0001*%
%ADD11C,0.0630*%
%ADD12C,0.0120*%
%ADD13C,0.0350*%
%ADD14C,0.0392*%
%ADD15C,0.1000*%


G04 ColorRGB 000000 for the following layer *
%LNDrill-Copper Top-Copper Bottom*%
%LPD*%
G54D11*
X27742Y24435D03*
X27905Y7609D03*
X31343Y7709D03*
X35160Y7579D03*
X53424Y19895D03*
X56563Y19895D03*
X50285Y19895D03*
X50273Y22704D03*
X56581Y22704D03*
X41483Y24818D03*
X27662Y27891D03*
X41486Y27825D03*
X53427Y22704D03*
G54D12*
X27800Y21900D03*
X32200Y25800D03*
X31100Y26500D03*
X32000Y21500D03*
X35100Y15800D03*
X31600Y15400D03*
X32700Y14700D03*
X31300Y14600D03*
X29500Y14700D03*
X28500Y14400D03*
X34700Y13200D03*
X32200Y14300D03*
X27900Y9300D03*
X44400Y20400D03*
X43600Y20400D03*
X46500Y25400D03*
X46500Y13800D03*
X45100Y23300D03*
X45700Y23500D03*
X47000Y24300D03*
X46400Y17500D03*
X47500Y17600D03*
X31300Y9400D03*
X35200Y9400D03*
X37400Y9400D03*
X46600Y9200D03*
X48200Y17400D03*
X27500Y15300D03*
X33400Y15300D03*
X53400Y16300D03*
X40200Y10600D03*
X43400Y9700D03*
X40800Y10700D03*
X55300Y16310D03*
X42680Y7220D03*
X47070Y26800D03*
X50240Y26740D03*
X51260Y26660D03*
X56130Y26810D03*
X51320Y28490D03*
X52120Y28490D03*
X53420Y28490D03*
X50790Y28670D03*
X54680Y29300D03*
X54690Y25580D03*
X48760Y30400D03*
X48460Y29580D03*
X49290Y30360D03*
X49210Y28550D03*
X49740Y28490D03*
X49630Y29600D03*
X48320Y28430D03*
X48750Y28680D03*
X58190Y25940D03*
X59100Y25930D03*
X58110Y28950D03*
X59120Y28960D03*
X53020Y28200D03*
X52570Y28210D03*
X52670Y26870D03*
X53270Y26880D03*
X52060Y26870D03*
X57300Y27040D03*
X57300Y27930D03*
X56520Y27950D03*
X55670Y27940D03*
X55650Y27060D03*
X55160Y27950D03*
X55160Y27050D03*
X56690Y29150D03*
X55700Y29160D03*
X57280Y30400D03*
X55430Y30440D03*
X53690Y30420D03*
X50340Y30450D03*
X51660Y29440D03*
X52810Y29680D03*
X50780Y25920D03*
X52370Y25910D03*
X53550Y25880D03*
X55600Y25940D03*
X56860Y25920D03*
X56290Y24860D03*
X54400Y24840D03*
X50260Y25230D03*
X46940Y27180D03*
X51820Y30450D03*
X35270Y18440D03*
X56920Y26800D03*
X53910Y29190D03*
X51760Y25260D03*
X53230Y24820D03*
X46900Y26250D03*
X49250Y27600D03*
X49220Y27150D03*
X48820Y27140D03*
X48820Y27600D03*
X43790Y9060D03*
X50000Y28240D03*
X36410Y10080D03*
X35170Y20560D03*
X35180Y22590D03*
G54D13*
X57359Y14960D03*
X52359Y14960D03*
X51359Y14960D03*
X53359Y14960D03*
X55359Y14960D03*
X54359Y14960D03*
X56359Y14960D03*
X31525Y17234D03*
X33525Y17234D03*
X33525Y16234D03*
X32525Y17234D03*
X28525Y17234D03*
X28525Y16234D03*
X27525Y17234D03*
X31525Y16234D03*
X30525Y17234D03*
X30525Y16234D03*
X29525Y17234D03*
X29525Y16234D03*
X32525Y16234D03*
X31968Y19838D03*
X30968Y19838D03*
X31116Y27894D03*
X30116Y27894D03*
X54353Y6040D03*
X53353Y6040D03*
X55353Y6040D03*
G54D14*
X50359Y14960D03*
X27525Y16234D03*
X32968Y19838D03*
X32116Y27894D03*
X52353Y6040D03*
G54D15*
X49400Y6500D03*
X57400Y6500D03*

M02*
