G04 Generated by Ultiboard 14.0 *
%FSLAX24Y24*%
%MOIN*%

%ADD10C,0.0001*%
%ADD11C,0.0061*%
%ADD12C,0.0100*%
%ADD13C,0.0050*%
%ADD14C,0.0080*%
%ADD15C,0.0079*%
%ADD16C,0.0197*%
%ADD17C,0.0098*%
%ADD18C,0.0001*%
%ADD19C,0.0010*%
%ADD20C,0.0111*%
%ADD21C,0.0033*%


G04 ColorRGB FFFF00 for the following layer *
%LNSilkscreen Top*%
%LPD*%
G54D10*
G54D11*
X29688Y28823D02*
X30082Y28940D01*
X29688Y29058D01*
X30003Y29411D02*
X30082Y29332D01*
X30082Y29254D01*
X30003Y29175D01*
X29767Y29175D01*
X29688Y29254D01*
X29688Y29332D01*
X29767Y29411D01*
X30003Y29763D02*
X30082Y29685D01*
X30082Y29607D01*
X30003Y29528D01*
X29767Y29528D01*
X29688Y29607D01*
X29688Y29685D01*
X29767Y29763D01*
X30082Y29881D02*
X30082Y30116D01*
X30082Y30469D02*
X30082Y30234D01*
X29885Y30234D01*
X29688Y30234D01*
X29688Y30469D01*
X29885Y30234D02*
X29885Y30390D01*
X29688Y30586D02*
X30082Y30822D01*
X30082Y30586D02*
X29688Y30822D01*
X30788Y28781D02*
X31182Y28899D01*
X30788Y29016D01*
X31103Y29369D02*
X31182Y29290D01*
X31182Y29212D01*
X31103Y29134D01*
X30867Y29134D01*
X30788Y29212D01*
X30788Y29290D01*
X30867Y29369D01*
X31103Y29722D02*
X31182Y29643D01*
X31182Y29565D01*
X31103Y29486D01*
X30867Y29486D01*
X30788Y29565D01*
X30788Y29643D01*
X30867Y29722D01*
X31888Y28717D02*
X32282Y28835D01*
X31888Y28952D01*
X32203Y29305D02*
X32282Y29227D01*
X32282Y29148D01*
X32203Y29070D01*
X31967Y29070D01*
X31888Y29148D01*
X31888Y29227D01*
X31967Y29305D01*
X32203Y29658D02*
X32282Y29579D01*
X32282Y29501D01*
X32203Y29423D01*
X31967Y29423D01*
X31888Y29501D01*
X31888Y29579D01*
X31967Y29658D01*
X32282Y29775D02*
X32282Y30011D01*
X31888Y30128D02*
X32203Y30128D01*
X32282Y30207D01*
X32282Y30285D01*
X32203Y30363D01*
X31888Y30363D01*
X32282Y30481D02*
X32046Y30481D01*
X31888Y30559D01*
X31888Y30638D01*
X32046Y30716D01*
X32282Y30716D01*
X32164Y30481D02*
X32164Y30716D01*
X32282Y30834D02*
X31888Y30834D01*
X31888Y30990D01*
X31967Y31069D01*
X32006Y31069D01*
X32085Y30990D01*
X32085Y30834D01*
X32085Y30873D02*
X32282Y31069D01*
X32282Y31304D02*
X31888Y31304D01*
X31888Y31186D02*
X31888Y31422D01*
X26696Y23164D02*
X26774Y23164D01*
X26774Y23046D01*
X26696Y22967D01*
X26618Y22967D01*
X26539Y23046D01*
X26539Y23282D01*
X26618Y23361D01*
X26774Y23361D01*
X26892Y22967D02*
X26892Y23361D01*
X27127Y22967D01*
X27127Y23361D01*
X27245Y22967D02*
X27401Y22967D01*
X27480Y23046D01*
X27480Y23282D01*
X27401Y23361D01*
X27245Y23361D01*
X27284Y23361D02*
X27284Y22967D01*
X27597Y22967D02*
X27833Y22967D01*
X28068Y22967D02*
X28068Y23361D01*
X27950Y23361D02*
X28185Y23361D01*
X28303Y22967D02*
X28303Y23361D01*
X28460Y23361D01*
X28538Y23282D01*
X28538Y23243D01*
X28460Y23164D01*
X28303Y23164D01*
X28695Y23282D02*
X28773Y23361D01*
X28773Y22967D01*
X28656Y22967D02*
X28891Y22967D01*
X30739Y20739D02*
X31133Y20857D01*
X30739Y20974D01*
X31054Y21327D02*
X31133Y21249D01*
X31133Y21170D01*
X31054Y21092D01*
X30818Y21092D01*
X30739Y21170D01*
X30739Y21249D01*
X30818Y21327D01*
X31054Y21680D02*
X31133Y21601D01*
X31133Y21523D01*
X31054Y21445D01*
X30818Y21445D01*
X30739Y21523D01*
X30739Y21601D01*
X30818Y21680D01*
X31133Y21797D02*
X31133Y22033D01*
X31133Y22268D02*
X30739Y22268D01*
X30739Y22150D02*
X30739Y22385D01*
X31133Y22503D02*
X30897Y22503D01*
X30739Y22581D01*
X30739Y22660D01*
X30897Y22738D01*
X31133Y22738D01*
X31015Y22503D02*
X31015Y22738D01*
X31133Y22856D02*
X30739Y22856D01*
X30739Y23013D01*
X30818Y23091D01*
X30857Y23091D01*
X30936Y23013D01*
X30936Y22856D01*
X30936Y22895D02*
X31133Y23091D01*
X30936Y23365D02*
X30936Y23444D01*
X31054Y23444D01*
X31133Y23365D01*
X31133Y23287D01*
X31054Y23208D01*
X30818Y23208D01*
X30739Y23287D01*
X30739Y23444D01*
X31133Y23796D02*
X31133Y23561D01*
X30936Y23561D01*
X30739Y23561D01*
X30739Y23796D01*
X30936Y23561D02*
X30936Y23718D01*
X31133Y24032D02*
X30739Y24032D01*
X30739Y23914D02*
X30739Y24149D01*
X32839Y20739D02*
X33233Y20857D01*
X32839Y20974D01*
X33154Y21327D02*
X33233Y21249D01*
X33233Y21170D01*
X33154Y21092D01*
X32918Y21092D01*
X32839Y21170D01*
X32839Y21249D01*
X32918Y21327D01*
X33154Y21680D02*
X33233Y21601D01*
X33233Y21523D01*
X33154Y21445D01*
X32918Y21445D01*
X32839Y21523D01*
X32839Y21601D01*
X32918Y21680D01*
X33233Y21797D02*
X33233Y22033D01*
X33233Y22268D02*
X32839Y22268D01*
X32839Y22150D02*
X32839Y22385D01*
X33154Y22503D02*
X33233Y22581D01*
X33233Y22660D01*
X33154Y22738D01*
X32918Y22738D01*
X32839Y22660D01*
X32839Y22581D01*
X32918Y22503D01*
X33154Y22503D01*
X33154Y22856D02*
X33233Y22934D01*
X33233Y23013D01*
X33154Y23091D01*
X32918Y23091D01*
X32839Y23013D01*
X32839Y22934D01*
X32918Y22856D01*
X33154Y22856D01*
X32839Y23208D02*
X33233Y23208D01*
X33233Y23444D01*
X26905Y6616D02*
X27023Y6222D01*
X27140Y6616D01*
X27493Y6301D02*
X27415Y6222D01*
X27336Y6222D01*
X27258Y6301D01*
X27258Y6537D01*
X27336Y6616D01*
X27415Y6616D01*
X27493Y6537D01*
X27846Y6301D02*
X27768Y6222D01*
X27689Y6222D01*
X27611Y6301D01*
X27611Y6537D01*
X27689Y6616D01*
X27768Y6616D01*
X27846Y6537D01*
X27964Y6222D02*
X28199Y6222D01*
X28434Y6222D02*
X28434Y6616D01*
X28316Y6616D02*
X28551Y6616D01*
X28669Y6222D02*
X28669Y6616D01*
X28826Y6616D01*
X28904Y6537D01*
X28904Y6497D01*
X28826Y6419D01*
X28669Y6419D01*
X30294Y6316D02*
X30373Y6316D01*
X30373Y6198D01*
X30294Y6119D01*
X30216Y6119D01*
X30138Y6198D01*
X30138Y6434D01*
X30216Y6513D01*
X30373Y6513D01*
X30490Y6119D02*
X30490Y6513D01*
X30725Y6119D01*
X30725Y6513D01*
X30843Y6119D02*
X31000Y6119D01*
X31078Y6198D01*
X31078Y6434D01*
X31000Y6513D01*
X30843Y6513D01*
X30882Y6513D02*
X30882Y6119D01*
X31196Y6119D02*
X31431Y6119D01*
X31666Y6119D02*
X31666Y6513D01*
X31549Y6513D02*
X31784Y6513D01*
X31901Y6119D02*
X31901Y6513D01*
X32058Y6513D01*
X32136Y6434D01*
X32136Y6395D01*
X32058Y6316D01*
X31901Y6316D01*
X32254Y6434D02*
X32332Y6513D01*
X32411Y6513D01*
X32489Y6434D01*
X32489Y6395D01*
X32254Y6119D01*
X32489Y6119D01*
X32489Y6159D01*
X33974Y6195D02*
X34052Y6195D01*
X34052Y6076D01*
X33974Y5998D01*
X33895Y5998D01*
X33817Y6076D01*
X33817Y6313D01*
X33895Y6391D01*
X34052Y6391D01*
X34170Y5998D02*
X34170Y6391D01*
X34405Y5998D01*
X34405Y6391D01*
X34523Y5998D02*
X34679Y5998D01*
X34758Y6076D01*
X34758Y6313D01*
X34679Y6391D01*
X34523Y6391D01*
X34562Y6391D02*
X34562Y5998D01*
X34875Y5998D02*
X35110Y5998D01*
X35346Y5998D02*
X35346Y6391D01*
X35228Y6391D02*
X35463Y6391D01*
X35581Y5998D02*
X35581Y6391D01*
X35738Y6391D01*
X35816Y6313D01*
X35816Y6273D01*
X35738Y6195D01*
X35581Y6195D01*
X35973Y6352D02*
X36012Y6391D01*
X36090Y6391D01*
X36169Y6313D01*
X36169Y6234D01*
X36130Y6195D01*
X36169Y6155D01*
X36169Y6076D01*
X36090Y5998D01*
X36012Y5998D01*
X35973Y6037D01*
X36012Y6195D02*
X36130Y6195D01*
X49239Y18061D02*
X49239Y17667D01*
X49474Y17667D01*
X49592Y17746D02*
X49670Y17667D01*
X49749Y17667D01*
X49827Y17746D01*
X49827Y17864D01*
X49749Y17943D01*
X49670Y17943D01*
X49592Y17864D01*
X49592Y17746D01*
X49945Y17667D02*
X49945Y18061D01*
X50101Y18061D01*
X50180Y17982D01*
X50180Y17943D01*
X50101Y17864D01*
X49945Y17864D01*
X49984Y17864D02*
X50180Y17667D01*
X50337Y17943D02*
X50454Y17943D01*
X50493Y17903D01*
X50493Y17706D01*
X50454Y17667D01*
X50337Y17667D01*
X50297Y17706D01*
X50297Y17785D01*
X50337Y17824D01*
X50493Y17824D01*
X50493Y17706D02*
X50533Y17667D01*
X51121Y17667D02*
X51121Y18061D01*
X51003Y18061D02*
X51238Y18061D01*
X51591Y17746D02*
X51513Y17667D01*
X51434Y17667D01*
X51356Y17746D01*
X51356Y17864D01*
X51434Y17943D01*
X51513Y17943D01*
X51591Y17864D01*
X51552Y17824D01*
X51356Y17824D01*
X51708Y17746D02*
X51787Y17667D01*
X51865Y17667D01*
X51944Y17746D01*
X51708Y17864D01*
X51787Y17943D01*
X51865Y17943D01*
X51944Y17864D01*
X52257Y17706D02*
X52218Y17667D01*
X52179Y17706D01*
X52179Y18061D01*
X52100Y17943D02*
X52257Y17943D01*
X52414Y17746D02*
X52492Y17667D01*
X52571Y17667D01*
X52649Y17746D01*
X52649Y17864D01*
X52571Y17943D01*
X52492Y17943D01*
X52414Y17864D01*
X52414Y17549D02*
X52414Y17943D01*
X52767Y17746D02*
X52845Y17667D01*
X52924Y17667D01*
X53002Y17746D01*
X53002Y17864D01*
X52924Y17943D01*
X52845Y17943D01*
X52767Y17864D01*
X52767Y17746D01*
X53237Y17667D02*
X53237Y17903D01*
X53237Y17982D02*
X53237Y18021D01*
X53472Y17667D02*
X53472Y17903D01*
X53472Y17943D01*
X53472Y17903D02*
X53511Y17943D01*
X53590Y17943D01*
X53629Y17903D01*
X53629Y17667D01*
X54021Y17706D02*
X53982Y17667D01*
X53943Y17706D01*
X53943Y18061D01*
X53864Y17943D02*
X54021Y17943D01*
X54178Y17746D02*
X54256Y17667D01*
X54335Y17667D01*
X54413Y17746D01*
X54178Y17864D01*
X54256Y17943D01*
X54335Y17943D01*
X54413Y17864D01*
X49739Y18467D02*
X49739Y18861D01*
X49974Y18467D01*
X49974Y18861D01*
X50092Y18546D02*
X50170Y18467D01*
X50249Y18467D01*
X50327Y18546D01*
X50092Y18782D01*
X50170Y18861D01*
X50249Y18861D01*
X50327Y18782D01*
X50445Y18546D02*
X50523Y18467D01*
X50601Y18467D01*
X50680Y18546D01*
X50445Y18782D01*
X50523Y18861D01*
X50601Y18861D01*
X50680Y18782D01*
X52939Y18546D02*
X53018Y18467D01*
X53096Y18467D01*
X53174Y18546D01*
X52939Y18782D01*
X53018Y18861D01*
X53096Y18861D01*
X53174Y18782D01*
X53527Y18546D02*
X53449Y18467D01*
X53370Y18467D01*
X53292Y18546D01*
X53292Y18782D01*
X53370Y18861D01*
X53449Y18861D01*
X53527Y18782D01*
X53645Y18467D02*
X53645Y18861D01*
X53645Y18664D02*
X53684Y18664D01*
X53880Y18861D01*
X53684Y18664D02*
X53880Y18467D01*
X49634Y21343D02*
X49790Y21343D01*
X49869Y21421D01*
X49869Y21461D01*
X49790Y21539D01*
X49869Y21618D01*
X49869Y21657D01*
X49790Y21736D01*
X49673Y21736D01*
X49634Y21736D01*
X49673Y21539D02*
X49790Y21539D01*
X49673Y21736D02*
X49673Y21343D01*
X49986Y21736D02*
X49986Y21421D01*
X50065Y21343D01*
X50143Y21343D01*
X50222Y21421D01*
X50222Y21736D01*
X50339Y21421D02*
X50418Y21343D01*
X50496Y21343D01*
X50574Y21421D01*
X50339Y21657D01*
X50418Y21736D01*
X50496Y21736D01*
X50574Y21657D01*
X50692Y21736D02*
X50810Y21539D01*
X50927Y21736D01*
X50810Y21539D02*
X50810Y21343D01*
X51939Y21446D02*
X52018Y21367D01*
X52096Y21367D01*
X52174Y21446D01*
X51939Y21682D01*
X52018Y21761D01*
X52096Y21761D01*
X52174Y21682D01*
X52292Y21761D02*
X52527Y21367D01*
X52292Y21367D02*
X52527Y21761D01*
X52645Y21367D02*
X52880Y21367D01*
X52997Y21367D02*
X52997Y21761D01*
X53233Y21367D01*
X53233Y21761D01*
X53350Y21367D02*
X53350Y21761D01*
X53507Y21761D01*
X53585Y21682D01*
X53585Y21643D01*
X53507Y21564D01*
X53350Y21564D01*
X53389Y21564D02*
X53585Y21367D01*
X53938Y21367D02*
X53703Y21367D01*
X53703Y21564D01*
X53703Y21761D01*
X53938Y21761D01*
X53703Y21564D02*
X53860Y21564D01*
X54056Y21446D02*
X54134Y21367D01*
X54213Y21367D01*
X54291Y21446D01*
X54056Y21682D01*
X54134Y21761D01*
X54213Y21761D01*
X54291Y21682D01*
X54644Y21367D02*
X54408Y21367D01*
X54408Y21564D01*
X54408Y21761D01*
X54644Y21761D01*
X54408Y21564D02*
X54565Y21564D01*
X54879Y21367D02*
X54879Y21761D01*
X54761Y21761D02*
X54996Y21761D01*
X56039Y18467D02*
X56039Y18861D01*
X56157Y18664D01*
X56274Y18861D01*
X56274Y18467D01*
X56392Y18546D02*
X56470Y18467D01*
X56549Y18467D01*
X56627Y18546D01*
X56627Y18782D01*
X56549Y18861D01*
X56470Y18861D01*
X56392Y18782D01*
X56392Y18546D01*
X56745Y18546D02*
X56823Y18467D01*
X56901Y18467D01*
X56980Y18546D01*
X56745Y18782D01*
X56823Y18861D01*
X56901Y18861D01*
X56980Y18782D01*
X57176Y18467D02*
X57254Y18467D01*
X57176Y18861D02*
X57254Y18861D01*
X57215Y18467D02*
X57215Y18861D01*
X56039Y21367D02*
X56039Y21761D01*
X56157Y21564D01*
X56274Y21761D01*
X56274Y21367D01*
X56470Y21367D02*
X56549Y21367D01*
X56470Y21761D02*
X56549Y21761D01*
X56510Y21367D02*
X56510Y21761D01*
X56745Y21446D02*
X56823Y21367D01*
X56901Y21367D01*
X56980Y21446D01*
X56745Y21682D01*
X56823Y21761D01*
X56901Y21761D01*
X56980Y21682D01*
X57097Y21446D02*
X57176Y21367D01*
X57254Y21367D01*
X57333Y21446D01*
X57333Y21682D01*
X57254Y21761D01*
X57176Y21761D01*
X57097Y21682D01*
X57097Y21446D01*
X39707Y12893D02*
X39707Y12578D01*
X39785Y12500D01*
X39863Y12500D01*
X39942Y12578D01*
X39942Y12893D01*
X40059Y12815D02*
X40138Y12893D01*
X40216Y12893D01*
X40294Y12815D01*
X40294Y12775D01*
X40059Y12500D01*
X40294Y12500D01*
X40294Y12539D01*
X40739Y26241D02*
X40739Y25926D01*
X40818Y25847D01*
X40896Y25847D01*
X40974Y25926D01*
X40974Y26241D01*
X41092Y25847D02*
X41092Y26083D01*
X41170Y26241D01*
X41249Y26241D01*
X41327Y26083D01*
X41327Y25847D01*
X41092Y25965D02*
X41327Y25965D01*
X41445Y25847D02*
X41445Y26241D01*
X41601Y26241D01*
X41680Y26162D01*
X41680Y26123D01*
X41601Y26044D01*
X41445Y26044D01*
X41484Y26044D02*
X41680Y25847D01*
X41915Y25847D02*
X41915Y26241D01*
X41797Y26241D02*
X42033Y26241D01*
X42150Y25847D02*
X42385Y25847D01*
X42621Y25847D02*
X42621Y26241D01*
X42503Y26241D02*
X42738Y26241D01*
X42856Y26241D02*
X43091Y25847D01*
X42856Y25847D02*
X43091Y26241D01*
X43208Y25847D02*
X43444Y25847D01*
X43679Y25847D02*
X43679Y26241D01*
X43561Y26241D02*
X43796Y26241D01*
X43914Y25847D02*
X43914Y26241D01*
X44071Y26241D01*
X44149Y26162D01*
X44149Y26123D01*
X44071Y26044D01*
X43914Y26044D01*
X26622Y27002D02*
X26740Y26608D01*
X26857Y27002D01*
X27210Y26687D02*
X27131Y26608D01*
X27053Y26608D01*
X26975Y26687D01*
X26975Y26923D01*
X27053Y27002D01*
X27131Y27002D01*
X27210Y26923D01*
X27563Y26687D02*
X27484Y26608D01*
X27406Y26608D01*
X27327Y26687D01*
X27327Y26923D01*
X27406Y27002D01*
X27484Y27002D01*
X27563Y26923D01*
X27680Y26608D02*
X27915Y26608D01*
X28268Y26608D02*
X28033Y26608D01*
X28033Y26805D01*
X28033Y27002D01*
X28268Y27002D01*
X28033Y26805D02*
X28190Y26805D01*
X28386Y27002D02*
X28621Y26608D01*
X28386Y26608D02*
X28621Y27002D01*
X40759Y29201D02*
X40759Y28886D01*
X40838Y28807D01*
X40916Y28807D01*
X40994Y28886D01*
X40994Y29201D01*
X41112Y28807D02*
X41112Y29043D01*
X41190Y29201D01*
X41269Y29201D01*
X41347Y29043D01*
X41347Y28807D01*
X41112Y28925D02*
X41347Y28925D01*
X41465Y28807D02*
X41465Y29201D01*
X41621Y29201D01*
X41700Y29122D01*
X41700Y29083D01*
X41621Y29004D01*
X41465Y29004D01*
X41504Y29004D02*
X41700Y28807D01*
X41935Y28807D02*
X41935Y29201D01*
X41817Y29201D02*
X42053Y29201D01*
X42170Y28807D02*
X42405Y28807D01*
X42523Y28807D02*
X42523Y29201D01*
X42680Y29201D01*
X42758Y29122D01*
X42758Y29083D01*
X42680Y29004D01*
X42523Y29004D01*
X42562Y29004D02*
X42758Y28807D01*
X42876Y29201D02*
X43111Y28807D01*
X42876Y28807D02*
X43111Y29201D01*
X43228Y28807D02*
X43464Y28807D01*
X43699Y28807D02*
X43699Y29201D01*
X43581Y29201D02*
X43816Y29201D01*
X43934Y28807D02*
X43934Y29201D01*
X44091Y29201D01*
X44169Y29122D01*
X44169Y29083D01*
X44091Y29004D01*
X43934Y29004D01*
G54D12*
X27041Y24435D02*
G75*
D01*
G02X27041Y24435I701J0*
G01*
X27204Y7609D02*
G75*
D01*
G02X27204Y7609I701J0*
G01*
X30642Y7709D02*
G75*
D01*
G02X30642Y7709I701J0*
G01*
X34460Y7579D02*
G75*
D01*
G02X34460Y7579I700J0*
G01*
X52723Y19895D02*
G75*
D01*
G02X52723Y19895I701J0*
G01*
X55862Y19895D02*
G75*
D01*
G02X55862Y19895I701J0*
G01*
X49584Y19895D02*
G75*
D01*
G02X49584Y19895I701J0*
G01*
X49572Y22704D02*
G75*
D01*
G02X49572Y22704I701J0*
G01*
X55880Y22704D02*
G75*
D01*
G02X55880Y22704I701J0*
G01*
X40783Y24818D02*
G75*
D01*
G02X40783Y24818I700J0*
G01*
X26962Y27891D02*
G75*
D01*
G02X26962Y27891I700J0*
G01*
X40785Y27825D02*
G75*
D01*
G02X40785Y27825I701J0*
G01*
X52726Y22704D02*
G75*
D01*
G02X52726Y22704I701J0*
G01*
X26060Y4300D02*
X59880Y4300D01*
X59880Y33050D01*
X26060Y33050D01*
X26060Y4300D01*
G54D13*
X49000Y23000D02*
X49000Y17500D01*
X49000Y23800D02*
X49000Y22900D01*
X58350Y15475D02*
X58400Y15525D01*
X58420Y23800D02*
X49000Y23790D01*
X49000Y17500D02*
X58420Y17500D01*
X58400Y5500D02*
X58400Y9300D01*
X58400Y15500D02*
X58400Y9300D01*
X58425Y17500D02*
X58425Y23100D01*
X58425Y23000D02*
X58425Y23800D01*
X48425Y15475D02*
X58375Y15475D01*
X48300Y5500D02*
X58400Y5500D01*
X48280Y15520D02*
X48270Y5490D01*
X58375Y15500D02*
X48270Y15500D01*
X54077Y27778D02*
G75*
D01*
G02X54077Y27778I60J0*
G01*
X25960Y4200D02*
X25960Y7095D01*
X25960Y4200D02*
X29362Y4200D01*
X59980Y4200D02*
X56578Y4200D01*
X59980Y4200D02*
X59980Y7095D01*
X59980Y33150D02*
X59980Y30255D01*
X59980Y33150D02*
X56578Y33150D01*
X25960Y33150D02*
X29362Y33150D01*
X25960Y33150D02*
X25960Y30255D01*
X23991Y4200D02*
X20054Y4200D01*
X22023Y2231D02*
X22023Y6169D01*
X20547Y4200D02*
G75*
D01*
G02X20547Y4200I1476J0*
G01*
X61949Y4200D02*
X65886Y4200D01*
X63917Y2231D02*
X63917Y6169D01*
X62441Y4200D02*
G75*
D01*
G02X62441Y4200I1476J0*
G01*
X63425Y4200D02*
G75*
D01*
G02X63425Y4200I492J0*
G01*
X23991Y33150D02*
X20054Y33150D01*
X22023Y31181D02*
X22023Y35119D01*
X20547Y33150D02*
G75*
D01*
G02X20547Y33150I1476J0*
G01*
X21039Y33150D02*
G75*
D01*
G02X21039Y33150I984J0*
G01*
X21531Y33150D02*
G75*
D01*
G02X21531Y33150I492J0*
G01*
X25960Y4200D02*
X25960Y7095D01*
X25960Y4200D02*
X29362Y4200D01*
X59980Y4200D02*
X56578Y4200D01*
X59980Y4200D02*
X59980Y7095D01*
X59980Y33150D02*
X59980Y30255D01*
X59980Y33150D02*
X56578Y33150D01*
X25960Y33150D02*
X29362Y33150D01*
X25960Y33150D02*
X25960Y30255D01*
X23991Y4200D02*
X20054Y4200D01*
X22023Y2231D02*
X22023Y6169D01*
X20547Y4200D02*
G75*
D01*
G02X20547Y4200I1476J0*
G01*
X61949Y4200D02*
X65886Y4200D01*
X63917Y2231D02*
X63917Y6169D01*
X62441Y4200D02*
G75*
D01*
G02X62441Y4200I1476J0*
G01*
X63425Y4200D02*
G75*
D01*
G02X63425Y4200I492J0*
G01*
X23991Y33150D02*
X20054Y33150D01*
X22023Y31181D02*
X22023Y35119D01*
X20547Y33150D02*
G75*
D01*
G02X20547Y33150I1476J0*
G01*
X21039Y33150D02*
G75*
D01*
G02X21039Y33150I984J0*
G01*
X21531Y33150D02*
G75*
D01*
G02X21531Y33150I492J0*
G01*
G54D14*
X49909Y14077D02*
X50020Y14018D01*
X50131Y14018D01*
X50242Y14077D01*
X50242Y14315D01*
X50742Y14137D02*
X50409Y14137D01*
X50687Y14315D01*
X50687Y14018D01*
X50631Y14018D02*
X50742Y14018D01*
X57859Y14460D02*
X49859Y14460D01*
X57859Y15460D02*
X54942Y15460D01*
X50776Y15460D02*
X50776Y15127D01*
X50692Y15377D02*
X50776Y15460D01*
X49859Y15460D02*
X50609Y15460D01*
X49859Y14460D02*
X49859Y15460D01*
X50859Y15460D02*
X54609Y15460D01*
X54692Y15460D02*
X54859Y15460D01*
X54692Y15293D02*
X54776Y15293D01*
X54776Y15127D02*
X54783Y15127D01*
X54790Y15128D01*
X54797Y15130D01*
X54804Y15132D01*
X54811Y15134D01*
X54817Y15138D01*
X54824Y15142D01*
X54829Y15146D01*
X54835Y15151D01*
X54840Y15156D01*
X54844Y15162D01*
X54848Y15168D01*
X54851Y15175D01*
X54854Y15181D01*
X54856Y15188D01*
X54858Y15196D01*
X54859Y15203D01*
X54859Y15210D01*
X54859Y15217D01*
X54858Y15224D01*
X54856Y15232D01*
X54854Y15239D01*
X54851Y15245D01*
X54848Y15252D01*
X54844Y15258D01*
X54840Y15264D01*
X54835Y15269D01*
X54829Y15274D01*
X54824Y15278D01*
X54817Y15282D01*
X54811Y15286D01*
X54804Y15288D01*
X54797Y15290D01*
X54790Y15292D01*
X54783Y15293D01*
X54776Y15293D01*
X54692Y15127D02*
X54776Y15127D01*
X54692Y15293D02*
X54692Y15460D01*
X57859Y15460D02*
X57859Y14460D01*
X41033Y6939D02*
X40639Y6939D01*
X40639Y7096D01*
X40718Y7174D01*
X40757Y7174D01*
X40836Y7096D01*
X40836Y6939D01*
X40836Y6978D02*
X41033Y7174D01*
X41033Y7449D02*
X41033Y7370D01*
X40954Y7292D01*
X40876Y7292D01*
X40836Y7331D01*
X40797Y7292D01*
X40718Y7292D01*
X40639Y7370D01*
X40639Y7449D01*
X40718Y7527D01*
X40797Y7527D01*
X40836Y7488D01*
X40876Y7527D01*
X40954Y7527D01*
X41033Y7449D01*
X40836Y7331D02*
X40836Y7488D01*
X42017Y8267D02*
X42017Y6933D01*
X41183Y6933D02*
X41183Y8267D01*
X42017Y6933D02*
X41183Y6933D01*
X41183Y8267D02*
X42017Y8267D01*
X37939Y8167D02*
X37939Y8561D01*
X38096Y8561D01*
X38174Y8482D01*
X38174Y8443D01*
X38096Y8364D01*
X37939Y8364D01*
X37978Y8364D02*
X38174Y8167D01*
X38527Y8561D02*
X38292Y8561D01*
X38292Y8403D01*
X38449Y8403D01*
X38527Y8324D01*
X38527Y8246D01*
X38449Y8167D01*
X38292Y8167D01*
X37933Y8017D02*
X39267Y8017D01*
X39267Y7183D02*
X37933Y7183D01*
X39267Y8017D02*
X39267Y7183D01*
X37933Y7183D02*
X37933Y8017D01*
X44374Y9446D02*
X44296Y9367D01*
X44218Y9367D01*
X44139Y9446D01*
X44139Y9682D01*
X44218Y9761D01*
X44296Y9761D01*
X44374Y9682D01*
X44531Y9721D02*
X44570Y9761D01*
X44649Y9761D01*
X44727Y9682D01*
X44727Y9603D01*
X44688Y9564D01*
X44727Y9524D01*
X44727Y9446D01*
X44649Y9367D01*
X44570Y9367D01*
X44531Y9406D01*
X44570Y9564D02*
X44688Y9564D01*
X45467Y8383D02*
X44133Y8383D01*
X44133Y9217D02*
X45467Y9217D01*
X44133Y8383D02*
X44133Y9217D01*
X45467Y9217D02*
X45467Y8383D01*
X37939Y9967D02*
X37939Y10361D01*
X38096Y10361D01*
X38174Y10282D01*
X38174Y10243D01*
X38096Y10164D01*
X37939Y10164D01*
X37978Y10164D02*
X38174Y9967D01*
X38488Y10361D02*
X38370Y10361D01*
X38292Y10282D01*
X38292Y10124D01*
X38292Y10046D01*
X38370Y9967D01*
X38449Y9967D01*
X38527Y10046D01*
X38527Y10124D01*
X38449Y10203D01*
X38370Y10203D01*
X38292Y10124D01*
X37933Y9817D02*
X39267Y9817D01*
X39267Y8983D02*
X37933Y8983D01*
X39267Y9817D02*
X39267Y8983D01*
X37933Y8983D02*
X37933Y9817D01*
X42574Y11246D02*
X42496Y11167D01*
X42418Y11167D01*
X42339Y11246D01*
X42339Y11482D01*
X42418Y11561D01*
X42496Y11561D01*
X42574Y11482D01*
X42731Y11482D02*
X42809Y11561D01*
X42809Y11167D01*
X42692Y11167D02*
X42927Y11167D01*
X42333Y11017D02*
X43667Y11017D01*
X43667Y10183D02*
X42333Y10183D01*
X43667Y11017D02*
X43667Y10183D01*
X42333Y10183D02*
X42333Y11017D01*
X44374Y11246D02*
X44296Y11167D01*
X44218Y11167D01*
X44139Y11246D01*
X44139Y11482D01*
X44218Y11561D01*
X44296Y11561D01*
X44374Y11482D01*
X44492Y11482D02*
X44570Y11561D01*
X44649Y11561D01*
X44727Y11482D01*
X44727Y11443D01*
X44492Y11167D01*
X44727Y11167D01*
X44727Y11206D01*
X45467Y10183D02*
X44133Y10183D01*
X44133Y11017D02*
X45467Y11017D01*
X44133Y10183D02*
X44133Y11017D01*
X45467Y11017D02*
X45467Y10183D01*
X45954Y9974D02*
X46033Y9896D01*
X46033Y9818D01*
X45954Y9739D01*
X45718Y9739D01*
X45639Y9818D01*
X45639Y9896D01*
X45718Y9974D01*
X45876Y10327D02*
X45876Y10092D01*
X45639Y10288D01*
X46033Y10288D01*
X46033Y10249D02*
X46033Y10327D01*
X47017Y11067D02*
X47017Y9733D01*
X46183Y9733D02*
X46183Y11067D01*
X47017Y9733D02*
X46183Y9733D01*
X46183Y11067D02*
X47017Y11067D01*
X37833Y10939D02*
X37439Y10939D01*
X37439Y11096D01*
X37518Y11174D01*
X37557Y11174D01*
X37636Y11096D01*
X37636Y10939D01*
X37636Y10978D02*
X37833Y11174D01*
X37518Y11331D02*
X37439Y11409D01*
X37833Y11409D01*
X37833Y11292D02*
X37833Y11527D01*
X37983Y10933D02*
X37983Y12267D01*
X38817Y12267D02*
X38817Y10933D01*
X37983Y12267D02*
X38817Y12267D01*
X38817Y10933D02*
X37983Y10933D01*
X27081Y15366D02*
X27192Y15307D01*
X27303Y15307D01*
X27414Y15366D01*
X27414Y15605D01*
X27636Y15545D02*
X27747Y15605D01*
X27747Y15307D01*
X27581Y15307D02*
X27914Y15307D01*
X28109Y15734D02*
X31692Y15734D01*
X28109Y17734D02*
X31692Y17734D01*
X27775Y15734D02*
X27025Y15734D01*
X27025Y17734D02*
X27775Y17734D01*
X27025Y15734D02*
X27025Y17734D01*
X27942Y15734D02*
X27942Y16068D01*
X27859Y15984D01*
X27942Y17568D02*
X27949Y17568D01*
X27956Y17569D01*
X27963Y17570D01*
X27970Y17573D01*
X27977Y17575D01*
X27984Y17579D01*
X27990Y17583D01*
X27995Y17587D01*
X28001Y17592D01*
X28006Y17597D01*
X28010Y17603D01*
X28014Y17609D01*
X28017Y17616D01*
X28020Y17622D01*
X28022Y17629D01*
X28024Y17636D01*
X28025Y17644D01*
X28025Y17651D01*
X28025Y17658D01*
X28024Y17665D01*
X28022Y17673D01*
X28020Y17679D01*
X28017Y17686D01*
X28014Y17693D01*
X28010Y17699D01*
X28006Y17705D01*
X28001Y17710D01*
X27995Y17715D01*
X27990Y17719D01*
X27984Y17723D01*
X27977Y17726D01*
X27970Y17729D01*
X27963Y17731D01*
X27956Y17733D01*
X27949Y17734D01*
X27942Y17734D01*
X27935Y17734D01*
X27927Y17733D01*
X27920Y17731D01*
X27913Y17729D01*
X27907Y17726D01*
X27900Y17723D01*
X27894Y17719D01*
X27888Y17715D01*
X27883Y17710D01*
X27878Y17705D01*
X27874Y17699D01*
X27870Y17693D01*
X27866Y17686D01*
X27864Y17679D01*
X27861Y17673D01*
X27860Y17665D01*
X27859Y17658D01*
X27859Y17651D01*
X28025Y17401D02*
X27859Y17401D01*
X27942Y17568D02*
X27935Y17567D01*
X27927Y17566D01*
X27920Y17565D01*
X27913Y17563D01*
X27907Y17560D01*
X27900Y17556D01*
X27894Y17553D01*
X27888Y17548D01*
X27883Y17543D01*
X27878Y17538D01*
X27874Y17532D01*
X27870Y17526D01*
X27866Y17520D01*
X27864Y17513D01*
X27861Y17506D01*
X27860Y17499D01*
X27859Y17492D01*
X27859Y17484D01*
X27859Y17401D02*
X27859Y17484D01*
X31859Y17401D02*
X31859Y17734D01*
X31775Y17651D01*
X31859Y15818D02*
X31859Y15810D01*
X31860Y15803D01*
X31861Y15796D01*
X31864Y15789D01*
X31866Y15782D01*
X31870Y15776D01*
X31874Y15770D01*
X31878Y15764D01*
X31883Y15759D01*
X31888Y15754D01*
X31894Y15749D01*
X31900Y15745D01*
X31907Y15742D01*
X31913Y15739D01*
X31920Y15737D01*
X31927Y15736D01*
X31935Y15735D01*
X31942Y15734D01*
X31949Y15735D01*
X31956Y15736D01*
X31963Y15737D01*
X31970Y15739D01*
X31977Y15742D01*
X31984Y15745D01*
X31990Y15749D01*
X31995Y15754D01*
X32001Y15759D01*
X32006Y15764D01*
X32010Y15770D01*
X32014Y15776D01*
X32017Y15782D01*
X32020Y15789D01*
X32022Y15796D01*
X32024Y15803D01*
X32025Y15810D01*
X32025Y15818D01*
X32025Y15818D01*
X32025Y15984D02*
X32025Y15992D01*
X32024Y15999D01*
X32022Y16006D01*
X32020Y16013D01*
X32017Y16020D01*
X32014Y16026D01*
X32010Y16032D01*
X32006Y16038D01*
X32001Y16043D01*
X31995Y16048D01*
X31990Y16053D01*
X31984Y16056D01*
X31977Y16060D01*
X31970Y16063D01*
X31963Y16065D01*
X31956Y16066D01*
X31949Y16067D01*
X31942Y16068D01*
X31935Y16067D01*
X31927Y16066D01*
X31920Y16065D01*
X31913Y16063D01*
X31907Y16060D01*
X31900Y16056D01*
X31894Y16053D01*
X31888Y16048D01*
X31883Y16043D01*
X31878Y16038D01*
X31874Y16032D01*
X31870Y16026D01*
X31866Y16020D01*
X31864Y16013D01*
X31861Y16006D01*
X31860Y15999D01*
X31859Y15992D01*
X31859Y15984D01*
X31859Y15977D01*
X31860Y15970D01*
X31861Y15963D01*
X31864Y15956D01*
X31866Y15949D01*
X31870Y15943D01*
X31874Y15937D01*
X31878Y15931D01*
X31883Y15925D01*
X31888Y15920D01*
X31894Y15916D01*
X31900Y15912D01*
X31907Y15909D01*
X31913Y15906D01*
X31920Y15904D01*
X31927Y15902D01*
X31935Y15901D01*
X31942Y15901D01*
X31949Y15901D01*
X31956Y15902D01*
X31963Y15904D01*
X31970Y15906D01*
X31977Y15909D01*
X31984Y15912D01*
X31990Y15916D01*
X31995Y15920D01*
X32001Y15925D01*
X32006Y15931D01*
X32010Y15937D01*
X32014Y15943D01*
X32017Y15949D01*
X32020Y15956D01*
X32022Y15963D01*
X32024Y15970D01*
X32025Y15977D01*
X32025Y15984D01*
X34025Y15734D02*
X32109Y15734D01*
X34025Y17734D02*
X32192Y17734D01*
X32025Y15818D02*
X32025Y15984D01*
X32109Y17651D02*
X31942Y17484D01*
X32109Y17651D02*
X32109Y17484D01*
X32109Y17651D02*
X32108Y17658D01*
X32107Y17665D01*
X32106Y17673D01*
X32104Y17679D01*
X32101Y17686D01*
X32097Y17693D01*
X32094Y17699D01*
X32089Y17705D01*
X32084Y17710D01*
X32079Y17715D01*
X32073Y17719D01*
X32067Y17723D01*
X32060Y17726D01*
X32054Y17729D01*
X32047Y17731D01*
X32040Y17733D01*
X32033Y17734D01*
X32025Y17734D01*
X32018Y17734D01*
X32011Y17733D01*
X32004Y17731D01*
X31997Y17729D01*
X31990Y17726D01*
X31984Y17723D01*
X31977Y17719D01*
X31972Y17715D01*
X31966Y17710D01*
X31961Y17705D01*
X31957Y17699D01*
X31953Y17693D01*
X31950Y17686D01*
X31947Y17679D01*
X31945Y17673D01*
X31943Y17665D01*
X31942Y17658D01*
X31942Y17651D01*
X31942Y17484D02*
X31942Y17651D01*
X31942Y17484D02*
X31942Y17477D01*
X31943Y17470D01*
X31945Y17463D01*
X31947Y17456D01*
X31950Y17449D01*
X31953Y17443D01*
X31957Y17437D01*
X31961Y17431D01*
X31966Y17425D01*
X31972Y17420D01*
X31977Y17416D01*
X31984Y17412D01*
X31990Y17409D01*
X31997Y17406D01*
X32004Y17404D01*
X32011Y17402D01*
X32018Y17401D01*
X32025Y17401D01*
X32033Y17401D01*
X32040Y17402D01*
X32047Y17404D01*
X32054Y17406D01*
X32060Y17409D01*
X32067Y17412D01*
X32073Y17416D01*
X32079Y17420D01*
X32084Y17425D01*
X32089Y17431D01*
X32094Y17437D01*
X32097Y17443D01*
X32101Y17449D01*
X32104Y17456D01*
X32106Y17463D01*
X32107Y17470D01*
X32108Y17477D01*
X32109Y17484D01*
X34025Y17734D02*
X34025Y15734D01*
X35754Y15774D02*
X35833Y15696D01*
X35833Y15618D01*
X35754Y15539D01*
X35518Y15539D01*
X35439Y15618D01*
X35439Y15696D01*
X35518Y15774D01*
X35833Y16009D02*
X35636Y16009D01*
X35518Y16127D01*
X35439Y16127D01*
X35439Y15892D01*
X35518Y15892D01*
X36817Y16867D02*
X36817Y15533D01*
X35983Y15533D02*
X35983Y16867D01*
X36817Y15533D02*
X35983Y15533D01*
X35983Y16867D02*
X36817Y16867D01*
X37754Y15774D02*
X37833Y15696D01*
X37833Y15618D01*
X37754Y15539D01*
X37518Y15539D01*
X37439Y15618D01*
X37439Y15696D01*
X37518Y15774D01*
X37439Y16088D02*
X37439Y15970D01*
X37518Y15892D01*
X37676Y15892D01*
X37754Y15892D01*
X37833Y15970D01*
X37833Y16049D01*
X37754Y16127D01*
X37676Y16127D01*
X37597Y16049D01*
X37597Y15970D01*
X37676Y15892D01*
X38817Y16867D02*
X38817Y15533D01*
X37983Y15533D02*
X37983Y16867D01*
X38817Y15533D02*
X37983Y15533D01*
X37983Y16867D02*
X38817Y16867D01*
X38139Y19067D02*
X38139Y19461D01*
X38296Y19461D01*
X38374Y19382D01*
X38374Y19343D01*
X38296Y19264D01*
X38139Y19264D01*
X38178Y19264D02*
X38374Y19067D01*
X38531Y19382D02*
X38609Y19461D01*
X38609Y19067D01*
X38492Y19067D02*
X38727Y19067D01*
X38845Y19382D02*
X38923Y19461D01*
X39001Y19461D01*
X39080Y19382D01*
X39080Y19146D01*
X39001Y19067D01*
X38923Y19067D01*
X38845Y19146D01*
X38845Y19382D01*
X39080Y19382D02*
X38845Y19146D01*
X38133Y18817D02*
X39467Y18817D01*
X39467Y17983D02*
X38133Y17983D01*
X39467Y18817D02*
X39467Y17983D01*
X38133Y17983D02*
X38133Y18817D01*
X33468Y19338D02*
X33468Y20338D01*
X30468Y19338D02*
X30468Y20338D01*
X30468Y19338D02*
X32468Y19338D01*
X32718Y19338D02*
X33468Y19338D01*
X32551Y19338D02*
X32551Y19671D01*
X32635Y19421D02*
X32551Y19338D01*
X30468Y20338D02*
X33468Y20338D01*
X43474Y20046D02*
X43396Y19967D01*
X43318Y19967D01*
X43239Y20046D01*
X43239Y20282D01*
X43318Y20361D01*
X43396Y20361D01*
X43474Y20282D01*
X43749Y19967D02*
X43670Y19967D01*
X43592Y20046D01*
X43592Y20124D01*
X43631Y20164D01*
X43592Y20203D01*
X43592Y20282D01*
X43670Y20361D01*
X43749Y20361D01*
X43827Y20282D01*
X43827Y20203D01*
X43788Y20164D01*
X43827Y20124D01*
X43827Y20046D01*
X43749Y19967D01*
X43631Y20164D02*
X43788Y20164D01*
X44667Y18983D02*
X43333Y18983D01*
X43333Y19817D02*
X44667Y19817D01*
X43333Y18983D02*
X43333Y19817D01*
X44667Y19817D02*
X44667Y18983D01*
X38239Y21067D02*
X38239Y21461D01*
X38396Y21461D01*
X38474Y21382D01*
X38474Y21343D01*
X38396Y21264D01*
X38239Y21264D01*
X38278Y21264D02*
X38474Y21067D01*
X38631Y21382D02*
X38709Y21461D01*
X38709Y21067D01*
X38592Y21067D02*
X38827Y21067D01*
X38984Y21382D02*
X39062Y21461D01*
X39062Y21067D01*
X38945Y21067D02*
X39180Y21067D01*
X38133Y20917D02*
X39467Y20917D01*
X39467Y20083D02*
X38133Y20083D01*
X39467Y20917D02*
X39467Y20083D01*
X38133Y20083D02*
X38133Y20917D01*
X38139Y23267D02*
X38139Y23661D01*
X38296Y23661D01*
X38374Y23582D01*
X38374Y23543D01*
X38296Y23464D01*
X38139Y23464D01*
X38178Y23464D02*
X38374Y23267D01*
X38531Y23582D02*
X38609Y23661D01*
X38609Y23267D01*
X38492Y23267D02*
X38727Y23267D01*
X38845Y23582D02*
X38923Y23661D01*
X39001Y23661D01*
X39080Y23582D01*
X39080Y23543D01*
X38845Y23267D01*
X39080Y23267D01*
X39080Y23306D01*
X38133Y23017D02*
X39467Y23017D01*
X39467Y22183D02*
X38133Y22183D01*
X39467Y23017D02*
X39467Y22183D01*
X38133Y22183D02*
X38133Y23017D01*
X39656Y30170D02*
X39656Y29932D01*
X39767Y29873D01*
X39878Y29873D01*
X39989Y29932D01*
X39989Y30170D01*
X40489Y30170D02*
X40156Y30170D01*
X40156Y30051D01*
X40378Y30051D01*
X40489Y29992D01*
X40489Y29932D01*
X40378Y29873D01*
X40156Y29873D01*
X34000Y24332D02*
X39000Y24332D01*
X39000Y32600D02*
X39000Y24332D01*
X34000Y32600D02*
X39000Y32600D01*
X34000Y32600D02*
X34000Y24332D01*
X32616Y27394D02*
X32616Y28394D01*
X29616Y27394D02*
X29616Y28394D01*
X29616Y27394D02*
X31616Y27394D01*
X31866Y27394D02*
X32616Y27394D01*
X31699Y27394D02*
X31699Y27727D01*
X31782Y27477D02*
X31699Y27394D01*
X29616Y28394D02*
X32616Y28394D01*
X40609Y8739D02*
X41003Y8739D01*
X41003Y8974D01*
X41003Y9327D02*
X41003Y9092D01*
X40806Y9092D01*
X40609Y9092D01*
X40609Y9327D01*
X40806Y9092D02*
X40806Y9249D01*
X41003Y9445D02*
X41003Y9601D01*
X40924Y9680D01*
X40688Y9680D01*
X40609Y9601D01*
X40609Y9445D01*
X40609Y9484D02*
X41003Y9484D01*
X40846Y10033D02*
X40846Y9797D01*
X40609Y9993D01*
X41003Y9993D01*
X41003Y9954D02*
X41003Y10033D01*
X41183Y8753D02*
X41183Y10087D01*
X42017Y10087D02*
X42017Y8753D01*
X41183Y10087D02*
X42017Y10087D01*
X42017Y8753D02*
X41183Y8753D01*
X35744Y11134D02*
X35823Y11056D01*
X35823Y10978D01*
X35744Y10899D01*
X35508Y10899D01*
X35429Y10978D01*
X35429Y11056D01*
X35508Y11134D01*
X35429Y11487D02*
X35429Y11252D01*
X35587Y11252D01*
X35587Y11409D01*
X35666Y11487D01*
X35744Y11487D01*
X35823Y11409D01*
X35823Y11252D01*
X35983Y10933D02*
X35983Y12267D01*
X36817Y12267D02*
X36817Y10933D01*
X35983Y12267D02*
X36817Y12267D01*
X36817Y10933D02*
X35983Y10933D01*
X36059Y19461D02*
X36059Y19067D01*
X36294Y19067D01*
X36647Y19067D02*
X36412Y19067D01*
X36412Y19264D01*
X36412Y19461D01*
X36647Y19461D01*
X36412Y19264D02*
X36569Y19264D01*
X36765Y19067D02*
X36921Y19067D01*
X37000Y19146D01*
X37000Y19382D01*
X36921Y19461D01*
X36765Y19461D01*
X36804Y19461D02*
X36804Y19067D01*
X37157Y19382D02*
X37235Y19461D01*
X37235Y19067D01*
X37117Y19067D02*
X37353Y19067D01*
X36103Y18837D02*
X37437Y18837D01*
X37437Y18003D02*
X36103Y18003D01*
X37437Y18837D02*
X37437Y18003D01*
X36103Y18003D02*
X36103Y18837D01*
X36049Y21581D02*
X36049Y21187D01*
X36284Y21187D01*
X36637Y21187D02*
X36402Y21187D01*
X36402Y21384D01*
X36402Y21581D01*
X36637Y21581D01*
X36402Y21384D02*
X36559Y21384D01*
X36755Y21187D02*
X36911Y21187D01*
X36990Y21266D01*
X36990Y21502D01*
X36911Y21581D01*
X36755Y21581D01*
X36794Y21581D02*
X36794Y21187D01*
X37107Y21502D02*
X37186Y21581D01*
X37264Y21581D01*
X37343Y21502D01*
X37343Y21463D01*
X37107Y21187D01*
X37343Y21187D01*
X37343Y21226D01*
X36063Y20957D02*
X37397Y20957D01*
X37397Y20123D02*
X36063Y20123D01*
X37397Y20957D02*
X37397Y20123D01*
X36063Y20123D02*
X36063Y20957D01*
X36059Y23621D02*
X36059Y23227D01*
X36294Y23227D01*
X36647Y23227D02*
X36412Y23227D01*
X36412Y23424D01*
X36412Y23621D01*
X36647Y23621D01*
X36412Y23424D02*
X36569Y23424D01*
X36765Y23227D02*
X36921Y23227D01*
X37000Y23306D01*
X37000Y23542D01*
X36921Y23621D01*
X36765Y23621D01*
X36804Y23621D02*
X36804Y23227D01*
X37157Y23581D02*
X37196Y23621D01*
X37274Y23621D01*
X37353Y23542D01*
X37353Y23463D01*
X37313Y23424D01*
X37353Y23384D01*
X37353Y23306D01*
X37274Y23227D01*
X37196Y23227D01*
X37157Y23266D01*
X37196Y23424D02*
X37313Y23424D01*
X35993Y23017D02*
X37327Y23017D01*
X37327Y22183D02*
X35993Y22183D01*
X37327Y23017D02*
X37327Y22183D01*
X35993Y22183D02*
X35993Y23017D01*
X50808Y5689D02*
X50919Y5629D01*
X51030Y5629D01*
X51142Y5689D01*
X51142Y5927D01*
X51642Y5927D02*
X51308Y5927D01*
X51308Y5808D01*
X51530Y5808D01*
X51642Y5748D01*
X51642Y5689D01*
X51530Y5629D01*
X51308Y5629D01*
X55853Y5540D02*
X51853Y5540D01*
X55853Y6540D02*
X52853Y6540D01*
X51853Y6540D02*
X51853Y5540D01*
X52603Y6540D02*
X51853Y6540D01*
X52769Y6540D02*
X52769Y6207D01*
X52686Y6457D02*
X52769Y6540D01*
X55853Y6540D02*
X55853Y5540D01*
X53989Y27923D02*
X53989Y27057D01*
X54521Y27057D02*
X54521Y27923D01*
X54521Y27923D02*
X53989Y27923D01*
X53989Y27057D02*
X54521Y27057D01*
X46343Y27560D02*
X46343Y28893D01*
X47177Y28893D02*
X47177Y27560D01*
X46343Y28893D02*
X47177Y28893D01*
X47177Y27560D02*
X46343Y27560D01*
G54D15*
X40585Y12785D02*
X40585Y17215D01*
X45015Y17215D02*
X45015Y12785D01*
X40585Y12785D01*
X40585Y17215D02*
X45015Y17215D01*
X48343Y28148D02*
X48244Y28148D01*
X48244Y28050D01*
X49721Y28148D02*
X49740Y28148D01*
X49819Y28070D01*
X49819Y28050D01*
X48343Y26574D02*
X48244Y26574D01*
X48244Y26672D01*
X49721Y26574D02*
X49819Y26574D01*
X49819Y26672D01*
G54D16*
X40841Y13140D02*
G75*
D01*
G02X40841Y13140I99J0*
G01*
G54D17*
X40625Y12165D02*
G75*
D01*
G02X40625Y12165I49J0*
G01*
X49474Y28542D02*
G75*
D01*
G02X49474Y28542I50J0*
G01*
G54D18*
X50827Y27849D02*
X50827Y27849D01*
X50433Y27849D02*
X50433Y27849D01*
X51130Y27549D02*
X51130Y27549D01*
X50736Y27549D02*
X50736Y27549D01*
X50726Y27051D02*
X50726Y27051D01*
X51120Y27051D02*
X51120Y27051D01*
X51223Y27497D02*
X51223Y27497D01*
X51223Y27103D02*
X51223Y27103D01*
X50423Y27507D02*
X50423Y27507D01*
X50423Y27113D02*
X50423Y27113D01*
X50053Y28581D02*
X50053Y28581D01*
X50447Y28581D02*
X50447Y28581D01*
X50509Y27993D02*
X50509Y27993D01*
X50509Y28387D02*
X50509Y28387D01*
X50809Y27993D02*
X50809Y27993D01*
X50809Y28387D02*
X50809Y28387D01*
X50931Y28097D02*
X50931Y28097D01*
X50931Y27703D02*
X50931Y27703D01*
X51429Y27703D02*
X51429Y27703D01*
X51429Y28097D02*
X51429Y28097D01*
X51533Y27651D02*
X51533Y27651D01*
X51927Y27651D02*
X51927Y27651D01*
X51533Y27951D02*
X51533Y27951D01*
X51927Y27951D02*
X51927Y27951D01*
X52031Y28097D02*
X52031Y28097D01*
X52031Y27703D02*
X52031Y27703D01*
X52727Y27849D02*
X52727Y27849D01*
X52333Y27849D02*
X52333Y27849D01*
X52833Y27651D02*
X52833Y27651D01*
X53227Y27651D02*
X53227Y27651D01*
X53529Y27703D02*
X53529Y27703D01*
X53529Y28097D02*
X53529Y28097D01*
X56027Y27539D02*
X56027Y27539D01*
X56027Y27146D02*
X56027Y27146D01*
X54781Y28423D02*
X54781Y28423D01*
X54781Y28817D02*
X54781Y28817D01*
X54381Y28423D02*
X54381Y28423D01*
X54381Y28817D02*
X54381Y28817D01*
X56822Y27546D02*
X56822Y27546D01*
X56822Y27152D02*
X56822Y27152D01*
X54588Y26517D02*
X54588Y26517D01*
X54588Y26123D02*
X54588Y26123D01*
X54191Y26517D02*
X54191Y26517D01*
X54191Y26123D02*
X54191Y26123D01*
X55363Y27593D02*
X55363Y27593D01*
X54969Y27593D02*
X54969Y27593D01*
X56324Y27387D02*
X56324Y27387D01*
X56718Y27387D02*
X56718Y27387D01*
X47481Y28187D02*
X47481Y28187D01*
X47481Y27793D02*
X47481Y27793D01*
X47461Y27227D02*
X47461Y27227D01*
X47461Y26833D02*
X47461Y26833D01*
G54D19*
X50721Y27849D02*
X50537Y27849D01*
X50721Y27652D02*
X50537Y27652D01*
X51024Y27549D02*
X50840Y27549D01*
X51024Y27352D02*
X50840Y27352D01*
X50832Y27051D02*
X51016Y27051D01*
X50832Y27248D02*
X51016Y27248D01*
X51222Y27391D02*
X51222Y27207D01*
X51420Y27391D02*
X51420Y27207D01*
X50422Y27401D02*
X50422Y27217D01*
X50620Y27401D02*
X50620Y27217D01*
X50159Y28581D02*
X50343Y28581D01*
X50159Y28778D02*
X50343Y28778D01*
X50509Y28099D02*
X50509Y28283D01*
X50312Y28099D02*
X50312Y28283D01*
X50809Y28099D02*
X50809Y28283D01*
X50612Y28099D02*
X50612Y28283D01*
X50931Y27991D02*
X50931Y27807D01*
X51128Y27991D02*
X51128Y27807D01*
X51429Y27809D02*
X51429Y27993D01*
X51232Y27809D02*
X51232Y27993D01*
X51639Y27651D02*
X51823Y27651D01*
X51639Y27848D02*
X51823Y27848D01*
X51639Y27951D02*
X51823Y27951D01*
X51639Y28148D02*
X51823Y28148D01*
X52031Y27991D02*
X52031Y27807D01*
X52228Y27991D02*
X52228Y27807D01*
X52621Y27849D02*
X52437Y27849D01*
X52621Y27652D02*
X52437Y27652D01*
X52939Y27651D02*
X53123Y27651D01*
X52939Y27848D02*
X53123Y27848D01*
X53529Y27809D02*
X53529Y27993D01*
X53332Y27809D02*
X53332Y27993D01*
X56026Y27433D02*
X56026Y27249D01*
X56224Y27433D02*
X56224Y27249D01*
X54781Y28530D02*
X54781Y28713D01*
X54584Y28530D02*
X54584Y28713D01*
X54381Y28530D02*
X54381Y28713D01*
X54184Y28530D02*
X54184Y28713D01*
X56822Y27440D02*
X56822Y27256D01*
X57019Y27440D02*
X57019Y27256D01*
X54588Y26411D02*
X54588Y26227D01*
X54785Y26411D02*
X54785Y26227D01*
X54191Y26411D02*
X54191Y26227D01*
X54388Y26411D02*
X54388Y26227D01*
X55257Y27594D02*
X55073Y27594D01*
X55257Y27396D02*
X55073Y27396D01*
X56430Y27387D02*
X56614Y27387D01*
X56430Y27584D02*
X56614Y27584D01*
X47481Y28081D02*
X47481Y27897D01*
X47678Y28081D02*
X47678Y27897D01*
X47461Y27121D02*
X47461Y26937D01*
X47658Y27121D02*
X47658Y26937D01*
G54D20*
X51311Y31274D02*
X51596Y31274D01*
X51738Y31417D01*
X51738Y31846D01*
X51596Y31989D01*
X51311Y31989D01*
X51382Y31989D02*
X51382Y31274D01*
X51951Y31774D02*
X51951Y31417D01*
X52093Y31274D01*
X52236Y31274D01*
X52378Y31417D01*
X52378Y31774D01*
X52378Y31417D02*
X52378Y31274D01*
X52591Y31203D02*
X52733Y31060D01*
X52876Y31060D01*
X53018Y31203D01*
X53018Y31417D01*
X53018Y31631D01*
X52876Y31774D01*
X52733Y31774D01*
X52591Y31631D01*
X52591Y31417D01*
X52733Y31274D01*
X52876Y31274D01*
X53018Y31417D01*
X53302Y31774D02*
X53516Y31774D01*
X53587Y31703D01*
X53587Y31346D01*
X53516Y31274D01*
X53302Y31274D01*
X53231Y31346D01*
X53231Y31489D01*
X53302Y31560D01*
X53587Y31560D01*
X53587Y31346D02*
X53658Y31274D01*
X53871Y31274D02*
X53871Y31703D01*
X53871Y31774D01*
X53871Y31703D02*
X53942Y31774D01*
X54084Y31774D01*
X54156Y31703D01*
X54156Y31274D01*
X54653Y31774D02*
X54724Y31846D01*
X54724Y31989D01*
X55151Y31417D02*
X55293Y31274D01*
X55436Y31274D01*
X55578Y31417D01*
X55151Y31631D01*
X55293Y31774D01*
X55436Y31774D01*
X55578Y31631D01*
X56431Y31274D02*
X56716Y31274D01*
X56858Y31417D01*
X56858Y31846D01*
X56716Y31989D01*
X56431Y31989D01*
X56502Y31989D02*
X56502Y31274D01*
X57071Y31417D02*
X57213Y31274D01*
X57356Y31274D01*
X57498Y31417D01*
X57498Y31631D01*
X57356Y31774D01*
X57213Y31774D01*
X57071Y31631D01*
X57071Y31417D01*
X57711Y31203D02*
X57853Y31060D01*
X57996Y31060D01*
X58138Y31203D01*
X58138Y31417D01*
X58138Y31631D01*
X57996Y31774D01*
X57853Y31774D01*
X57711Y31631D01*
X57711Y31417D01*
X57853Y31274D01*
X57996Y31274D01*
X58138Y31417D01*
X58351Y31417D02*
X58493Y31274D01*
X58636Y31274D01*
X58778Y31417D01*
X58351Y31631D01*
X58493Y31774D01*
X58636Y31774D01*
X58778Y31631D01*
G54D21*
X49971Y26279D02*
X49971Y26107D01*
X50014Y26064D01*
X50057Y26064D01*
X50099Y26107D01*
X50099Y26279D01*
X50291Y26150D02*
X50163Y26150D01*
X50270Y26279D01*
X50270Y26064D01*
X50249Y26064D02*
X50291Y26064D01*
X50819Y26767D02*
X50777Y26724D01*
X50734Y26724D01*
X50691Y26767D01*
X50691Y26896D01*
X50734Y26939D01*
X50777Y26939D01*
X50819Y26896D01*
X50883Y26896D02*
X50926Y26939D01*
X50969Y26939D01*
X51011Y26896D01*
X51011Y26874D01*
X50883Y26724D01*
X51011Y26724D01*
X51011Y26746D01*
X51097Y26896D02*
X51139Y26939D01*
X51139Y26724D01*
X51075Y26724D02*
X51203Y26724D01*
X50799Y26387D02*
X50757Y26344D01*
X50714Y26344D01*
X50671Y26387D01*
X50671Y26516D01*
X50714Y26559D01*
X50757Y26559D01*
X50799Y26516D01*
X50885Y26516D02*
X50927Y26559D01*
X50927Y26344D01*
X50863Y26344D02*
X50991Y26344D01*
X51055Y26387D02*
X51098Y26344D01*
X51141Y26344D01*
X51183Y26387D01*
X51183Y26473D01*
X51183Y26516D01*
X51141Y26559D01*
X51098Y26559D01*
X51055Y26516D01*
X51055Y26473D01*
X51098Y26430D01*
X51141Y26430D01*
X51183Y26473D01*
X51523Y26539D02*
X51566Y26497D01*
X51566Y26454D01*
X51523Y26411D01*
X51394Y26411D01*
X51351Y26454D01*
X51351Y26497D01*
X51394Y26539D01*
X51394Y26603D02*
X51351Y26646D01*
X51351Y26689D01*
X51394Y26731D01*
X51416Y26731D01*
X51566Y26603D01*
X51566Y26731D01*
X51544Y26731D01*
X51394Y26795D02*
X51351Y26838D01*
X51351Y26881D01*
X51394Y26923D01*
X51523Y26923D01*
X51566Y26881D01*
X51566Y26838D01*
X51523Y26795D01*
X51394Y26795D01*
X51394Y26923D02*
X51523Y26795D01*
X50341Y26631D02*
X50556Y26631D01*
X50556Y26759D01*
X50363Y26845D02*
X50341Y26866D01*
X50341Y26909D01*
X50384Y26951D01*
X50427Y26951D01*
X50449Y26930D01*
X50470Y26951D01*
X50513Y26951D01*
X50556Y26909D01*
X50556Y26866D01*
X50534Y26845D01*
X50449Y26866D02*
X50449Y26930D01*
X50219Y28937D02*
X50177Y28894D01*
X50134Y28894D01*
X50091Y28937D01*
X50091Y29066D01*
X50134Y29109D01*
X50177Y29109D01*
X50219Y29066D01*
X50283Y28937D02*
X50326Y28894D01*
X50369Y28894D01*
X50411Y28937D01*
X50411Y29023D01*
X50411Y29066D01*
X50369Y29109D01*
X50326Y29109D01*
X50283Y29066D01*
X50283Y29023D01*
X50326Y28980D01*
X50369Y28980D01*
X50411Y29023D01*
X50703Y28769D02*
X50746Y28727D01*
X50746Y28684D01*
X50703Y28641D01*
X50574Y28641D01*
X50531Y28684D01*
X50531Y28727D01*
X50574Y28769D01*
X50574Y28855D02*
X50531Y28897D01*
X50746Y28897D01*
X50746Y28833D02*
X50746Y28961D01*
X50553Y29047D02*
X50531Y29068D01*
X50531Y29111D01*
X50574Y29153D01*
X50617Y29153D01*
X50639Y29132D01*
X50660Y29153D01*
X50703Y29153D01*
X50746Y29111D01*
X50746Y29068D01*
X50724Y29047D01*
X50639Y29068D02*
X50639Y29132D01*
X50993Y28779D02*
X51036Y28737D01*
X51036Y28694D01*
X50993Y28651D01*
X50864Y28651D01*
X50821Y28694D01*
X50821Y28737D01*
X50864Y28779D01*
X50864Y28865D02*
X50821Y28907D01*
X51036Y28907D01*
X51036Y28843D02*
X51036Y28971D01*
X50864Y29035D02*
X50821Y29078D01*
X50821Y29121D01*
X50864Y29163D01*
X50993Y29163D01*
X51036Y29121D01*
X51036Y29078D01*
X50993Y29035D01*
X50864Y29035D01*
X50864Y29163D02*
X50993Y29035D01*
X50911Y28231D02*
X51126Y28231D01*
X51126Y28359D01*
X50911Y28551D02*
X50911Y28423D01*
X50997Y28423D01*
X50997Y28509D01*
X51040Y28551D01*
X51083Y28551D01*
X51126Y28509D01*
X51126Y28423D01*
X51383Y28349D02*
X51426Y28307D01*
X51426Y28264D01*
X51383Y28221D01*
X51254Y28221D01*
X51211Y28264D01*
X51211Y28307D01*
X51254Y28349D01*
X51254Y28435D02*
X51211Y28477D01*
X51426Y28477D01*
X51426Y28413D02*
X51426Y28541D01*
X51340Y28733D02*
X51340Y28605D01*
X51211Y28712D01*
X51426Y28712D01*
X51426Y28691D02*
X51426Y28733D01*
X51571Y27589D02*
X51571Y27374D01*
X51699Y27374D01*
X51891Y27460D02*
X51763Y27460D01*
X51870Y27589D01*
X51870Y27374D01*
X51849Y27374D02*
X51891Y27374D01*
X51609Y28307D02*
X51567Y28264D01*
X51524Y28264D01*
X51481Y28307D01*
X51481Y28436D01*
X51524Y28479D01*
X51567Y28479D01*
X51609Y28436D01*
X51695Y28436D02*
X51737Y28479D01*
X51737Y28264D01*
X51673Y28264D02*
X51801Y28264D01*
X51993Y28479D02*
X51865Y28479D01*
X51865Y28393D01*
X51951Y28393D01*
X51993Y28350D01*
X51993Y28307D01*
X51951Y28264D01*
X51865Y28264D01*
X52243Y28359D02*
X52286Y28317D01*
X52286Y28274D01*
X52243Y28231D01*
X52114Y28231D01*
X52071Y28274D01*
X52071Y28317D01*
X52114Y28359D01*
X52114Y28445D02*
X52071Y28487D01*
X52286Y28487D01*
X52286Y28423D02*
X52286Y28551D01*
X52071Y28722D02*
X52071Y28658D01*
X52114Y28615D01*
X52200Y28615D01*
X52243Y28615D01*
X52286Y28658D01*
X52286Y28701D01*
X52243Y28743D01*
X52200Y28743D01*
X52157Y28701D01*
X52157Y28658D01*
X52200Y28615D01*
X52439Y27997D02*
X52397Y27954D01*
X52354Y27954D01*
X52311Y27997D01*
X52311Y28126D01*
X52354Y28169D01*
X52397Y28169D01*
X52439Y28126D01*
X52525Y28126D02*
X52567Y28169D01*
X52567Y27954D01*
X52503Y27954D02*
X52631Y27954D01*
X52759Y27954D02*
X52759Y28061D01*
X52823Y28126D01*
X52823Y28169D01*
X52695Y28169D01*
X52695Y28126D01*
X52901Y27549D02*
X52901Y27334D01*
X53029Y27334D01*
X53093Y27506D02*
X53136Y27549D01*
X53179Y27549D01*
X53221Y27506D01*
X53221Y27484D01*
X53093Y27334D01*
X53221Y27334D01*
X53221Y27356D01*
X53493Y28339D02*
X53536Y28297D01*
X53536Y28254D01*
X53493Y28211D01*
X53364Y28211D01*
X53321Y28254D01*
X53321Y28297D01*
X53364Y28339D01*
X53364Y28425D02*
X53321Y28467D01*
X53536Y28467D01*
X53536Y28403D02*
X53536Y28531D01*
X53536Y28681D02*
X53536Y28638D01*
X53493Y28595D01*
X53450Y28595D01*
X53429Y28617D01*
X53407Y28595D01*
X53364Y28595D01*
X53321Y28638D01*
X53321Y28681D01*
X53364Y28723D01*
X53407Y28723D01*
X53429Y28702D01*
X53450Y28723D01*
X53493Y28723D01*
X53536Y28681D01*
X53429Y28617D02*
X53429Y28702D01*
X56163Y27789D02*
X56206Y27747D01*
X56206Y27704D01*
X56163Y27661D01*
X56034Y27661D01*
X55991Y27704D01*
X55991Y27747D01*
X56034Y27789D01*
X56034Y27853D02*
X55991Y27896D01*
X55991Y27939D01*
X56034Y27981D01*
X56056Y27981D01*
X56206Y27853D01*
X56206Y27981D01*
X56184Y27981D01*
X55991Y28173D02*
X55991Y28045D01*
X56077Y28045D01*
X56077Y28131D01*
X56120Y28173D01*
X56163Y28173D01*
X56206Y28131D01*
X56206Y28045D01*
X55053Y28489D02*
X55096Y28447D01*
X55096Y28404D01*
X55053Y28361D01*
X54924Y28361D01*
X54881Y28404D01*
X54881Y28447D01*
X54924Y28489D01*
X54924Y28553D02*
X54881Y28596D01*
X54881Y28639D01*
X54924Y28681D01*
X54946Y28681D01*
X55096Y28553D01*
X55096Y28681D01*
X55074Y28681D01*
X54903Y28767D02*
X54881Y28788D01*
X54881Y28831D01*
X54924Y28873D01*
X54967Y28873D01*
X54989Y28852D01*
X55010Y28873D01*
X55053Y28873D01*
X55096Y28831D01*
X55096Y28788D01*
X55074Y28767D01*
X54989Y28788D02*
X54989Y28852D01*
X54396Y28941D02*
X54181Y28941D01*
X54181Y29027D01*
X54224Y29069D01*
X54246Y29069D01*
X54289Y29027D01*
X54289Y28941D01*
X54289Y28963D02*
X54396Y29069D01*
X54203Y29155D02*
X54181Y29176D01*
X54181Y29219D01*
X54224Y29261D01*
X54267Y29261D01*
X54289Y29240D01*
X54310Y29261D01*
X54353Y29261D01*
X54396Y29219D01*
X54396Y29176D01*
X54374Y29155D01*
X54289Y29176D02*
X54289Y29240D01*
X56993Y27809D02*
X57036Y27767D01*
X57036Y27724D01*
X56993Y27681D01*
X56864Y27681D01*
X56821Y27724D01*
X56821Y27767D01*
X56864Y27809D01*
X56864Y27873D02*
X56821Y27916D01*
X56821Y27959D01*
X56864Y28001D01*
X56886Y28001D01*
X57036Y27873D01*
X57036Y28001D01*
X57014Y28001D01*
X56821Y28172D02*
X56821Y28108D01*
X56864Y28065D01*
X56950Y28065D01*
X56993Y28065D01*
X57036Y28108D01*
X57036Y28151D01*
X56993Y28193D01*
X56950Y28193D01*
X56907Y28151D01*
X56907Y28108D01*
X56950Y28065D01*
X55063Y26189D02*
X55106Y26147D01*
X55106Y26104D01*
X55063Y26061D01*
X54934Y26061D01*
X54891Y26104D01*
X54891Y26147D01*
X54934Y26189D01*
X54934Y26253D02*
X54891Y26296D01*
X54891Y26339D01*
X54934Y26381D01*
X54956Y26381D01*
X55106Y26253D01*
X55106Y26381D01*
X55084Y26381D01*
X54934Y26445D02*
X54891Y26488D01*
X54891Y26531D01*
X54934Y26573D01*
X54956Y26573D01*
X55106Y26445D01*
X55106Y26573D01*
X55084Y26573D01*
X54406Y25711D02*
X54191Y25711D01*
X54191Y25797D01*
X54234Y25839D01*
X54256Y25839D01*
X54299Y25797D01*
X54299Y25711D01*
X54299Y25733D02*
X54406Y25839D01*
X54320Y26031D02*
X54320Y25903D01*
X54191Y26010D01*
X54406Y26010D01*
X54406Y25989D02*
X54406Y26031D01*
X55019Y27107D02*
X54977Y27064D01*
X54934Y27064D01*
X54891Y27107D01*
X54891Y27236D01*
X54934Y27279D01*
X54977Y27279D01*
X55019Y27236D01*
X55083Y27236D02*
X55126Y27279D01*
X55169Y27279D01*
X55211Y27236D01*
X55211Y27214D01*
X55083Y27064D01*
X55211Y27064D01*
X55211Y27086D01*
X55403Y27150D02*
X55275Y27150D01*
X55382Y27279D01*
X55382Y27064D01*
X55361Y27064D02*
X55403Y27064D01*
X53681Y26919D02*
X53681Y26747D01*
X53724Y26704D01*
X53767Y26704D01*
X53809Y26747D01*
X53809Y26919D01*
X53895Y26897D02*
X53916Y26919D01*
X53959Y26919D01*
X54001Y26876D01*
X54001Y26833D01*
X53980Y26811D01*
X54001Y26790D01*
X54001Y26747D01*
X53959Y26704D01*
X53916Y26704D01*
X53895Y26726D01*
X53916Y26811D02*
X53980Y26811D01*
X56361Y27259D02*
X56361Y27044D01*
X56489Y27044D01*
X56660Y27259D02*
X56596Y27259D01*
X56553Y27216D01*
X56553Y27130D01*
X56553Y27087D01*
X56596Y27044D01*
X56639Y27044D01*
X56681Y27087D01*
X56681Y27130D01*
X56639Y27173D01*
X56596Y27173D01*
X56553Y27130D01*
X47623Y28449D02*
X47666Y28407D01*
X47666Y28364D01*
X47623Y28321D01*
X47494Y28321D01*
X47451Y28364D01*
X47451Y28407D01*
X47494Y28449D01*
X47494Y28535D02*
X47451Y28577D01*
X47666Y28577D01*
X47666Y28513D02*
X47666Y28641D01*
X47494Y28705D02*
X47451Y28748D01*
X47451Y28791D01*
X47494Y28833D01*
X47516Y28833D01*
X47666Y28705D01*
X47666Y28833D01*
X47644Y28833D01*
X46301Y29215D02*
X46301Y29001D01*
X46429Y29001D01*
X46515Y29172D02*
X46557Y29215D01*
X46557Y29001D01*
X46493Y29001D02*
X46621Y29001D01*
X47623Y26339D02*
X47666Y26297D01*
X47666Y26254D01*
X47623Y26211D01*
X47494Y26211D01*
X47451Y26254D01*
X47451Y26297D01*
X47494Y26339D01*
X47494Y26425D02*
X47451Y26467D01*
X47666Y26467D01*
X47666Y26403D02*
X47666Y26531D01*
X47494Y26617D02*
X47451Y26659D01*
X47666Y26659D01*
X47666Y26595D02*
X47666Y26723D01*
X48201Y30409D02*
X48201Y30237D01*
X48244Y30194D01*
X48287Y30194D01*
X48329Y30237D01*
X48329Y30409D01*
X48500Y30409D02*
X48436Y30409D01*
X48393Y30366D01*
X48393Y30280D01*
X48393Y30237D01*
X48436Y30194D01*
X48479Y30194D01*
X48521Y30237D01*
X48521Y30280D01*
X48479Y30323D01*
X48436Y30323D01*
X48393Y30280D01*

M02*
