G04 Generated by Ultiboard 14.0 *
%FSLAX24Y24*%
%MOIN*%

%ADD10C,0.0001*%
%ADD11C,0.0100*%
%ADD12C,0.0050*%
%ADD13C,0.1130*%
%ADD14C,0.0260*%
%ADD15C,0.0633*%
%ADD16R,0.0208X0.0208*%
%ADD17C,0.0392*%


G04 ColorRGB CCCCCC for the following layer *
%LNCopper Inner 2*%
%LPD*%
G54D10*
G36*
X59730Y26316D02*
X59730Y26316D01*
X59730Y4451D01*
X26211Y4451D01*
X26211Y32899D01*
X59730Y32899D01*
X59730Y28573D01*
G75*
D01*
G03X59629Y28611I-100J-112*
G01*
X59629Y28611D01*
X57580Y28601D01*
G75*
D01*
G03X57430Y28441I1J-151*
G01*
X57430Y28441D01*
X57445Y28169D01*
G75*
D01*
G03X57474Y27711I-144J-239*
G01*
G74*
D01*
G03X57585Y27603I146J39*
G01*
G75*
D01*
G03X57620Y27599I35J147*
G01*
X57620Y27599D01*
X59650Y27599D01*
G75*
D01*
G03X59697Y27607I-2J151*
G01*
G74*
D01*
G03X59730Y27622I45J143*
G01*
X59730Y27622D01*
X59730Y27344D01*
G74*
D01*
G03X59660Y27361I70J134*
G01*
X59660Y27361D01*
X57610Y27361D01*
G75*
D01*
G03X57469Y27263I0J-151*
G01*
G75*
D01*
G03X57021Y27061I-170J-221*
G01*
G75*
D01*
G03X57199Y26779I-100J-260*
G01*
G75*
D01*
G03X57459Y26810I101J260*
G01*
X57459Y26810D01*
X57459Y26440D01*
G75*
D01*
G03X57610Y26289I151J0*
G01*
X57611Y26289D01*
X57611Y26289D01*
X59661Y26299D01*
G74*
D01*
G03X59730Y26316I1J151*
G01*
D02*
G37*
%LPC*%
G36*
X54256Y5583D02*
G75*
D01*
G03X54256Y5583I97J457*
G01*
D02*
G37*
G36*
X57208Y23047D02*
G75*
D01*
G03X57208Y23047I-627J-343*
G01*
D02*
G37*
G36*
X54256Y24600D02*
G75*
D01*
G03X54256Y24600I144J240*
G01*
D02*
G37*
G36*
X54256Y14505D02*
G75*
D01*
G03X54256Y14505I103J455*
G01*
D02*
G37*
G36*
X35358Y9631D02*
G75*
D01*
G03X35358Y9631I-158J-231*
G01*
D02*
G37*
G36*
X35358Y8266D02*
G75*
D01*
G03X35358Y8266I-198J-687*
G01*
D02*
G37*
G36*
X46306Y13598D02*
G75*
D01*
G03X46306Y13598I194J202*
G01*
D02*
G37*
G36*
X35358Y18706D02*
G75*
D01*
G03X35358Y18706I-88J-266*
G01*
D02*
G37*
G36*
X35358Y20767D02*
G75*
D01*
G03X35358Y20767I-188J-207*
G01*
D02*
G37*
G36*
X35358Y22806D02*
G75*
D01*
G03X35358Y22806I-178J-216*
G01*
D02*
G37*
G36*
X35358Y15909D02*
G75*
D01*
G03X35358Y15909I-258J-109*
G01*
D02*
G37*
G36*
X50900Y23047D02*
G75*
D01*
G03X50900Y23047I-627J-343*
G01*
D02*
G37*
G36*
X54054Y23047D02*
G75*
D01*
G03X54054Y23047I-627J-343*
G01*
D02*
G37*
G36*
X45220Y23047D02*
G75*
D01*
G03X45220Y23047I-120J253*
G01*
D02*
G37*
G36*
X56750Y6500D02*
G75*
D01*
G03X56750Y6500I650J0*
G01*
D02*
G37*
G36*
X54886Y6040D02*
G75*
D01*
G03X54886Y6040I467J0*
G01*
D02*
G37*
G36*
X57000Y30400D02*
G75*
D01*
G03X57000Y30400I280J0*
G01*
D02*
G37*
G36*
X56010Y24860D02*
G75*
D01*
G03X56010Y24860I280J0*
G01*
D02*
G37*
G36*
X54410Y25580D02*
G75*
D01*
G03X54410Y25580I280J0*
G01*
D02*
G37*
G36*
X55320Y25940D02*
G75*
D01*
G03X55320Y25940I280J0*
G01*
D02*
G37*
G36*
X56580Y25920D02*
G75*
D01*
G03X56580Y25920I280J0*
G01*
D02*
G37*
G36*
X57910Y25940D02*
G75*
D01*
G03X57910Y25940I280J0*
G01*
D02*
G37*
G36*
X58820Y25930D02*
G75*
D01*
G03X58820Y25930I280J0*
G01*
D02*
G37*
G36*
X55923Y26999D02*
G75*
D01*
G03X55402Y27190I-271J68*
G01*
G75*
D01*
G03X55408Y26920I-241J-140*
G01*
G75*
D01*
G03X55857Y26871I242J138*
G01*
G75*
D01*
G03X55923Y26999I273J-60*
G01*
D02*
G37*
G36*
X55417Y28061D02*
G75*
D01*
G03X55413Y27829I-256J-112*
G01*
G75*
D01*
G03X55417Y28061I256J112*
G01*
D02*
G37*
G36*
X56240Y27950D02*
G75*
D01*
G03X56240Y27950I280J0*
G01*
D02*
G37*
G36*
X54400Y29300D02*
G75*
D01*
G03X54400Y29300I280J0*
G01*
D02*
G37*
G36*
X55420Y29160D02*
G75*
D01*
G03X55420Y29160I280J0*
G01*
D02*
G37*
G36*
X56410Y29150D02*
G75*
D01*
G03X56410Y29150I280J0*
G01*
D02*
G37*
G36*
X57830Y28950D02*
G75*
D01*
G03X57830Y28950I280J0*
G01*
D02*
G37*
G36*
X58840Y28960D02*
G75*
D01*
G03X58840Y28960I280J0*
G01*
D02*
G37*
G36*
X55150Y30440D02*
G75*
D01*
G03X55150Y30440I280J0*
G01*
D02*
G37*
G36*
X54892Y14960D02*
G75*
D01*
G03X54892Y14960I467J0*
G01*
D02*
G37*
G36*
X55892Y14960D02*
G75*
D01*
G03X55892Y14960I467J0*
G01*
D02*
G37*
G36*
X56892Y14960D02*
G75*
D01*
G03X56892Y14960I467J0*
G01*
D02*
G37*
G36*
X55020Y16310D02*
G75*
D01*
G03X55020Y16310I280J0*
G01*
D02*
G37*
G36*
X55848Y19895D02*
G75*
D01*
G03X55848Y19895I715J0*
G01*
D02*
G37*
G36*
X34420Y13200D02*
G75*
D01*
G03X34420Y13200I280J0*
G01*
D02*
G37*
G36*
X30628Y7709D02*
G75*
D01*
G03X30628Y7709I715J0*
G01*
D02*
G37*
G36*
X31020Y9400D02*
G75*
D01*
G03X31020Y9400I280J0*
G01*
D02*
G37*
G36*
X48750Y6500D02*
G75*
D01*
G03X48750Y6500I650J0*
G01*
D02*
G37*
G36*
X51901Y6144D02*
X51901Y6144D01*
X51901Y5936D01*
G75*
D01*
G03X52249Y5588I348J0*
G01*
X52249Y5588D01*
X52457Y5588D01*
G75*
D01*
G03X52804Y5936I-1J348*
G01*
X52804Y5936D01*
X52804Y6144D01*
G74*
D01*
G03X52457Y6492I347J1*
G01*
X52457Y6492D01*
X52249Y6492D01*
G75*
D01*
G03X51901Y6144I0J-348*
G01*
D02*
G37*
G36*
X52886Y6040D02*
G75*
D01*
G03X52886Y6040I467J0*
G01*
D02*
G37*
G36*
X46320Y9200D02*
G75*
D01*
G03X46320Y9200I280J0*
G01*
D02*
G37*
G36*
X40520Y10700D02*
G75*
D01*
G03X40520Y10700I280J0*
G01*
D02*
G37*
G36*
X42400Y7220D02*
G75*
D01*
G03X42400Y7220I280J0*
G01*
D02*
G37*
G36*
X43120Y9700D02*
G75*
D01*
G03X43120Y9700I280J0*
G01*
D02*
G37*
G36*
X36130Y10080D02*
G75*
D01*
G03X36130Y10080I280J0*
G01*
D02*
G37*
G36*
X39920Y10600D02*
G75*
D01*
G03X39920Y10600I280J0*
G01*
D02*
G37*
G36*
X28220Y14400D02*
G75*
D01*
G03X28220Y14400I280J0*
G01*
D02*
G37*
G36*
X31920Y14300D02*
G75*
D01*
G03X31920Y14300I280J0*
G01*
D02*
G37*
G36*
X29220Y14700D02*
G75*
D01*
G03X29220Y14700I280J0*
G01*
D02*
G37*
G36*
X31020Y14600D02*
G75*
D01*
G03X31020Y14600I280J0*
G01*
D02*
G37*
G36*
X32420Y14700D02*
G75*
D01*
G03X32420Y14700I280J0*
G01*
D02*
G37*
G36*
X27220Y15300D02*
G75*
D01*
G03X27220Y15300I280J0*
G01*
D02*
G37*
G36*
X31320Y15400D02*
G75*
D01*
G03X31320Y15400I280J0*
G01*
D02*
G37*
G36*
X33120Y15300D02*
G75*
D01*
G03X33120Y15300I280J0*
G01*
D02*
G37*
G36*
X27074Y16338D02*
X27074Y16338D01*
X27074Y16130D01*
G75*
D01*
G03X27421Y15783I347J0*
G01*
X27421Y15783D01*
X27629Y15783D01*
G75*
D01*
G03X27977Y16130I1J347*
G01*
X27977Y16130D01*
X27977Y16338D01*
G74*
D01*
G03X27629Y16686I348J0*
G01*
X27629Y16686D01*
X27421Y16686D01*
G75*
D01*
G03X27074Y16338I1J-348*
G01*
D02*
G37*
G36*
X28059Y16234D02*
G75*
D01*
G03X28059Y16234I466J0*
G01*
D02*
G37*
G36*
X29059Y16234D02*
G75*
D01*
G03X29059Y16234I466J0*
G01*
D02*
G37*
G36*
X30059Y16234D02*
G75*
D01*
G03X30059Y16234I466J0*
G01*
D02*
G37*
G36*
X31059Y16234D02*
G75*
D01*
G03X31059Y16234I466J0*
G01*
D02*
G37*
G36*
X32059Y16234D02*
G75*
D01*
G03X32059Y16234I466J0*
G01*
D02*
G37*
G36*
X33059Y16234D02*
G75*
D01*
G03X33059Y16234I466J0*
G01*
D02*
G37*
G36*
X27059Y17234D02*
G75*
D01*
G03X27059Y17234I466J0*
G01*
D02*
G37*
G36*
X28059Y17234D02*
G75*
D01*
G03X28059Y17234I466J0*
G01*
D02*
G37*
G36*
X29059Y17234D02*
G75*
D01*
G03X29059Y17234I466J0*
G01*
D02*
G37*
G36*
X30059Y17234D02*
G75*
D01*
G03X30059Y17234I466J0*
G01*
D02*
G37*
G36*
X31059Y17234D02*
G75*
D01*
G03X31059Y17234I466J0*
G01*
D02*
G37*
G36*
X32059Y17234D02*
G75*
D01*
G03X32059Y17234I466J0*
G01*
D02*
G37*
G36*
X33059Y17234D02*
G75*
D01*
G03X33059Y17234I466J0*
G01*
D02*
G37*
G36*
X30501Y19838D02*
G75*
D01*
G03X30501Y19838I467J0*
G01*
D02*
G37*
G36*
X33420Y19733D02*
X33420Y19733D01*
X33420Y19942D01*
G74*
D01*
G03X33072Y20289I348J1*
G01*
X33072Y20289D01*
X32864Y20289D01*
G75*
D01*
G03X32516Y19942I-1J-347*
G01*
X32516Y19942D01*
X32516Y19733D01*
G75*
D01*
G03X32864Y19386I348J1*
G01*
X32864Y19386D01*
X33072Y19386D01*
G75*
D01*
G03X33420Y19733I1J347*
G01*
D02*
G37*
G36*
X27520Y21900D02*
G75*
D01*
G03X27520Y21900I280J0*
G01*
D02*
G37*
G36*
X32567Y27790D02*
X32567Y27790D01*
X32567Y27998D01*
G74*
D01*
G03X32220Y28345I347J0*
G01*
X32220Y28345D01*
X32012Y28345D01*
G75*
D01*
G03X31664Y27998I-1J-347*
G01*
X31664Y27998D01*
X31664Y27790D01*
G75*
D01*
G03X32012Y27442I348J0*
G01*
X32012Y27442D01*
X32220Y27442D01*
G75*
D01*
G03X32567Y27790I-1J348*
G01*
D02*
G37*
G36*
X27027Y24435D02*
G75*
D01*
G03X27027Y24435I715J0*
G01*
D02*
G37*
G36*
X31920Y25800D02*
G75*
D01*
G03X31920Y25800I280J0*
G01*
D02*
G37*
G36*
X26947Y27891D02*
G75*
D01*
G03X26947Y27891I715J0*
G01*
D02*
G37*
G36*
X29649Y27894D02*
G75*
D01*
G03X29649Y27894I467J0*
G01*
D02*
G37*
G36*
X53410Y30420D02*
G75*
D01*
G03X53410Y30420I280J0*
G01*
D02*
G37*
G36*
X45420Y23500D02*
G75*
D01*
G03X45420Y23500I280J0*
G01*
D02*
G37*
G36*
X46720Y24300D02*
G75*
D01*
G03X46720Y24300I280J0*
G01*
D02*
G37*
G36*
X46220Y25400D02*
G75*
D01*
G03X46220Y25400I280J0*
G01*
D02*
G37*
G36*
X49980Y25230D02*
G75*
D01*
G03X49980Y25230I280J0*
G01*
D02*
G37*
G36*
X51480Y25260D02*
G75*
D01*
G03X51480Y25260I280J0*
G01*
D02*
G37*
G36*
X52950Y24820D02*
G75*
D01*
G03X52950Y24820I280J0*
G01*
D02*
G37*
G36*
X46620Y26250D02*
G75*
D01*
G03X46620Y26250I280J0*
G01*
D02*
G37*
G36*
X50500Y25920D02*
G75*
D01*
G03X50500Y25920I280J0*
G01*
D02*
G37*
G36*
X52090Y25910D02*
G75*
D01*
G03X52090Y25910I280J0*
G01*
D02*
G37*
G36*
X53270Y25880D02*
G75*
D01*
G03X53270Y25880I280J0*
G01*
D02*
G37*
G36*
X46790Y26800D02*
G75*
D01*
G03X46790Y26800I280J0*
G01*
D02*
G37*
G36*
X49960Y26740D02*
G75*
D01*
G03X49960Y26740I280J0*
G01*
D02*
G37*
G36*
X50980Y26660D02*
G75*
D01*
G03X50980Y26660I280J0*
G01*
D02*
G37*
G36*
X51780Y26870D02*
G75*
D01*
G03X51780Y26870I280J0*
G01*
D02*
G37*
G36*
X52390Y26870D02*
G75*
D01*
G03X52390Y26870I280J0*
G01*
D02*
G37*
G36*
X52990Y26880D02*
G75*
D01*
G03X52990Y26880I280J0*
G01*
D02*
G37*
G36*
X49401Y27364D02*
G75*
D01*
G03X49035Y27779I-151J236*
G01*
G75*
D01*
G03X48660Y27370I-209J-185*
G01*
G75*
D01*
G03X49025Y26949I161J-229*
G01*
G75*
D01*
G03X49401Y27364I188J207*
G01*
D02*
G37*
G36*
X49901Y28719D02*
X49901Y28719D01*
X49930Y28719D01*
G75*
D01*
G03X49986Y28730I-1J151*
G01*
G75*
D01*
G03X50081Y28875I-55J140*
G01*
X50081Y28875D01*
X50076Y29021D01*
X51061Y29029D01*
G75*
D01*
G03X51211Y29180I-1J151*
G01*
X51211Y29180D01*
X51211Y30060D01*
G74*
D01*
G03X51060Y30211I151J0*
G01*
X51060Y30211D01*
X50485Y30211D01*
G75*
D01*
G03X50195Y30211I-145J238*
G01*
X50195Y30211D01*
X49820Y30211D01*
G75*
D01*
G03X49669Y30060I0J-151*
G01*
X49669Y30060D01*
X49669Y29877D01*
G75*
D01*
G03X49407Y29431I-41J-276*
G01*
X49407Y29431D01*
X48697Y29431D01*
G75*
D01*
G03X48451Y29860I-235J150*
G01*
X48451Y29860D01*
X48451Y30080D01*
G74*
D01*
G03X48300Y30231I151J0*
G01*
X48300Y30231D01*
X47320Y30231D01*
G75*
D01*
G03X47169Y30080I0J-151*
G01*
X47169Y30080D01*
X47169Y29420D01*
G75*
D01*
G03X47320Y29269I151J0*
G01*
X47320Y29269D01*
X47917Y29269D01*
X47909Y28873D01*
G75*
D01*
G03X47998Y28732I151J-3*
G01*
G75*
D01*
G03X48060Y28719I61J138*
G01*
X48060Y28719D01*
X48473Y28719D01*
G75*
D01*
G03X48470Y28666I276J-42*
G01*
G75*
D01*
G03X48600Y28444I-149J-236*
G01*
G75*
D01*
G03X48940Y28475I150J235*
G01*
G75*
D01*
G03X49465Y28435I270J75*
G01*
G75*
D01*
G03X49901Y28719I274J55*
G01*
D02*
G37*
G36*
X49032Y30468D02*
G75*
D01*
G03X49018Y30292I-272J-67*
G01*
G75*
D01*
G03X49032Y30468I272J67*
G01*
D02*
G37*
G36*
X51058Y28588D02*
G75*
D01*
G03X51052Y28572I-265J90*
G01*
G75*
D01*
G03X51058Y28588I265J-90*
G01*
D02*
G37*
G36*
X53143Y28452D02*
G75*
D01*
G03X52799Y28372I-123J-252*
G01*
G75*
D01*
G03X52393Y28427I-229J-162*
G01*
G75*
D01*
G03X52297Y28273I-273J63*
G01*
G75*
D01*
G03X52791Y28038I273J-63*
G01*
G75*
D01*
G03X53297Y28238I229J162*
G01*
G75*
D01*
G03X53143Y28452I124J251*
G01*
D02*
G37*
G36*
X53630Y29190D02*
G75*
D01*
G03X53630Y29190I280J0*
G01*
D02*
G37*
G36*
X51380Y29440D02*
G75*
D01*
G03X51380Y29440I280J0*
G01*
D02*
G37*
G36*
X52530Y29680D02*
G75*
D01*
G03X52530Y29680I280J0*
G01*
D02*
G37*
G36*
X51540Y30450D02*
G75*
D01*
G03X51540Y30450I280J0*
G01*
D02*
G37*
G36*
X49907Y15064D02*
X49907Y15064D01*
X49907Y14856D01*
G75*
D01*
G03X50255Y14508I348J0*
G01*
X50255Y14508D01*
X50463Y14508D01*
G75*
D01*
G03X50811Y14856I0J348*
G01*
X50811Y14856D01*
X50811Y15064D01*
G74*
D01*
G03X50463Y15412I348J0*
G01*
X50463Y15412D01*
X50255Y15412D01*
G75*
D01*
G03X49907Y15064I0J-348*
G01*
D02*
G37*
G36*
X50892Y14960D02*
G75*
D01*
G03X50892Y14960I467J0*
G01*
D02*
G37*
G36*
X51892Y14960D02*
G75*
D01*
G03X51892Y14960I467J0*
G01*
D02*
G37*
G36*
X46120Y17500D02*
G75*
D01*
G03X46120Y17500I280J0*
G01*
D02*
G37*
G36*
X47220Y17600D02*
G75*
D01*
G03X47220Y17600I280J0*
G01*
D02*
G37*
G36*
X47920Y17400D02*
G75*
D01*
G03X47920Y17400I280J0*
G01*
D02*
G37*
G36*
X49570Y19895D02*
G75*
D01*
G03X49570Y19895I715J0*
G01*
D02*
G37*
G36*
X52709Y19895D02*
G75*
D01*
G03X52709Y19895I715J0*
G01*
D02*
G37*
G36*
X40771Y27825D02*
G75*
D01*
G03X40771Y27825I715J0*
G01*
D02*
G37*
G36*
X40768Y24818D02*
G75*
D01*
G03X40768Y24818I715J0*
G01*
D02*
G37*
G36*
X44120Y20400D02*
G75*
D01*
G03X44120Y20400I280J0*
G01*
D02*
G37*
%LPD*%
G36*
X49579Y28719D02*
X49579Y28719D01*
X49433Y28719D01*
G74*
D01*
G02X49485Y28605I221J170*
G01*
G74*
D01*
G02X49579Y28719I255J114*
G01*
D02*
G37*
G36*
X49069Y27386D02*
G74*
D01*
G02X49035Y27421I183J212*
G01*
G74*
D01*
G02X48980Y27370I215J177*
G01*
G74*
D01*
G02X49015Y27341I161J229*
G01*
G74*
D01*
G02X49069Y27386I205J191*
G01*
D02*
G37*
G54D11*
X49069Y27386D02*
G74*
D01*
G02X49035Y27421I183J212*
G01*
G74*
D01*
G02X48980Y27370I215J177*
G01*
G74*
D01*
G02X49015Y27341I161J229*
G01*
G74*
D01*
G02X49069Y27386I205J191*
G01*
X49579Y28719D02*
X49433Y28719D01*
G74*
D01*
G02X49485Y28605I221J170*
G01*
G74*
D01*
G02X49579Y28719I255J114*
G01*
X54256Y5583D02*
G75*
D01*
G03X54256Y5583I97J457*
G01*
X57208Y23047D02*
G75*
D01*
G03X57208Y23047I-627J-343*
G01*
X54256Y24600D02*
G75*
D01*
G03X54256Y24600I144J240*
G01*
X54256Y14505D02*
G75*
D01*
G03X54256Y14505I103J455*
G01*
X35358Y9631D02*
G75*
D01*
G03X35358Y9631I-158J-231*
G01*
X35358Y8266D02*
G75*
D01*
G03X35358Y8266I-198J-687*
G01*
X46306Y13598D02*
G75*
D01*
G03X46306Y13598I194J202*
G01*
X35358Y18706D02*
G75*
D01*
G03X35358Y18706I-88J-266*
G01*
X35358Y20767D02*
G75*
D01*
G03X35358Y20767I-188J-207*
G01*
X35358Y22806D02*
G75*
D01*
G03X35358Y22806I-178J-216*
G01*
X35358Y15909D02*
G75*
D01*
G03X35358Y15909I-258J-109*
G01*
X50900Y23047D02*
G75*
D01*
G03X50900Y23047I-627J-343*
G01*
X54054Y23047D02*
G75*
D01*
G03X54054Y23047I-627J-343*
G01*
X45220Y23047D02*
G75*
D01*
G03X45220Y23047I-120J253*
G01*
X56750Y6500D02*
G75*
D01*
G03X56750Y6500I650J0*
G01*
X54886Y6040D02*
G75*
D01*
G03X54886Y6040I467J0*
G01*
X57000Y30400D02*
G75*
D01*
G03X57000Y30400I280J0*
G01*
X56010Y24860D02*
G75*
D01*
G03X56010Y24860I280J0*
G01*
X54410Y25580D02*
G75*
D01*
G03X54410Y25580I280J0*
G01*
X55320Y25940D02*
G75*
D01*
G03X55320Y25940I280J0*
G01*
X56580Y25920D02*
G75*
D01*
G03X56580Y25920I280J0*
G01*
X57910Y25940D02*
G75*
D01*
G03X57910Y25940I280J0*
G01*
X58820Y25930D02*
G75*
D01*
G03X58820Y25930I280J0*
G01*
X55923Y26999D02*
G75*
D01*
G03X55402Y27190I-271J68*
G01*
G75*
D01*
G03X55408Y26920I-241J-140*
G01*
G75*
D01*
G03X55857Y26871I242J138*
G01*
G75*
D01*
G03X55923Y26999I273J-60*
G01*
X55417Y28061D02*
G75*
D01*
G03X55413Y27829I-256J-112*
G01*
G75*
D01*
G03X55417Y28061I256J112*
G01*
X56240Y27950D02*
G75*
D01*
G03X56240Y27950I280J0*
G01*
X54400Y29300D02*
G75*
D01*
G03X54400Y29300I280J0*
G01*
X55420Y29160D02*
G75*
D01*
G03X55420Y29160I280J0*
G01*
X56410Y29150D02*
G75*
D01*
G03X56410Y29150I280J0*
G01*
X57830Y28950D02*
G75*
D01*
G03X57830Y28950I280J0*
G01*
X58840Y28960D02*
G75*
D01*
G03X58840Y28960I280J0*
G01*
X55150Y30440D02*
G75*
D01*
G03X55150Y30440I280J0*
G01*
X54892Y14960D02*
G75*
D01*
G03X54892Y14960I467J0*
G01*
X55892Y14960D02*
G75*
D01*
G03X55892Y14960I467J0*
G01*
X56892Y14960D02*
G75*
D01*
G03X56892Y14960I467J0*
G01*
X55020Y16310D02*
G75*
D01*
G03X55020Y16310I280J0*
G01*
X55848Y19895D02*
G75*
D01*
G03X55848Y19895I715J0*
G01*
X34420Y13200D02*
G75*
D01*
G03X34420Y13200I280J0*
G01*
X30628Y7709D02*
G75*
D01*
G03X30628Y7709I715J0*
G01*
X31020Y9400D02*
G75*
D01*
G03X31020Y9400I280J0*
G01*
X48750Y6500D02*
G75*
D01*
G03X48750Y6500I650J0*
G01*
X51901Y6144D02*
X51901Y5936D01*
G75*
D01*
G03X52249Y5588I348J0*
G01*
X52457Y5588D01*
G75*
D01*
G03X52804Y5936I-1J348*
G01*
X52804Y6144D01*
G74*
D01*
G03X52457Y6492I347J1*
G01*
X52249Y6492D01*
G75*
D01*
G03X51901Y6144I0J-348*
G01*
X52886Y6040D02*
G75*
D01*
G03X52886Y6040I467J0*
G01*
X46320Y9200D02*
G75*
D01*
G03X46320Y9200I280J0*
G01*
X40520Y10700D02*
G75*
D01*
G03X40520Y10700I280J0*
G01*
X42400Y7220D02*
G75*
D01*
G03X42400Y7220I280J0*
G01*
X43120Y9700D02*
G75*
D01*
G03X43120Y9700I280J0*
G01*
X36130Y10080D02*
G75*
D01*
G03X36130Y10080I280J0*
G01*
X39920Y10600D02*
G75*
D01*
G03X39920Y10600I280J0*
G01*
X28220Y14400D02*
G75*
D01*
G03X28220Y14400I280J0*
G01*
X31920Y14300D02*
G75*
D01*
G03X31920Y14300I280J0*
G01*
X29220Y14700D02*
G75*
D01*
G03X29220Y14700I280J0*
G01*
X31020Y14600D02*
G75*
D01*
G03X31020Y14600I280J0*
G01*
X32420Y14700D02*
G75*
D01*
G03X32420Y14700I280J0*
G01*
X27220Y15300D02*
G75*
D01*
G03X27220Y15300I280J0*
G01*
X31320Y15400D02*
G75*
D01*
G03X31320Y15400I280J0*
G01*
X33120Y15300D02*
G75*
D01*
G03X33120Y15300I280J0*
G01*
X27074Y16338D02*
X27074Y16130D01*
G75*
D01*
G03X27421Y15783I347J0*
G01*
X27629Y15783D01*
G75*
D01*
G03X27977Y16130I1J347*
G01*
X27977Y16338D01*
G74*
D01*
G03X27629Y16686I348J0*
G01*
X27421Y16686D01*
G75*
D01*
G03X27074Y16338I1J-348*
G01*
X28059Y16234D02*
G75*
D01*
G03X28059Y16234I466J0*
G01*
X29059Y16234D02*
G75*
D01*
G03X29059Y16234I466J0*
G01*
X30059Y16234D02*
G75*
D01*
G03X30059Y16234I466J0*
G01*
X31059Y16234D02*
G75*
D01*
G03X31059Y16234I466J0*
G01*
X32059Y16234D02*
G75*
D01*
G03X32059Y16234I466J0*
G01*
X33059Y16234D02*
G75*
D01*
G03X33059Y16234I466J0*
G01*
X27059Y17234D02*
G75*
D01*
G03X27059Y17234I466J0*
G01*
X28059Y17234D02*
G75*
D01*
G03X28059Y17234I466J0*
G01*
X29059Y17234D02*
G75*
D01*
G03X29059Y17234I466J0*
G01*
X30059Y17234D02*
G75*
D01*
G03X30059Y17234I466J0*
G01*
X31059Y17234D02*
G75*
D01*
G03X31059Y17234I466J0*
G01*
X32059Y17234D02*
G75*
D01*
G03X32059Y17234I466J0*
G01*
X33059Y17234D02*
G75*
D01*
G03X33059Y17234I466J0*
G01*
X30501Y19838D02*
G75*
D01*
G03X30501Y19838I467J0*
G01*
X33420Y19733D02*
X33420Y19942D01*
G74*
D01*
G03X33072Y20289I348J1*
G01*
X32864Y20289D01*
G75*
D01*
G03X32516Y19942I-1J-347*
G01*
X32516Y19733D01*
G75*
D01*
G03X32864Y19386I348J1*
G01*
X33072Y19386D01*
G75*
D01*
G03X33420Y19733I1J347*
G01*
X27520Y21900D02*
G75*
D01*
G03X27520Y21900I280J0*
G01*
X32567Y27790D02*
X32567Y27998D01*
G74*
D01*
G03X32220Y28345I347J0*
G01*
X32012Y28345D01*
G75*
D01*
G03X31664Y27998I-1J-347*
G01*
X31664Y27790D01*
G75*
D01*
G03X32012Y27442I348J0*
G01*
X32220Y27442D01*
G75*
D01*
G03X32567Y27790I-1J348*
G01*
X27027Y24435D02*
G75*
D01*
G03X27027Y24435I715J0*
G01*
X31920Y25800D02*
G75*
D01*
G03X31920Y25800I280J0*
G01*
X26947Y27891D02*
G75*
D01*
G03X26947Y27891I715J0*
G01*
X29649Y27894D02*
G75*
D01*
G03X29649Y27894I467J0*
G01*
X53410Y30420D02*
G75*
D01*
G03X53410Y30420I280J0*
G01*
X45420Y23500D02*
G75*
D01*
G03X45420Y23500I280J0*
G01*
X46720Y24300D02*
G75*
D01*
G03X46720Y24300I280J0*
G01*
X46220Y25400D02*
G75*
D01*
G03X46220Y25400I280J0*
G01*
X49980Y25230D02*
G75*
D01*
G03X49980Y25230I280J0*
G01*
X51480Y25260D02*
G75*
D01*
G03X51480Y25260I280J0*
G01*
X52950Y24820D02*
G75*
D01*
G03X52950Y24820I280J0*
G01*
X46620Y26250D02*
G75*
D01*
G03X46620Y26250I280J0*
G01*
X50500Y25920D02*
G75*
D01*
G03X50500Y25920I280J0*
G01*
X52090Y25910D02*
G75*
D01*
G03X52090Y25910I280J0*
G01*
X53270Y25880D02*
G75*
D01*
G03X53270Y25880I280J0*
G01*
X46790Y26800D02*
G75*
D01*
G03X46790Y26800I280J0*
G01*
X49960Y26740D02*
G75*
D01*
G03X49960Y26740I280J0*
G01*
X50980Y26660D02*
G75*
D01*
G03X50980Y26660I280J0*
G01*
X51780Y26870D02*
G75*
D01*
G03X51780Y26870I280J0*
G01*
X52390Y26870D02*
G75*
D01*
G03X52390Y26870I280J0*
G01*
X52990Y26880D02*
G75*
D01*
G03X52990Y26880I280J0*
G01*
X49401Y27364D02*
G75*
D01*
G03X49035Y27779I-151J236*
G01*
G75*
D01*
G03X48660Y27370I-209J-185*
G01*
G75*
D01*
G03X49025Y26949I161J-229*
G01*
G75*
D01*
G03X49401Y27364I188J207*
G01*
X49901Y28719D02*
X49930Y28719D01*
G75*
D01*
G03X49986Y28730I-1J151*
G01*
G75*
D01*
G03X50081Y28875I-55J140*
G01*
X50076Y29021D01*
X51061Y29029D01*
G75*
D01*
G03X51211Y29180I-1J151*
G01*
X51211Y30060D01*
G74*
D01*
G03X51060Y30211I151J0*
G01*
X50485Y30211D01*
G75*
D01*
G03X50195Y30211I-145J238*
G01*
X49820Y30211D01*
G75*
D01*
G03X49669Y30060I0J-151*
G01*
X49669Y29877D01*
G75*
D01*
G03X49407Y29431I-41J-276*
G01*
X48697Y29431D01*
G75*
D01*
G03X48451Y29860I-235J150*
G01*
X48451Y30080D01*
G74*
D01*
G03X48300Y30231I151J0*
G01*
X47320Y30231D01*
G75*
D01*
G03X47169Y30080I0J-151*
G01*
X47169Y29420D01*
G75*
D01*
G03X47320Y29269I151J0*
G01*
X47917Y29269D01*
X47909Y28873D01*
G75*
D01*
G03X47998Y28732I151J-3*
G01*
G75*
D01*
G03X48060Y28719I61J138*
G01*
X48473Y28719D01*
G75*
D01*
G03X48470Y28666I276J-42*
G01*
G75*
D01*
G03X48600Y28444I-149J-236*
G01*
G75*
D01*
G03X48940Y28475I150J235*
G01*
G75*
D01*
G03X49465Y28435I270J75*
G01*
G75*
D01*
G03X49901Y28719I274J55*
G01*
X49032Y30468D02*
G75*
D01*
G03X49018Y30292I-272J-67*
G01*
G75*
D01*
G03X49032Y30468I272J67*
G01*
X51058Y28588D02*
G75*
D01*
G03X51052Y28572I-265J90*
G01*
G75*
D01*
G03X51058Y28588I265J-90*
G01*
X53143Y28452D02*
G75*
D01*
G03X52799Y28372I-123J-252*
G01*
G75*
D01*
G03X52393Y28427I-229J-162*
G01*
G75*
D01*
G03X52297Y28273I-273J63*
G01*
G75*
D01*
G03X52791Y28038I273J-63*
G01*
G75*
D01*
G03X53297Y28238I229J162*
G01*
G75*
D01*
G03X53143Y28452I124J251*
G01*
X53630Y29190D02*
G75*
D01*
G03X53630Y29190I280J0*
G01*
X51380Y29440D02*
G75*
D01*
G03X51380Y29440I280J0*
G01*
X52530Y29680D02*
G75*
D01*
G03X52530Y29680I280J0*
G01*
X51540Y30450D02*
G75*
D01*
G03X51540Y30450I280J0*
G01*
X49907Y15064D02*
X49907Y14856D01*
G75*
D01*
G03X50255Y14508I348J0*
G01*
X50463Y14508D01*
G75*
D01*
G03X50811Y14856I0J348*
G01*
X50811Y15064D01*
G74*
D01*
G03X50463Y15412I348J0*
G01*
X50255Y15412D01*
G75*
D01*
G03X49907Y15064I0J-348*
G01*
X50892Y14960D02*
G75*
D01*
G03X50892Y14960I467J0*
G01*
X51892Y14960D02*
G75*
D01*
G03X51892Y14960I467J0*
G01*
X46120Y17500D02*
G75*
D01*
G03X46120Y17500I280J0*
G01*
X47220Y17600D02*
G75*
D01*
G03X47220Y17600I280J0*
G01*
X47920Y17400D02*
G75*
D01*
G03X47920Y17400I280J0*
G01*
X49570Y19895D02*
G75*
D01*
G03X49570Y19895I715J0*
G01*
X52709Y19895D02*
G75*
D01*
G03X52709Y19895I715J0*
G01*
X40771Y27825D02*
G75*
D01*
G03X40771Y27825I715J0*
G01*
X40768Y24818D02*
G75*
D01*
G03X40768Y24818I715J0*
G01*
X44120Y20400D02*
G75*
D01*
G03X44120Y20400I280J0*
G01*
X59730Y26316D02*
X59730Y4451D01*
X26211Y4451D01*
X26211Y32899D01*
X59730Y32899D01*
X59730Y28573D01*
G75*
D01*
G03X59629Y28611I-100J-112*
G01*
X57580Y28601D01*
G75*
D01*
G03X57430Y28441I1J-151*
G01*
X57445Y28169D01*
G75*
D01*
G03X57474Y27711I-144J-239*
G01*
G74*
D01*
G03X57585Y27603I146J39*
G01*
G75*
D01*
G03X57620Y27599I35J147*
G01*
X59650Y27599D01*
G75*
D01*
G03X59697Y27607I-2J151*
G01*
G74*
D01*
G03X59730Y27622I45J143*
G01*
X59730Y27344D01*
G74*
D01*
G03X59660Y27361I70J134*
G01*
X57610Y27361D01*
G75*
D01*
G03X57469Y27263I0J-151*
G01*
G75*
D01*
G03X57021Y27061I-170J-221*
G01*
G75*
D01*
G03X57199Y26779I-100J-260*
G01*
G75*
D01*
G03X57459Y26810I101J260*
G01*
X57459Y26440D01*
G75*
D01*
G03X57610Y26289I151J0*
G01*
X57611Y26289D01*
X59661Y26299D01*
G74*
D01*
G03X59730Y26316I1J151*
G01*
X26060Y4300D02*
X59880Y4300D01*
X59880Y33050D01*
X26060Y33050D01*
X26060Y4300D01*
G54D12*
X25960Y4200D02*
X25960Y7095D01*
X25960Y4200D02*
X29362Y4200D01*
X59980Y4200D02*
X56578Y4200D01*
X59980Y4200D02*
X59980Y7095D01*
X59980Y33150D02*
X59980Y30255D01*
X59980Y33150D02*
X56578Y33150D01*
X25960Y33150D02*
X29362Y33150D01*
X25960Y33150D02*
X25960Y30255D01*
X23991Y4200D02*
X20054Y4200D01*
X22023Y2231D02*
X22023Y6169D01*
X20547Y4200D02*
G75*
D01*
G02X20547Y4200I1476J0*
G01*
X61949Y4200D02*
X65886Y4200D01*
X63917Y2231D02*
X63917Y6169D01*
X62441Y4200D02*
G75*
D01*
G02X62441Y4200I1476J0*
G01*
X63425Y4200D02*
G75*
D01*
G02X63425Y4200I492J0*
G01*
X23991Y33150D02*
X20054Y33150D01*
X22023Y31181D02*
X22023Y35119D01*
X20547Y33150D02*
G75*
D01*
G02X20547Y33150I1476J0*
G01*
X21039Y33150D02*
G75*
D01*
G02X21039Y33150I984J0*
G01*
X21531Y33150D02*
G75*
D01*
G02X21531Y33150I492J0*
G01*
X25960Y4200D02*
X25960Y7095D01*
X25960Y4200D02*
X29362Y4200D01*
X59980Y4200D02*
X56578Y4200D01*
X59980Y4200D02*
X59980Y7095D01*
X59980Y33150D02*
X59980Y30255D01*
X59980Y33150D02*
X56578Y33150D01*
X25960Y33150D02*
X29362Y33150D01*
X25960Y33150D02*
X25960Y30255D01*
X23991Y4200D02*
X20054Y4200D01*
X22023Y2231D02*
X22023Y6169D01*
X20547Y4200D02*
G75*
D01*
G02X20547Y4200I1476J0*
G01*
X61949Y4200D02*
X65886Y4200D01*
X63917Y2231D02*
X63917Y6169D01*
X62441Y4200D02*
G75*
D01*
G02X62441Y4200I1476J0*
G01*
X63425Y4200D02*
G75*
D01*
G02X63425Y4200I492J0*
G01*
X23991Y33150D02*
X20054Y33150D01*
X22023Y31181D02*
X22023Y35119D01*
X20547Y33150D02*
G75*
D01*
G02X20547Y33150I1476J0*
G01*
X21039Y33150D02*
G75*
D01*
G02X21039Y33150I984J0*
G01*
X21531Y33150D02*
G75*
D01*
G02X21531Y33150I492J0*
G01*
G54D13*
X27742Y24435D03*
X27905Y7609D03*
X31343Y7709D03*
X35160Y7579D03*
X53424Y19895D03*
X56563Y19895D03*
X50285Y19895D03*
X50273Y22704D03*
X56581Y22704D03*
X41483Y24818D03*
X27662Y27891D03*
X41486Y27825D03*
X53427Y22704D03*
G54D14*
X27800Y21900D03*
X32200Y25800D03*
X31100Y26500D03*
X32000Y21500D03*
X35100Y15800D03*
X31600Y15400D03*
X32700Y14700D03*
X31300Y14600D03*
X29500Y14700D03*
X28500Y14400D03*
X34700Y13200D03*
X32200Y14300D03*
X27900Y9300D03*
X44400Y20400D03*
X43600Y20400D03*
X46500Y25400D03*
X46500Y13800D03*
X45100Y23300D03*
X45700Y23500D03*
X47000Y24300D03*
X46400Y17500D03*
X47500Y17600D03*
X31300Y9400D03*
X35200Y9400D03*
X37400Y9400D03*
X46600Y9200D03*
X48200Y17400D03*
X27500Y15300D03*
X33400Y15300D03*
X53400Y16300D03*
X40200Y10600D03*
X43400Y9700D03*
X40800Y10700D03*
X55300Y16310D03*
X42680Y7220D03*
X47070Y26800D03*
X50240Y26740D03*
X51260Y26660D03*
X56130Y26810D03*
X51320Y28490D03*
X52120Y28490D03*
X53420Y28490D03*
X50790Y28670D03*
X54680Y29300D03*
X54690Y25580D03*
X48760Y30400D03*
X48460Y29580D03*
X49290Y30360D03*
X49210Y28550D03*
X49740Y28490D03*
X49630Y29600D03*
X48320Y28430D03*
X48750Y28680D03*
X58190Y25940D03*
X59100Y25930D03*
X58110Y28950D03*
X59120Y28960D03*
X53020Y28200D03*
X52570Y28210D03*
X52670Y26870D03*
X53270Y26880D03*
X52060Y26870D03*
X57300Y27040D03*
X57300Y27930D03*
X56520Y27950D03*
X55670Y27940D03*
X55650Y27060D03*
X55160Y27950D03*
X55160Y27050D03*
X56690Y29150D03*
X55700Y29160D03*
X57280Y30400D03*
X55430Y30440D03*
X53690Y30420D03*
X50340Y30450D03*
X51660Y29440D03*
X52810Y29680D03*
X50780Y25920D03*
X52370Y25910D03*
X53550Y25880D03*
X55600Y25940D03*
X56860Y25920D03*
X56290Y24860D03*
X54400Y24840D03*
X50260Y25230D03*
X46940Y27180D03*
X51820Y30450D03*
X35270Y18440D03*
X56920Y26800D03*
X53910Y29190D03*
X51760Y25260D03*
X53230Y24820D03*
X46900Y26250D03*
X49250Y27600D03*
X49220Y27150D03*
X48820Y27140D03*
X48820Y27600D03*
X43790Y9060D03*
X50000Y28240D03*
X36410Y10080D03*
X35170Y20560D03*
X35180Y22590D03*
G54D15*
X57359Y14960D03*
X52359Y14960D03*
X51359Y14960D03*
X53359Y14960D03*
X55359Y14960D03*
X54359Y14960D03*
X56359Y14960D03*
X31525Y17234D03*
X33525Y17234D03*
X33525Y16234D03*
X32525Y17234D03*
X28525Y17234D03*
X28525Y16234D03*
X27525Y17234D03*
X31525Y16234D03*
X30525Y17234D03*
X30525Y16234D03*
X29525Y17234D03*
X29525Y16234D03*
X32525Y16234D03*
X31968Y19838D03*
X30968Y19838D03*
X31116Y27894D03*
X30116Y27894D03*
X54353Y6040D03*
X53353Y6040D03*
X55353Y6040D03*
G54D16*
X50359Y14960D03*
X27525Y16234D03*
X32968Y19838D03*
X32116Y27894D03*
X52353Y6040D03*
G54D17*
X50255Y14856D02*
X50463Y14856D01*
X50463Y15064D01*
X50255Y15064D01*
X50255Y14856D01*D02*
X27421Y16130D02*
X27629Y16130D01*
X27629Y16338D01*
X27421Y16338D01*
X27421Y16130D01*D02*
X32864Y19734D02*
X33072Y19734D01*
X33072Y19942D01*
X32864Y19942D01*
X32864Y19734D01*D02*
X32012Y27790D02*
X32220Y27790D01*
X32220Y27998D01*
X32012Y27998D01*
X32012Y27790D01*D02*
X52249Y5936D02*
X52457Y5936D01*
X52457Y6144D01*
X52249Y6144D01*
X52249Y5936D01*D02*

M02*
