G04 Generated by Ultiboard 14.0 *
%FSLAX24Y24*%
%MOIN*%

%ADD10C,0.0001*%
%ADD11C,0.0001*%
%ADD12C,0.0050*%
%ADD13C,0.0100*%


G04 ColorRGB 00FF00 for the following layer *
%LN3D-Info Bottom*%
%LPD*%
G54D10*
G54D11*
X50825Y27851D02*
X50726Y27851D01*
X50726Y27653D01*
X50825Y27653D01*
X50825Y27851D01*
X50532Y27851D02*
X50433Y27851D01*
X50433Y27653D01*
X50532Y27653D01*
X50532Y27851D01*
X51128Y27551D02*
X51029Y27551D01*
X51029Y27353D01*
X51128Y27353D01*
X51128Y27551D01*
X50835Y27551D02*
X50736Y27551D01*
X50736Y27353D01*
X50835Y27353D01*
X50835Y27551D01*
X50728Y27049D02*
X50827Y27049D01*
X50827Y27247D01*
X50728Y27247D01*
X50728Y27049D01*
X51021Y27049D02*
X51120Y27049D01*
X51120Y27247D01*
X51021Y27247D01*
X51021Y27049D01*
X51221Y27495D02*
X51418Y27495D01*
X51418Y27396D01*
X51221Y27396D01*
X51221Y27495D01*
X51221Y27202D02*
X51418Y27202D01*
X51418Y27103D01*
X51221Y27103D01*
X51221Y27202D01*
X50421Y27505D02*
X50618Y27505D01*
X50618Y27406D01*
X50421Y27406D01*
X50421Y27505D01*
X50421Y27212D02*
X50618Y27212D01*
X50618Y27113D01*
X50421Y27113D01*
X50421Y27212D01*
X50055Y28579D02*
X50154Y28579D01*
X50154Y28777D01*
X50055Y28777D01*
X50055Y28579D01*
X50348Y28579D02*
X50447Y28579D01*
X50447Y28777D01*
X50348Y28777D01*
X50348Y28579D01*
X50511Y27995D02*
X50313Y27995D01*
X50313Y28094D01*
X50511Y28094D01*
X50511Y27995D01*
X50511Y28288D02*
X50313Y28288D01*
X50313Y28387D01*
X50511Y28387D01*
X50511Y28288D01*
X50811Y27995D02*
X50613Y27995D01*
X50613Y28094D01*
X50811Y28094D01*
X50811Y27995D01*
X50811Y28288D02*
X50613Y28288D01*
X50613Y28387D01*
X50811Y28387D01*
X50811Y28288D01*
X50929Y28095D02*
X51127Y28095D01*
X51127Y27996D01*
X50929Y27996D01*
X50929Y28095D01*
X50929Y27802D02*
X51127Y27802D01*
X51127Y27703D01*
X50929Y27703D01*
X50929Y27802D01*
X51431Y27705D02*
X51233Y27705D01*
X51233Y27804D01*
X51431Y27804D01*
X51431Y27705D01*
X51431Y27998D02*
X51233Y27998D01*
X51233Y28097D01*
X51431Y28097D01*
X51431Y27998D01*
X51535Y27649D02*
X51634Y27649D01*
X51634Y27847D01*
X51535Y27847D01*
X51535Y27649D01*
X51828Y27649D02*
X51927Y27649D01*
X51927Y27847D01*
X51828Y27847D01*
X51828Y27649D01*
X51535Y27949D02*
X51634Y27949D01*
X51634Y28147D01*
X51535Y28147D01*
X51535Y27949D01*
X51828Y27949D02*
X51927Y27949D01*
X51927Y28147D01*
X51828Y28147D01*
X51828Y27949D01*
X52029Y28095D02*
X52227Y28095D01*
X52227Y27996D01*
X52029Y27996D01*
X52029Y28095D01*
X52029Y27802D02*
X52227Y27802D01*
X52227Y27703D01*
X52029Y27703D01*
X52029Y27802D01*
X52725Y27851D02*
X52626Y27851D01*
X52626Y27653D01*
X52725Y27653D01*
X52725Y27851D01*
X52432Y27851D02*
X52333Y27851D01*
X52333Y27653D01*
X52432Y27653D01*
X52432Y27851D01*
X52835Y27649D02*
X52934Y27649D01*
X52934Y27847D01*
X52835Y27847D01*
X52835Y27649D01*
X53128Y27649D02*
X53227Y27649D01*
X53227Y27847D01*
X53128Y27847D01*
X53128Y27649D01*
X53531Y27705D02*
X53333Y27705D01*
X53333Y27804D01*
X53531Y27804D01*
X53531Y27705D01*
X53531Y27998D02*
X53333Y27998D01*
X53333Y28097D01*
X53531Y28097D01*
X53531Y27998D01*
X56025Y27537D02*
X56222Y27537D01*
X56222Y27438D01*
X56025Y27438D01*
X56025Y27537D01*
X56025Y27244D02*
X56222Y27244D01*
X56222Y27145D01*
X56025Y27145D01*
X56025Y27244D01*
X54783Y28425D02*
X54586Y28425D01*
X54586Y28524D01*
X54783Y28524D01*
X54783Y28425D01*
X54783Y28719D02*
X54586Y28719D01*
X54586Y28818D01*
X54783Y28818D01*
X54783Y28719D01*
X54383Y28425D02*
X54186Y28425D01*
X54186Y28524D01*
X54383Y28524D01*
X54383Y28425D01*
X54383Y28719D02*
X54186Y28719D01*
X54186Y28818D01*
X54383Y28818D01*
X54383Y28719D01*
X56820Y27544D02*
X57018Y27544D01*
X57018Y27445D01*
X56820Y27445D01*
X56820Y27544D01*
X56820Y27251D02*
X57018Y27251D01*
X57018Y27152D01*
X56820Y27152D01*
X56820Y27251D01*
X54586Y26515D02*
X54784Y26515D01*
X54784Y26416D01*
X54586Y26416D01*
X54586Y26515D01*
X54586Y26222D02*
X54784Y26222D01*
X54784Y26123D01*
X54586Y26123D01*
X54586Y26222D01*
X54189Y26515D02*
X54387Y26515D01*
X54387Y26416D01*
X54189Y26416D01*
X54189Y26515D01*
X54189Y26222D02*
X54387Y26222D01*
X54387Y26123D01*
X54189Y26123D01*
X54189Y26222D01*
X55361Y27595D02*
X55262Y27595D01*
X55262Y27398D01*
X55361Y27398D01*
X55361Y27595D01*
X55068Y27595D02*
X54969Y27595D01*
X54969Y27398D01*
X55068Y27398D01*
X55068Y27595D01*
X56326Y27385D02*
X56425Y27385D01*
X56425Y27582D01*
X56326Y27582D01*
X56326Y27385D01*
X56619Y27385D02*
X56718Y27385D01*
X56718Y27582D01*
X56619Y27582D01*
X56619Y27385D01*
X47479Y28185D02*
X47677Y28185D01*
X47677Y28086D01*
X47479Y28086D01*
X47479Y28185D01*
X47479Y27892D02*
X47677Y27892D01*
X47677Y27793D01*
X47479Y27793D01*
X47479Y27892D01*
X47459Y27225D02*
X47657Y27225D01*
X47657Y27126D01*
X47459Y27126D01*
X47459Y27225D01*
X47459Y26932D02*
X47657Y26932D01*
X47657Y26833D01*
X47459Y26833D01*
X47459Y26932D01*
G54D12*
X25960Y4200D02*
X25960Y7095D01*
X25960Y4200D02*
X29362Y4200D01*
X59980Y4200D02*
X56578Y4200D01*
X59980Y4200D02*
X59980Y7095D01*
X59980Y33150D02*
X59980Y30255D01*
X59980Y33150D02*
X56578Y33150D01*
X25960Y33150D02*
X29362Y33150D01*
X25960Y33150D02*
X25960Y30255D01*
X23991Y4200D02*
X20054Y4200D01*
X22023Y2231D02*
X22023Y6169D01*
X20547Y4200D02*
G75*
D01*
G02X20547Y4200I1476J0*
G01*
X61949Y4200D02*
X65886Y4200D01*
X63917Y2231D02*
X63917Y6169D01*
X62441Y4200D02*
G75*
D01*
G02X62441Y4200I1476J0*
G01*
X63425Y4200D02*
G75*
D01*
G02X63425Y4200I492J0*
G01*
X23991Y33150D02*
X20054Y33150D01*
X22023Y31181D02*
X22023Y35119D01*
X20547Y33150D02*
G75*
D01*
G02X20547Y33150I1476J0*
G01*
X21039Y33150D02*
G75*
D01*
G02X21039Y33150I984J0*
G01*
X21531Y33150D02*
G75*
D01*
G02X21531Y33150I492J0*
G01*
X25960Y4200D02*
X25960Y7095D01*
X25960Y4200D02*
X29362Y4200D01*
X59980Y4200D02*
X56578Y4200D01*
X59980Y4200D02*
X59980Y7095D01*
X59980Y33150D02*
X59980Y30255D01*
X59980Y33150D02*
X56578Y33150D01*
X25960Y33150D02*
X29362Y33150D01*
X25960Y33150D02*
X25960Y30255D01*
X23991Y4200D02*
X20054Y4200D01*
X22023Y2231D02*
X22023Y6169D01*
X20547Y4200D02*
G75*
D01*
G02X20547Y4200I1476J0*
G01*
X61949Y4200D02*
X65886Y4200D01*
X63917Y2231D02*
X63917Y6169D01*
X62441Y4200D02*
G75*
D01*
G02X62441Y4200I1476J0*
G01*
X63425Y4200D02*
G75*
D01*
G02X63425Y4200I492J0*
G01*
X23991Y33150D02*
X20054Y33150D01*
X22023Y31181D02*
X22023Y35119D01*
X20547Y33150D02*
G75*
D01*
G02X20547Y33150I1476J0*
G01*
X21039Y33150D02*
G75*
D01*
G02X21039Y33150I984J0*
G01*
X21531Y33150D02*
G75*
D01*
G02X21531Y33150I492J0*
G01*
G54D13*
X26060Y4300D02*
X59880Y4300D01*
X59880Y33050D01*
X26060Y33050D01*
X26060Y4300D01*

M02*
