G04 Generated by Ultiboard 14.0 *
%FSLAX24Y24*%
%MOIN*%

%ADD10C,0.0001*%
%ADD11C,0.0001*%
%ADD12C,0.0100*%
%ADD13C,0.0200*%
%ADD14C,0.0050*%
%ADD15C,0.0160*%
%ADD16C,0.0140*%
%ADD17C,0.1130*%
%ADD18C,0.0260*%
%ADD19C,0.0633*%
%ADD20R,0.0208X0.0208*%
%ADD21C,0.0392*%
%ADD22R,0.0417X0.0108*%
%ADD23C,0.0167*%
%ADD24R,0.0108X0.0417*%
%ADD25R,0.0118X0.0591*%
%ADD26R,0.0591X0.0118*%
%ADD27R,0.0315X0.0157*%
%ADD28C,0.0630*%
%ADD29R,0.0098X0.0197*%
%ADD30R,0.2050X0.0951*%
%ADD31R,0.2050X0.0971*%
%ADD32R,0.2050X0.0500*%
%ADD33R,0.0315X0.0118*%
%ADD34R,0.0118X0.0315*%
%ADD35R,0.0197X0.0098*%
%ADD36R,0.0236X0.0118*%
%ADD37C,0.0079*%
%ADD38R,0.0335X0.0295*%


G04 ColorRGB 00FF00 for the following layer *
%LNCopper Top*%
%LPD*%
G54D10*
G36*
X54172Y26666D02*
G75*
D01*
G02X54290Y26699I119J-197*
G01*
X54290Y26699D01*
X54457Y26699D01*
X54457Y27022D01*
G75*
D01*
G02X54379Y27175I112J153*
G01*
X54379Y27175D01*
X54379Y27293D01*
G74*
D01*
G02X54392Y27362I191J0*
G01*
G75*
D01*
G02X54379Y27431I177J69*
G01*
X54379Y27431D01*
X54379Y27549D01*
G74*
D01*
G02X54392Y27618I191J0*
G01*
G75*
D01*
G02X54379Y27687I177J69*
G01*
X54379Y27687D01*
X54379Y27805D01*
G74*
D01*
G02X54451Y27954I191J0*
G01*
X54451Y27954D01*
X54451Y28241D01*
X54282Y28241D01*
G75*
D01*
G02X54164Y28274I1J232*
G01*
G75*
D01*
G02X54033Y28423I19J149*
G01*
X54033Y28423D01*
X54033Y28522D01*
G74*
D01*
G02X54070Y28620I151J1*
G01*
G75*
D01*
G02X54033Y28719I113J99*
G01*
X54033Y28719D01*
X54033Y28783D01*
X53906Y28910D01*
G75*
D01*
G02X54190Y29194I4J280*
G01*
X54190Y29194D01*
X54256Y29128D01*
X54256Y29128D01*
X54422Y28962D01*
G74*
D01*
G02X54531Y28817I41J144*
G01*
X54531Y28817D01*
X54531Y28719D01*
G75*
D01*
G02X54531Y28704I-150J-7*
G01*
X54531Y28704D01*
X54682Y28704D01*
G74*
D01*
G02X54800Y28671I1J231*
G01*
G74*
D01*
G02X54931Y28522I19J149*
G01*
X54931Y28522D01*
X54931Y28423D01*
G75*
D01*
G02X54913Y28352I-150J0*
G01*
X54913Y28352D01*
X54913Y27962D01*
G74*
D01*
G02X54996Y27805I106J156*
G01*
X54996Y27805D01*
X54996Y27744D01*
X55067Y27744D01*
G74*
D01*
G02X55166Y27707I0J151*
G01*
G75*
D01*
G02X55264Y27744I99J-113*
G01*
X55264Y27744D01*
X55363Y27744D01*
G74*
D01*
G02X55434Y27726I0J151*
G01*
X55434Y27726D01*
X56272Y27726D01*
G75*
D01*
G02X56324Y27735I51J-142*
G01*
X56324Y27735D01*
X56422Y27735D01*
G74*
D01*
G02X56521Y27698I0J151*
G01*
G75*
D01*
G02X56619Y27735I99J-113*
G01*
X56619Y27735D01*
X56718Y27735D01*
G74*
D01*
G02X56789Y27717I0J151*
G01*
X56789Y27717D01*
X56850Y27717D01*
X56858Y27719D01*
G75*
D01*
G02X56921Y27728I64J-221*
G01*
X56921Y27728D01*
X57464Y27728D01*
X57464Y27730D01*
G74*
D01*
G02X57468Y27764I151J1*
G01*
X57468Y27764D01*
X57430Y28441D01*
G75*
D01*
G02X57580Y28601I150J10*
G01*
X57580Y28601D01*
X59629Y28611D01*
G75*
D01*
G02X59730Y28573I1J-151*
G01*
X59730Y28573D01*
X59730Y32899D01*
X26211Y32899D01*
X26211Y4451D01*
X59730Y4451D01*
X59730Y26316D01*
G74*
D01*
G02X59661Y26299I70J134*
G01*
X59661Y26299D01*
X57611Y26289D01*
X57610Y26289D01*
G75*
D01*
G02X57459Y26440I0J151*
G01*
X57459Y26440D01*
X57459Y27210D01*
G74*
D01*
G02X57464Y27248I151J1*
G01*
X57464Y27248D01*
X57464Y27266D01*
X56981Y27266D01*
G74*
D01*
G02X56910Y27255I70J220*
G01*
X56910Y27255D01*
X56789Y27255D01*
G74*
D01*
G02X56718Y27237I71J131*
G01*
X56718Y27237D01*
X56619Y27237D01*
G75*
D01*
G02X56521Y27273I-1J150*
G01*
G74*
D01*
G02X56422Y27237I97J114*
G01*
X56422Y27237D01*
X56324Y27237D01*
G75*
D01*
G02X56238Y27263I-2J150*
G01*
X56238Y27263D01*
X55434Y27263D01*
G74*
D01*
G02X55363Y27245I71J132*
G01*
X55363Y27245D01*
X55264Y27245D01*
G75*
D01*
G02X55166Y27282I1J151*
G01*
G74*
D01*
G02X55067Y27245I99J113*
G01*
X55067Y27245D01*
X54996Y27245D01*
X54996Y27175D01*
G75*
D01*
G02X54919Y27022I-190J0*
G01*
X54919Y27022D01*
X54919Y26587D01*
G74*
D01*
G02X54936Y26517I134J70*
G01*
X54936Y26517D01*
X54936Y26419D01*
G75*
D01*
G02X54805Y26269I-151J0*
G01*
G74*
D01*
G02X54687Y26237I117J199*
G01*
X54687Y26237D01*
X54538Y26237D01*
G74*
D01*
G02X54539Y26221I149J17*
G01*
X54539Y26221D01*
X54539Y26123D01*
G75*
D01*
G02X54491Y26013I-151J0*
G01*
X54491Y26013D01*
X54491Y25880D01*
G75*
D01*
G02X54432Y25738I-201J0*
G01*
X54432Y25738D01*
X54257Y25563D01*
X53510Y24816D01*
G75*
D01*
G02X53226Y25100I-280J4*
G01*
X53226Y25100D01*
X54089Y25963D01*
X54089Y26013D01*
G75*
D01*
G02X54041Y26123I102J110*
G01*
X54041Y26123D01*
X54041Y26221D01*
G74*
D01*
G02X54078Y26320I151J0*
G01*
G75*
D01*
G02X54041Y26419I113J99*
G01*
X54041Y26419D01*
X54041Y26517D01*
G74*
D01*
G02X54172Y26666I151J1*
G01*
D02*
G37*
%LPC*%
G36*
X57208Y23047D02*
G75*
D01*
G02X57208Y23047I-627J-343*
G01*
D02*
G37*
G36*
X44900Y11599D02*
G75*
D01*
G02X44758Y11658I0J201*
G01*
X44758Y11658D01*
X44528Y11888D01*
G74*
D01*
G02X44477Y11973I141J142*
G01*
X44477Y11973D01*
X44477Y11043D01*
X44479Y11043D01*
G74*
D01*
G02X44714Y10808I0J235*
G01*
X44714Y10808D01*
X44714Y10392D01*
G75*
D01*
G02X44626Y10209I-235J0*
G01*
X44626Y10209D01*
X44626Y9191D01*
G74*
D01*
G02X44714Y9008I146J183*
G01*
X44714Y9008D01*
X44714Y8592D01*
G75*
D01*
G02X44479Y8357I-235J0*
G01*
X44479Y8357D01*
X44371Y8357D01*
G75*
D01*
G02X44136Y8592I0J235*
G01*
X44136Y8592D01*
X44136Y8599D01*
X44060Y8599D01*
G75*
D01*
G02X43991Y8611I-1J201*
G01*
G74*
D01*
G02X43918Y8658I70J189*
G01*
X43918Y8658D01*
X43796Y8780D01*
G75*
D01*
G02X44070Y9075I-6J280*
G01*
X44070Y9075D01*
X44136Y9008D01*
X44136Y9008D01*
G74*
D01*
G02X44224Y9191I235J0*
G01*
X44224Y9191D01*
X44224Y10209D01*
G75*
D01*
G02X44136Y10392I146J183*
G01*
X44136Y10392D01*
X44136Y10604D01*
X44134Y10607D01*
G75*
D01*
G02X44075Y10749I141J142*
G01*
X44075Y10749D01*
X44075Y11916D01*
X44020Y11916D01*
G75*
D01*
G02X43981Y11921I0J151*
G01*
G74*
D01*
G02X43942Y11916I39J146*
G01*
X43942Y11916D01*
X43824Y11916D01*
G75*
D01*
G02X43784Y11921I-1J151*
G01*
G74*
D01*
G02X43745Y11916I39J146*
G01*
X43745Y11916D01*
X43627Y11916D01*
G75*
D01*
G02X43489Y12006I0J151*
G01*
G74*
D01*
G02X43351Y11916I137J60*
G01*
X43351Y11916D01*
X43233Y11916D01*
G75*
D01*
G02X43194Y11921I0J151*
G01*
G74*
D01*
G02X43154Y11916I39J146*
G01*
X43154Y11916D01*
X43099Y11916D01*
X43099Y10873D01*
G75*
D01*
G02X43040Y10731I-201J0*
G01*
X43040Y10731D01*
X42914Y10604D01*
X42914Y10392D01*
G75*
D01*
G02X42679Y10157I-235J0*
G01*
X42679Y10157D01*
X42571Y10157D01*
G75*
D01*
G02X42336Y10392I0J235*
G01*
X42336Y10392D01*
X42336Y10808D01*
G75*
D01*
G02X42571Y11043I235J0*
G01*
X42571Y11043D01*
X42679Y11043D01*
G74*
D01*
G02X42697Y11042I4J235*
G01*
X42697Y11042D01*
X42697Y11916D01*
X42643Y11916D01*
G75*
D01*
G02X42603Y11921I-1J151*
G01*
G74*
D01*
G02X42564Y11916I39J146*
G01*
X42564Y11916D01*
X42446Y11916D01*
G75*
D01*
G02X42406Y11921I-1J151*
G01*
G74*
D01*
G02X42367Y11916I39J146*
G01*
X42367Y11916D01*
X42249Y11916D01*
G75*
D01*
G02X42209Y11921I-1J151*
G01*
G74*
D01*
G02X42170Y11916I39J146*
G01*
X42170Y11916D01*
X42115Y11916D01*
X42115Y11414D01*
G75*
D01*
G02X42056Y11272I-201J0*
G01*
X42056Y11272D01*
X41801Y11017D01*
X41801Y10084D01*
X41808Y10084D01*
G74*
D01*
G02X42043Y9849I0J235*
G01*
X42043Y9849D01*
X42043Y9741D01*
G75*
D01*
G02X42020Y9639I-235J-1*
G01*
X42020Y9639D01*
X43348Y8311D01*
X52283Y8311D01*
G74*
D01*
G02X52425Y8252I0J201*
G01*
X52425Y8252D01*
X54197Y6480D01*
G75*
D01*
G02X53913Y6196I155J-439*
G01*
X53913Y6196D01*
X52199Y7909D01*
X43265Y7909D01*
G75*
D01*
G02X43123Y7968I0J201*
G01*
X43123Y7968D01*
X42043Y9048D01*
X42043Y8991D01*
G75*
D01*
G02X41808Y8756I-235J0*
G01*
X41808Y8756D01*
X41801Y8756D01*
X41801Y8264D01*
X41808Y8264D01*
G74*
D01*
G02X42043Y8029I0J235*
G01*
X42043Y8029D01*
X42043Y7921D01*
G75*
D01*
G02X41808Y7686I-235J0*
G01*
X41808Y7686D01*
X41392Y7686D01*
G75*
D01*
G02X41157Y7921I0J235*
G01*
X41157Y7921D01*
X41157Y8029D01*
G75*
D01*
G02X41392Y8264I235J0*
G01*
X41392Y8264D01*
X41399Y8264D01*
X41399Y8756D01*
X41392Y8756D01*
G75*
D01*
G02X41157Y8991I0J235*
G01*
X41157Y8991D01*
X41157Y9099D01*
G75*
D01*
G02X41392Y9334I235J0*
G01*
X41392Y9334D01*
X41757Y9334D01*
X41584Y9506D01*
X41392Y9506D01*
G75*
D01*
G02X41157Y9741I0J235*
G01*
X41157Y9741D01*
X41157Y9849D01*
G75*
D01*
G02X41392Y10084I235J0*
G01*
X41392Y10084D01*
X41399Y10084D01*
X41399Y10415D01*
X39176Y8192D01*
X39176Y7991D01*
G74*
D01*
G02X39264Y7808I146J183*
G01*
X39264Y7808D01*
X39264Y7392D01*
G75*
D01*
G02X39176Y7209I-235J0*
G01*
X39176Y7209D01*
X39176Y6508D01*
X40483Y5201D01*
X52229Y5201D01*
X52913Y5884D01*
G75*
D01*
G02X53197Y5600I439J155*
G01*
X53197Y5600D01*
X52455Y4858D01*
G74*
D01*
G02X52313Y4799I142J141*
G01*
X52313Y4799D01*
X40400Y4799D01*
G75*
D01*
G02X40258Y4858I0J201*
G01*
X40258Y4858D01*
X38833Y6283D01*
G75*
D01*
G02X38774Y6425I141J142*
G01*
X38774Y6425D01*
X38774Y7209D01*
G75*
D01*
G02X38686Y7392I146J183*
G01*
X38686Y7392D01*
X38686Y7808D01*
G74*
D01*
G02X38774Y7991I235J0*
G01*
X38774Y7991D01*
X38774Y8275D01*
G75*
D01*
G02X38833Y8417I201J0*
G01*
X38833Y8417D01*
X40838Y10423D01*
G75*
D01*
G02X40522Y10663I-39J276*
G01*
X40522Y10663D01*
X40479Y10620D01*
G75*
D01*
G02X40180Y10321I-278J-21*
G01*
X40180Y10321D01*
X39264Y9404D01*
X39264Y9192D01*
G75*
D01*
G02X39029Y8957I-235J0*
G01*
X39029Y8957D01*
X38921Y8957D01*
G75*
D01*
G02X38686Y9192I0J235*
G01*
X38686Y9192D01*
X38686Y9608D01*
G75*
D01*
G02X38921Y9843I235J0*
G01*
X38921Y9843D01*
X39029Y9843D01*
G74*
D01*
G02X39117Y9826I0J235*
G01*
X39117Y9826D01*
X39922Y10631D01*
G74*
D01*
G02X40169Y10878I277J30*
G01*
X40169Y10878D01*
X40729Y11438D01*
X40729Y12016D01*
G75*
D01*
G02X40720Y12067I141J51*
G01*
X40720Y12067D01*
X40720Y12657D01*
G75*
D01*
G02X40871Y12808I151J0*
G01*
X40871Y12808D01*
X40989Y12808D01*
G74*
D01*
G02X41028Y12803I0J151*
G01*
G75*
D01*
G02X41068Y12808I39J-146*
G01*
X41068Y12808D01*
X41186Y12808D01*
G74*
D01*
G02X41225Y12803I0J151*
G01*
G75*
D01*
G02X41265Y12808I39J-146*
G01*
X41265Y12808D01*
X41383Y12808D01*
G74*
D01*
G02X41422Y12803I0J151*
G01*
G75*
D01*
G02X41461Y12808I39J-146*
G01*
X41461Y12808D01*
X41580Y12808D01*
G74*
D01*
G02X41619Y12803I0J151*
G01*
G75*
D01*
G02X41658Y12808I39J-146*
G01*
X41658Y12808D01*
X41776Y12808D01*
G74*
D01*
G02X41816Y12803I1J151*
G01*
G75*
D01*
G02X41855Y12808I39J-146*
G01*
X41855Y12808D01*
X41973Y12808D01*
G74*
D01*
G02X42013Y12803I1J151*
G01*
G75*
D01*
G02X42052Y12808I39J-146*
G01*
X42052Y12808D01*
X42170Y12808D01*
G74*
D01*
G02X42209Y12803I0J151*
G01*
G75*
D01*
G02X42249Y12808I39J-146*
G01*
X42249Y12808D01*
X42367Y12808D01*
G74*
D01*
G02X42406Y12803I0J151*
G01*
G75*
D01*
G02X42446Y12808I39J-146*
G01*
X42446Y12808D01*
X42564Y12808D01*
G74*
D01*
G02X42603Y12803I0J151*
G01*
G75*
D01*
G02X42643Y12808I39J-146*
G01*
X42643Y12808D01*
X42761Y12808D01*
G74*
D01*
G02X42800Y12803I0J151*
G01*
G75*
D01*
G02X42839Y12808I39J-146*
G01*
X42839Y12808D01*
X42957Y12808D01*
G74*
D01*
G02X42997Y12803I1J151*
G01*
G75*
D01*
G02X43036Y12808I39J-146*
G01*
X43036Y12808D01*
X43154Y12808D01*
G74*
D01*
G02X43194Y12803I1J151*
G01*
G75*
D01*
G02X43233Y12808I39J-146*
G01*
X43233Y12808D01*
X43351Y12808D01*
G74*
D01*
G02X43489Y12719I0J151*
G01*
G75*
D01*
G02X43627Y12808I138J-62*
G01*
X43627Y12808D01*
X43745Y12808D01*
G74*
D01*
G02X43784Y12803I0J151*
G01*
G75*
D01*
G02X43824Y12808I39J-146*
G01*
X43824Y12808D01*
X43942Y12808D01*
G74*
D01*
G02X43981Y12803I0J151*
G01*
G75*
D01*
G02X44020Y12808I39J-146*
G01*
X44020Y12808D01*
X44139Y12808D01*
G74*
D01*
G02X44178Y12803I0J151*
G01*
G75*
D01*
G02X44217Y12808I39J-146*
G01*
X44217Y12808D01*
X44335Y12808D01*
G74*
D01*
G02X44473Y12719I0J151*
G01*
G75*
D01*
G02X44611Y12808I138J-62*
G01*
X44611Y12808D01*
X44729Y12808D01*
G74*
D01*
G02X44880Y12657I0J151*
G01*
X44880Y12657D01*
X44880Y12104D01*
X44983Y12001D01*
X45575Y12001D01*
G74*
D01*
G02X45717Y11942I0J201*
G01*
X45717Y11942D01*
X46596Y11064D01*
X46808Y11064D01*
G74*
D01*
G02X47043Y10829I0J235*
G01*
X47043Y10829D01*
X47043Y10721D01*
G75*
D01*
G02X46808Y10486I-235J0*
G01*
X46808Y10486D01*
X46392Y10486D01*
G75*
D01*
G02X46157Y10721I0J235*
G01*
X46157Y10721D01*
X46157Y10829D01*
G74*
D01*
G02X46174Y10917I235J0*
G01*
X46174Y10917D01*
X45492Y11599D01*
X44900Y11599D01*
D02*
G37*
G36*
X54256Y15415D02*
G75*
D01*
G02X54256Y15415I103J-455*
G01*
D02*
G37*
G36*
X49646Y23047D02*
G75*
D01*
G02X49646Y23047I627J-343*
G01*
D02*
G37*
G36*
X43937Y18522D02*
X43937Y18522D01*
X44807Y19391D01*
X44899Y19483D01*
X44899Y23105D01*
G75*
D01*
G02X45096Y23580I201J195*
G01*
X45096Y23580D01*
X46715Y25199D01*
X46695Y25199D01*
G75*
D01*
G02X46669Y25623I-195J201*
G01*
X46669Y25623D01*
X47090Y26044D01*
X47090Y26044D01*
G75*
D01*
G02X47100Y26446I-190J206*
G01*
X47100Y26446D01*
X47162Y26446D01*
X47597Y26881D01*
G74*
D01*
G02X47527Y26927I73J187*
G01*
X47527Y26927D01*
X47505Y26949D01*
X47098Y26949D01*
G75*
D01*
G02X47015Y27450I-156J232*
G01*
X47015Y27450D01*
X46902Y27563D01*
X46552Y27563D01*
G75*
D01*
G02X46317Y27797I-1J234*
G01*
X46317Y27797D01*
X46317Y27906D01*
G75*
D01*
G02X46552Y28140I235J-1*
G01*
X46552Y28140D01*
X46968Y28140D01*
G74*
D01*
G02X47203Y27916I1J234*
G01*
X47203Y27916D01*
X47428Y27691D01*
X47909Y27691D01*
G74*
D01*
G02X47885Y27711I116J163*
G01*
X47885Y27711D01*
X47671Y27925D01*
G75*
D01*
G02X47462Y27939I-91J212*
G01*
G74*
D01*
G02X47334Y28057I20J150*
G01*
X47334Y28057D01*
X47059Y28331D01*
G74*
D01*
G02X46968Y28313I90J216*
G01*
X46968Y28313D01*
X46552Y28313D01*
G75*
D01*
G02X46317Y28547I-1J234*
G01*
X46317Y28547D01*
X46317Y28656D01*
G75*
D01*
G02X46552Y28890I235J-1*
G01*
X46552Y28890D01*
X46968Y28890D01*
G74*
D01*
G02X47122Y28833I1J234*
G01*
G74*
D01*
G02X47280Y28765I6J231*
G01*
X47280Y28765D01*
X47706Y28339D01*
X47742Y28339D01*
G74*
D01*
G02X47885Y28280I1J201*
G01*
X47885Y28280D01*
X48101Y28063D01*
X48330Y28063D01*
X48330Y28306D01*
G75*
D01*
G02X48480Y28457I150J1*
G01*
X48480Y28457D01*
X48581Y28457D01*
G75*
D01*
G02X48473Y28719I168J223*
G01*
X48473Y28719D01*
X48060Y28719D01*
G75*
D01*
G02X47998Y28732I-1J151*
G01*
G75*
D01*
G02X47909Y28873I62J138*
G01*
X47909Y28873D01*
X47917Y29269D01*
X47320Y29269D01*
G75*
D01*
G02X47169Y29420I0J151*
G01*
X47169Y29420D01*
X47169Y30080D01*
G75*
D01*
G02X47320Y30231I151J0*
G01*
X47320Y30231D01*
X48300Y30231D01*
G74*
D01*
G02X48451Y30080I0J151*
G01*
X48451Y30080D01*
X48451Y29860D01*
G75*
D01*
G02X48499Y29857I7J-280*
G01*
G75*
D01*
G02X48603Y29898I103J-109*
G01*
X48603Y29898D01*
X48937Y29898D01*
G74*
D01*
G02X48983Y29891I1J150*
G01*
X48983Y29891D01*
X48983Y30161D01*
G74*
D01*
G02X49026Y30266I151J1*
G01*
G75*
D01*
G02X49559Y30282I264J93*
G01*
G74*
D01*
G02X49620Y30161I89J121*
G01*
X49620Y30161D01*
X49620Y29866D01*
G75*
D01*
G02X49469Y29715I-151J0*
G01*
X49469Y29715D01*
X49134Y29715D01*
G75*
D01*
G02X49088Y29722I-1J151*
G01*
X49088Y29722D01*
X49088Y29452D01*
G75*
D01*
G02X49086Y29431I-151J4*
G01*
X49086Y29431D01*
X49669Y29431D01*
X49669Y30060D01*
G75*
D01*
G02X49820Y30211I151J0*
G01*
X49820Y30211D01*
X51060Y30211D01*
G74*
D01*
G02X51211Y30060I0J151*
G01*
X51211Y30060D01*
X51211Y29180D01*
G75*
D01*
G02X51061Y29029I-151J0*
G01*
X51061Y29029D01*
X50076Y29021D01*
X50079Y28929D01*
X50151Y28929D01*
G74*
D01*
G02X50302Y28778I0J151*
G01*
X50302Y28778D01*
X50302Y28700D01*
G74*
D01*
G02X50303Y28680I199J20*
G01*
X50303Y28680D01*
X50303Y28340D01*
G75*
D01*
G02X50280Y28246I-201J-1*
G01*
G75*
D01*
G02X50280Y28239I-280J-3*
G01*
G74*
D01*
G02X50292Y28241I31J148*
G01*
G75*
D01*
G02X50410Y28273I117J-199*
G01*
X50410Y28273D01*
X51024Y28273D01*
G74*
D01*
G02X51130Y28248I1J231*
G01*
G74*
D01*
G02X51279Y28097I2J151*
G01*
X51279Y28097D01*
X51279Y27999D01*
G75*
D01*
G02X51278Y27983I-151J1*
G01*
X51278Y27983D01*
X51351Y27983D01*
X51351Y28050D01*
G74*
D01*
G02X51384Y28168I231J1*
G01*
G75*
D01*
G02X51533Y28299I149J-19*
G01*
X51533Y28299D01*
X51631Y28299D01*
G74*
D01*
G02X51730Y28262I0J151*
G01*
G75*
D01*
G02X51829Y28299I99J-113*
G01*
X51829Y28299D01*
X51927Y28299D01*
G74*
D01*
G02X52076Y28168I1J151*
G01*
G74*
D01*
G02X52109Y28050I197J119*
G01*
X52109Y28050D01*
X52109Y27982D01*
G75*
D01*
G02X52130Y27983I21J-229*
G01*
X52130Y27983D01*
X52266Y27983D01*
G75*
D01*
G02X52333Y27999I67J-134*
G01*
X52333Y27999D01*
X52431Y27999D01*
G74*
D01*
G02X52530Y27962I0J151*
G01*
G75*
D01*
G02X52629Y27999I99J-113*
G01*
X52629Y27999D01*
X52727Y27999D01*
G74*
D01*
G02X52780Y27990I2J151*
G01*
G75*
D01*
G02X52833Y27999I51J-142*
G01*
X52833Y27999D01*
X52931Y27999D01*
G74*
D01*
G02X53030Y27962I0J151*
G01*
G75*
D01*
G02X53129Y27999I99J-113*
G01*
X53129Y27999D01*
X53227Y27999D01*
G74*
D01*
G02X53299Y27981I1J151*
G01*
X53299Y27981D01*
X53398Y27981D01*
G75*
D01*
G02X53430Y27983I30J-229*
G01*
X53430Y27983D01*
X53638Y27983D01*
G75*
D01*
G02X53704Y27995I66J-177*
G01*
X53704Y27995D01*
X53940Y27995D01*
G74*
D01*
G02X54130Y27805I0J190*
G01*
X54130Y27805D01*
X54130Y27687D01*
G75*
D01*
G02X53940Y27496I-190J-1*
G01*
X53940Y27496D01*
X53704Y27496D01*
G75*
D01*
G02X53610Y27521I0J191*
G01*
X53610Y27521D01*
X53460Y27521D01*
G74*
D01*
G02X53428Y27519I30J229*
G01*
X53428Y27519D01*
X53299Y27519D01*
G74*
D01*
G02X53227Y27501I71J133*
G01*
X53227Y27501D01*
X53129Y27501D01*
G75*
D01*
G02X53030Y27538I0J151*
G01*
G74*
D01*
G02X52931Y27501I99J113*
G01*
X52931Y27501D01*
X52833Y27501D01*
G75*
D01*
G02X52780Y27510I-2J151*
G01*
G74*
D01*
G02X52727Y27501I51J142*
G01*
X52727Y27501D01*
X52629Y27501D01*
G75*
D01*
G02X52530Y27538I0J151*
G01*
G74*
D01*
G02X52431Y27501I99J113*
G01*
X52431Y27501D01*
X52333Y27501D01*
G75*
D01*
G02X52258Y27521I0J151*
G01*
X52258Y27521D01*
X52160Y27521D01*
G74*
D01*
G02X52128Y27519I30J229*
G01*
X52128Y27519D01*
X51999Y27519D01*
G74*
D01*
G02X51927Y27501I71J133*
G01*
X51927Y27501D01*
X51829Y27501D01*
G75*
D01*
G02X51730Y27538I0J151*
G01*
G74*
D01*
G02X51689Y27512I100J112*
G01*
X51689Y27512D01*
X51736Y27465D01*
X53622Y27465D01*
G75*
D01*
G02X53704Y27483I81J-172*
G01*
X53704Y27483D01*
X53940Y27483D01*
G74*
D01*
G02X54130Y27293I0J190*
G01*
X54130Y27293D01*
X54130Y27175D01*
G75*
D01*
G02X53940Y26985I-190J0*
G01*
X53940Y26985D01*
X53704Y26985D01*
G75*
D01*
G02X53622Y27003I-1J190*
G01*
X53622Y27003D01*
X51640Y27003D01*
X51640Y27003D01*
X51640Y27003D01*
X51635Y27003D01*
G75*
D01*
G02X51447Y27100I0J231*
G01*
X51447Y27100D01*
X51330Y27217D01*
X51322Y27217D01*
G75*
D01*
G02X51290Y27219I-2J231*
G01*
X51290Y27219D01*
X51202Y27219D01*
G74*
D01*
G02X51130Y27201I71J133*
G01*
X51130Y27201D01*
X51032Y27201D01*
G75*
D01*
G02X51000Y27204I-2J151*
G01*
G75*
D01*
G02X50974Y27032I-225J-54*
G01*
G74*
D01*
G02X50824Y26901I150J20*
G01*
X50824Y26901D01*
X50726Y26901D01*
G75*
D01*
G02X50635Y26931I-1J151*
G01*
X50635Y26931D01*
X50522Y26931D01*
G75*
D01*
G02X50403Y26964I0J231*
G01*
G74*
D01*
G02X50290Y27042I19J149*
G01*
X50290Y27042D01*
X50076Y27042D01*
G74*
D01*
G02X50127Y26928I100J113*
G01*
X50127Y26928D01*
X50127Y26810D01*
G75*
D01*
G02X50020Y26666I-151J0*
G01*
X50020Y26666D01*
X50020Y24789D01*
G75*
D01*
G02X49961Y24647I-201J0*
G01*
X49961Y24647D01*
X48440Y23126D01*
X48440Y17544D01*
G75*
D01*
G02X48204Y17120I-238J-145*
G01*
X48204Y17120D01*
X46238Y15153D01*
G74*
D01*
G02X46095Y15094I142J142*
G01*
X46095Y15094D01*
X45884Y15094D01*
X45884Y15039D01*
G75*
D01*
G02X45879Y15000I-151J0*
G01*
G74*
D01*
G02X45884Y14961I146J39*
G01*
X45884Y14961D01*
X45884Y14843D01*
G75*
D01*
G02X45879Y14803I-151J-1*
G01*
G74*
D01*
G02X45884Y14764I146J39*
G01*
X45884Y14764D01*
X45884Y14646D01*
G75*
D01*
G02X45879Y14606I-151J-1*
G01*
G74*
D01*
G02X45884Y14567I146J39*
G01*
X45884Y14567D01*
X45884Y14449D01*
G75*
D01*
G02X45879Y14409I-151J-1*
G01*
G74*
D01*
G02X45884Y14370I146J39*
G01*
X45884Y14370D01*
X45884Y14252D01*
G75*
D01*
G02X45879Y14213I-151J0*
G01*
G74*
D01*
G02X45884Y14173I146J39*
G01*
X45884Y14173D01*
X45884Y14168D01*
X46303Y14587D01*
G74*
D01*
G02X46418Y14644I142J141*
G01*
G75*
D01*
G02X46445Y14646I28J-198*
G01*
X46445Y14646D01*
X48712Y14646D01*
X51559Y17493D01*
X51559Y25065D01*
G75*
D01*
G02X51961Y25065I201J195*
G01*
X51961Y25065D01*
X51961Y17410D01*
G75*
D01*
G02X51902Y17268I-201J0*
G01*
X51902Y17268D01*
X48937Y14303D01*
G74*
D01*
G02X48811Y14245I141J141*
G01*
G75*
D01*
G02X48795Y14244I-20J199*
G01*
X48795Y14244D01*
X46528Y14244D01*
X46206Y13921D01*
X46248Y13921D01*
G75*
D01*
G02X46458Y13523I251J-122*
G01*
G74*
D01*
G02X46420Y13520I35J197*
G01*
X46420Y13520D01*
X45884Y13520D01*
X45884Y13465D01*
G75*
D01*
G02X45879Y13425I-151J-1*
G01*
G74*
D01*
G02X45884Y13386I146J39*
G01*
X45884Y13386D01*
X45884Y13268D01*
G75*
D01*
G02X45879Y13228I-151J-1*
G01*
G74*
D01*
G02X45884Y13189I146J39*
G01*
X45884Y13189D01*
X45884Y13071D01*
G75*
D01*
G02X45733Y12920I-151J0*
G01*
X45733Y12920D01*
X45143Y12920D01*
G75*
D01*
G02X44992Y13071I0J151*
G01*
X44992Y13071D01*
X44992Y13189D01*
G74*
D01*
G02X44997Y13228I151J0*
G01*
G75*
D01*
G02X44992Y13268I146J39*
G01*
X44992Y13268D01*
X44992Y13386D01*
G74*
D01*
G02X44997Y13425I151J0*
G01*
G75*
D01*
G02X44992Y13465I146J39*
G01*
X44992Y13465D01*
X44992Y13583D01*
G74*
D01*
G02X44997Y13622I151J0*
G01*
G75*
D01*
G02X44992Y13661I146J39*
G01*
X44992Y13661D01*
X44992Y13780D01*
G74*
D01*
G02X44997Y13819I151J0*
G01*
G75*
D01*
G02X44992Y13858I146J39*
G01*
X44992Y13858D01*
X44992Y13976D01*
G74*
D01*
G02X44997Y14016I151J1*
G01*
G75*
D01*
G02X44992Y14055I146J39*
G01*
X44992Y14055D01*
X44992Y14173D01*
G74*
D01*
G02X44997Y14213I151J1*
G01*
G75*
D01*
G02X44992Y14252I146J39*
G01*
X44992Y14252D01*
X44992Y14370D01*
G74*
D01*
G02X44997Y14409I151J0*
G01*
G75*
D01*
G02X44992Y14449I146J39*
G01*
X44992Y14449D01*
X44992Y14567D01*
G74*
D01*
G02X44997Y14606I151J0*
G01*
G75*
D01*
G02X44992Y14646I146J39*
G01*
X44992Y14646D01*
X44992Y14764D01*
G74*
D01*
G02X44997Y14803I151J0*
G01*
G75*
D01*
G02X44992Y14843I146J39*
G01*
X44992Y14843D01*
X44992Y14961D01*
G74*
D01*
G02X44997Y15000I151J0*
G01*
G75*
D01*
G02X44992Y15039I146J39*
G01*
X44992Y15039D01*
X44992Y15157D01*
G74*
D01*
G02X44997Y15197I151J1*
G01*
G75*
D01*
G02X44992Y15236I146J39*
G01*
X44992Y15236D01*
X44992Y15354D01*
G74*
D01*
G02X44997Y15394I151J1*
G01*
G75*
D01*
G02X44992Y15433I146J39*
G01*
X44992Y15433D01*
X44992Y15551D01*
G74*
D01*
G02X44997Y15591I151J1*
G01*
G75*
D01*
G02X44992Y15630I146J39*
G01*
X44992Y15630D01*
X44992Y15748D01*
G74*
D01*
G02X44997Y15787I151J0*
G01*
G75*
D01*
G02X44992Y15827I146J39*
G01*
X44992Y15827D01*
X44992Y15945D01*
G74*
D01*
G02X44997Y15984I151J0*
G01*
G75*
D01*
G02X44992Y16024I146J39*
G01*
X44992Y16024D01*
X44992Y16142D01*
G74*
D01*
G02X44997Y16181I151J0*
G01*
G75*
D01*
G02X44992Y16220I146J39*
G01*
X44992Y16220D01*
X44992Y16339D01*
G74*
D01*
G02X44997Y16378I151J0*
G01*
G75*
D01*
G02X44992Y16417I146J39*
G01*
X44992Y16417D01*
X44992Y16535D01*
G74*
D01*
G02X44997Y16575I151J1*
G01*
G75*
D01*
G02X44992Y16614I146J39*
G01*
X44992Y16614D01*
X44992Y16732D01*
G74*
D01*
G02X44997Y16772I151J1*
G01*
G75*
D01*
G02X44992Y16811I146J39*
G01*
X44992Y16811D01*
X44992Y16929D01*
G75*
D01*
G02X45143Y17080I151J0*
G01*
X45143Y17080D01*
X45696Y17080D01*
X46120Y17504D01*
G74*
D01*
G02X46396Y17780I280J4*
G01*
X46396Y17780D01*
X46699Y18083D01*
X46699Y23310D01*
G75*
D01*
G02X46758Y23452I201J0*
G01*
X46758Y23452D01*
X48520Y25214D01*
X48198Y25214D01*
X47280Y24296D01*
G74*
D01*
G02X47004Y24020I280J4*
G01*
X47004Y24020D01*
X46601Y23617D01*
X46601Y19800D01*
G75*
D01*
G02X46542Y19658I-201J0*
G01*
X46542Y19658D01*
X44871Y17987D01*
X44871Y17984D01*
G74*
D01*
G02X44880Y17933I141J51*
G01*
X44880Y17933D01*
X44880Y17343D01*
G75*
D01*
G02X44729Y17192I-151J0*
G01*
X44729Y17192D01*
X44611Y17192D01*
G75*
D01*
G02X44572Y17197I0J151*
G01*
G74*
D01*
G02X44532Y17192I39J146*
G01*
X44532Y17192D01*
X44414Y17192D01*
G75*
D01*
G02X44375Y17197I0J151*
G01*
G74*
D01*
G02X44335Y17192I39J146*
G01*
X44335Y17192D01*
X44217Y17192D01*
G75*
D01*
G02X44178Y17197I0J151*
G01*
G74*
D01*
G02X44139Y17192I39J146*
G01*
X44139Y17192D01*
X44020Y17192D01*
G75*
D01*
G02X43981Y17197I0J151*
G01*
G74*
D01*
G02X43942Y17192I39J146*
G01*
X43942Y17192D01*
X43824Y17192D01*
G75*
D01*
G02X43784Y17197I-1J151*
G01*
G74*
D01*
G02X43745Y17192I39J146*
G01*
X43745Y17192D01*
X43627Y17192D01*
G75*
D01*
G02X43587Y17197I-1J151*
G01*
G74*
D01*
G02X43548Y17192I39J146*
G01*
X43548Y17192D01*
X43430Y17192D01*
G75*
D01*
G02X43391Y17197I0J151*
G01*
G74*
D01*
G02X43351Y17192I39J146*
G01*
X43351Y17192D01*
X43233Y17192D01*
G75*
D01*
G02X43095Y17281I0J151*
G01*
G74*
D01*
G02X42957Y17192I138J62*
G01*
X42957Y17192D01*
X42839Y17192D01*
G75*
D01*
G02X42800Y17197I0J151*
G01*
G74*
D01*
G02X42761Y17192I39J146*
G01*
X42761Y17192D01*
X42643Y17192D01*
G75*
D01*
G02X42603Y17197I-1J151*
G01*
G74*
D01*
G02X42564Y17192I39J146*
G01*
X42564Y17192D01*
X42446Y17192D01*
G75*
D01*
G02X42406Y17197I-1J151*
G01*
G74*
D01*
G02X42367Y17192I39J146*
G01*
X42367Y17192D01*
X42249Y17192D01*
G75*
D01*
G02X42209Y17197I-1J151*
G01*
G74*
D01*
G02X42170Y17192I39J146*
G01*
X42170Y17192D01*
X42052Y17192D01*
G75*
D01*
G02X42013Y17197I0J151*
G01*
G74*
D01*
G02X41973Y17192I39J146*
G01*
X41973Y17192D01*
X41855Y17192D01*
G75*
D01*
G02X41816Y17197I0J151*
G01*
G74*
D01*
G02X41776Y17192I39J146*
G01*
X41776Y17192D01*
X41658Y17192D01*
G75*
D01*
G02X41619Y17197I0J151*
G01*
G74*
D01*
G02X41580Y17192I39J146*
G01*
X41580Y17192D01*
X41461Y17192D01*
G75*
D01*
G02X41422Y17197I0J151*
G01*
G74*
D01*
G02X41383Y17192I39J146*
G01*
X41383Y17192D01*
X41265Y17192D01*
G75*
D01*
G02X41225Y17197I-1J151*
G01*
G74*
D01*
G02X41186Y17192I39J146*
G01*
X41186Y17192D01*
X41068Y17192D01*
G75*
D01*
G02X41028Y17197I-1J151*
G01*
G74*
D01*
G02X40989Y17192I39J146*
G01*
X40989Y17192D01*
X40871Y17192D01*
G75*
D01*
G02X40720Y17343I0J151*
G01*
X40720Y17343D01*
X40720Y17933D01*
G75*
D01*
G02X40871Y18084I151J0*
G01*
X40871Y18084D01*
X40926Y18084D01*
X40926Y18090D01*
X40817Y18199D01*
X39464Y18199D01*
X39464Y18192D01*
G75*
D01*
G02X39229Y17957I-235J0*
G01*
X39229Y17957D01*
X39121Y17957D01*
G75*
D01*
G02X38886Y18192I0J235*
G01*
X38886Y18192D01*
X38886Y18608D01*
G75*
D01*
G02X39121Y18843I235J0*
G01*
X39121Y18843D01*
X39229Y18843D01*
G74*
D01*
G02X39464Y18608I0J235*
G01*
X39464Y18608D01*
X39464Y18601D01*
X40900Y18601D01*
G75*
D01*
G02X40950Y18595I1J-201*
G01*
G74*
D01*
G02X41042Y18542I51J194*
G01*
X41042Y18542D01*
X41269Y18316D01*
G74*
D01*
G02X41328Y18173I142J142*
G01*
X41328Y18173D01*
X41328Y18084D01*
X41383Y18084D01*
G74*
D01*
G02X41422Y18079I0J151*
G01*
G75*
D01*
G02X41461Y18084I39J-146*
G01*
X41461Y18084D01*
X41516Y18084D01*
X41516Y18599D01*
X39817Y20299D01*
X39464Y20299D01*
X39464Y20292D01*
G75*
D01*
G02X39229Y20057I-235J0*
G01*
X39229Y20057D01*
X39121Y20057D01*
G75*
D01*
G02X38886Y20292I0J235*
G01*
X38886Y20292D01*
X38886Y20708D01*
G75*
D01*
G02X39121Y20943I235J0*
G01*
X39121Y20943D01*
X39229Y20943D01*
G74*
D01*
G02X39464Y20708I0J235*
G01*
X39464Y20708D01*
X39464Y20701D01*
X39900Y20701D01*
G74*
D01*
G02X40042Y20642I0J201*
G01*
X40042Y20642D01*
X41859Y18825D01*
G74*
D01*
G02X41918Y18683I141J142*
G01*
X41918Y18683D01*
X41918Y18084D01*
X41973Y18084D01*
G74*
D01*
G02X42013Y18079I1J151*
G01*
G75*
D01*
G02X42052Y18084I39J-146*
G01*
X42052Y18084D01*
X42107Y18084D01*
X42107Y19809D01*
X39517Y22399D01*
X39464Y22399D01*
X39464Y22392D01*
G75*
D01*
G02X39229Y22157I-235J0*
G01*
X39229Y22157D01*
X39121Y22157D01*
G75*
D01*
G02X38886Y22392I0J235*
G01*
X38886Y22392D01*
X38886Y22808D01*
G75*
D01*
G02X39121Y23043I235J0*
G01*
X39121Y23043D01*
X39229Y23043D01*
G74*
D01*
G02X39464Y22808I0J235*
G01*
X39464Y22808D01*
X39464Y22801D01*
X39600Y22801D01*
G74*
D01*
G02X39742Y22742I0J201*
G01*
X39742Y22742D01*
X42304Y20180D01*
X42304Y23714D01*
X41827Y24191D01*
G75*
D01*
G02X40856Y25161I-344J627*
G01*
X40856Y25161D01*
X40367Y25650D01*
X39606Y25650D01*
G74*
D01*
G02X39369Y25357I451J122*
G01*
G74*
D01*
G02X39623Y24941I213J416*
G01*
X39623Y24941D01*
X39623Y24784D01*
G75*
D01*
G02X39155Y24317I-468J1*
G01*
X39155Y24317D01*
X38841Y24317D01*
G75*
D01*
G02X38373Y24784I-1J467*
G01*
X38373Y24784D01*
X38373Y24941D01*
G74*
D01*
G02X38627Y25357I468J0*
G01*
G75*
D01*
G02X38373Y25772I212J415*
G01*
X38373Y25772D01*
X38373Y25930D01*
G74*
D01*
G02X38627Y26345I468J1*
G01*
G75*
D01*
G02X38373Y26761I213J416*
G01*
X38373Y26761D01*
X38373Y26918D01*
G74*
D01*
G02X38627Y27334I468J0*
G01*
G75*
D01*
G02X38373Y27750I213J416*
G01*
X38373Y27750D01*
X38373Y27907D01*
G74*
D01*
G02X38627Y28323I468J0*
G01*
G75*
D01*
G02X38373Y28738I212J415*
G01*
X38373Y28738D01*
X38373Y28896D01*
G75*
D01*
G02X38841Y29363I468J-1*
G01*
X38841Y29363D01*
X39155Y29363D01*
G74*
D01*
G02X39623Y28896I1J467*
G01*
X39623Y28896D01*
X39623Y28738D01*
G75*
D01*
G02X39369Y28323I-468J1*
G01*
G74*
D01*
G02X39606Y28029I214J415*
G01*
X39606Y28029D01*
X40801Y28029D01*
G75*
D01*
G02X42113Y27482I682J-211*
G01*
X42113Y27482D01*
X42843Y26751D01*
G74*
D01*
G02X42903Y26609I140J143*
G01*
X42903Y26609D01*
X42903Y18962D01*
X43336Y19396D01*
X43336Y19608D01*
G74*
D01*
G02X43399Y19768I235J0*
G01*
X43399Y19768D01*
X43399Y20205D01*
G75*
D01*
G02X43801Y20205I201J195*
G01*
X43801Y20205D01*
X43801Y19809D01*
G74*
D01*
G02X43914Y19608I122J201*
G01*
X43914Y19608D01*
X43914Y19192D01*
G75*
D01*
G02X43679Y18957I-235J0*
G01*
X43679Y18957D01*
X43571Y18957D01*
G75*
D01*
G02X43483Y18974I0J235*
G01*
X43483Y18974D01*
X43099Y18590D01*
X43099Y18003D01*
G75*
D01*
G02X43233Y18084I134J-70*
G01*
X43233Y18084D01*
X43351Y18084D01*
G74*
D01*
G02X43391Y18079I1J151*
G01*
G75*
D01*
G02X43430Y18084I39J-146*
G01*
X43430Y18084D01*
X43548Y18084D01*
G74*
D01*
G02X43587Y18079I0J151*
G01*
G75*
D01*
G02X43627Y18084I39J-146*
G01*
X43627Y18084D01*
X43745Y18084D01*
G74*
D01*
G02X43784Y18079I0J151*
G01*
G75*
D01*
G02X43824Y18084I39J-146*
G01*
X43824Y18084D01*
X43879Y18084D01*
X43879Y18379D01*
G75*
D01*
G02X43937Y18522I201J2*
G01*
D02*
G37*
G36*
X54054Y23047D02*
G75*
D01*
G02X54054Y23047I-627J-343*
G01*
D02*
G37*
G36*
X39716Y13583D02*
G74*
D01*
G02X39721Y13622I151J0*
G01*
G75*
D01*
G02X39716Y13661I146J39*
G01*
X39716Y13661D01*
X39716Y13716D01*
X39521Y13716D01*
X39402Y13598D01*
X38601Y12797D01*
X38601Y12264D01*
X38608Y12264D01*
G74*
D01*
G02X38843Y12029I0J235*
G01*
X38843Y12029D01*
X38843Y11921D01*
G75*
D01*
G02X38608Y11686I-235J0*
G01*
X38608Y11686D01*
X38192Y11686D01*
G75*
D01*
G02X38009Y11774I0J235*
G01*
X38009Y11774D01*
X36791Y11774D01*
G74*
D01*
G02X36608Y11686I183J146*
G01*
X36608Y11686D01*
X36192Y11686D01*
G75*
D01*
G02X36009Y11774I0J235*
G01*
X36009Y11774D01*
X35725Y11774D01*
G75*
D01*
G02X35583Y11833I0J201*
G01*
X35583Y11833D01*
X34558Y12858D01*
G75*
D01*
G02X34499Y13000I141J142*
G01*
X34499Y13000D01*
X34499Y13005D01*
G75*
D01*
G02X34503Y13399I201J195*
G01*
X34503Y13399D01*
X31800Y13399D01*
G75*
D01*
G02X31658Y13458I0J201*
G01*
X31658Y13458D01*
X30383Y14733D01*
G75*
D01*
G02X30324Y14875I141J142*
G01*
X30324Y14875D01*
X30324Y15813D01*
G75*
D01*
G02X30726Y15813I201J420*
G01*
X30726Y15813D01*
X30726Y14958D01*
X31026Y14658D01*
G75*
D01*
G02X31580Y14604I274J-58*
G01*
X31580Y14604D01*
X31923Y14262D01*
G75*
D01*
G02X32395Y14501I276J40*
G01*
X32395Y14501D01*
X32503Y14501D01*
G75*
D01*
G02X32895Y14901I196J200*
G01*
X32895Y14901D01*
X38915Y14901D01*
X38867Y14949D01*
X35050Y14949D01*
G75*
D01*
G02X34908Y15008I0J201*
G01*
X34908Y15008D01*
X34458Y15458D01*
G75*
D01*
G02X34399Y15600I141J142*
G01*
X34399Y15600D01*
X34399Y17317D01*
X33617Y18099D01*
X31674Y18099D01*
X30965Y17390D01*
G75*
D01*
G02X30681Y17674I-439J-155*
G01*
X30681Y17674D01*
X31449Y18442D01*
G75*
D01*
G02X31591Y18501I142J-141*
G01*
X31591Y18501D01*
X33700Y18501D01*
G74*
D01*
G02X33842Y18442I0J201*
G01*
X33842Y18442D01*
X34742Y17542D01*
G74*
D01*
G02X34801Y17400I141J142*
G01*
X34801Y17400D01*
X34801Y15683D01*
X35133Y15351D01*
X38950Y15351D01*
G74*
D01*
G02X39092Y15292I0J201*
G01*
X39092Y15292D01*
X39282Y15103D01*
X39716Y15103D01*
X39716Y15157D01*
G74*
D01*
G02X39721Y15197I151J1*
G01*
G75*
D01*
G02X39716Y15236I146J39*
G01*
X39716Y15236D01*
X39716Y15354D01*
G74*
D01*
G02X39797Y15488I151J0*
G01*
X39797Y15488D01*
X39611Y15488D01*
G75*
D01*
G02X39469Y15547I0J201*
G01*
X39469Y15547D01*
X38707Y16308D01*
G74*
D01*
G02X38608Y16286I99J212*
G01*
X38608Y16286D01*
X38192Y16286D01*
G75*
D01*
G02X37957Y16521I0J235*
G01*
X37957Y16521D01*
X37957Y16629D01*
G75*
D01*
G02X38192Y16864I235J0*
G01*
X38192Y16864D01*
X38608Y16864D01*
G74*
D01*
G02X38803Y16760I0J235*
G01*
G74*
D01*
G02X38867Y16717I77J184*
G01*
X38867Y16717D01*
X39199Y16385D01*
X39199Y16417D01*
X38517Y17099D01*
X36983Y17099D01*
X36720Y16836D01*
G74*
D01*
G02X36843Y16629I112J207*
G01*
X36843Y16629D01*
X36843Y16521D01*
G75*
D01*
G02X36608Y16286I-235J0*
G01*
X36608Y16286D01*
X36192Y16286D01*
G75*
D01*
G02X35957Y16521I0J235*
G01*
X35957Y16521D01*
X35957Y16629D01*
G75*
D01*
G02X36192Y16864I235J0*
G01*
X36192Y16864D01*
X36209Y16864D01*
G74*
D01*
G02X36258Y16942I190J65*
G01*
X36258Y16942D01*
X36758Y17442D01*
G75*
D01*
G02X36900Y17501I142J-141*
G01*
X36900Y17501D01*
X38600Y17501D01*
G74*
D01*
G02X38742Y17442I0J201*
G01*
X38742Y17442D01*
X39542Y16642D01*
G74*
D01*
G02X39601Y16500I141J142*
G01*
X39601Y16500D01*
X39601Y16283D01*
X39718Y16166D01*
G74*
D01*
G02X39721Y16181I148J22*
G01*
G75*
D01*
G02X39716Y16220I146J39*
G01*
X39716Y16220D01*
X39716Y16339D01*
G74*
D01*
G02X39721Y16378I151J0*
G01*
G75*
D01*
G02X39716Y16417I146J39*
G01*
X39716Y16417D01*
X39716Y16535D01*
G74*
D01*
G02X39721Y16575I151J1*
G01*
G75*
D01*
G02X39716Y16614I146J39*
G01*
X39716Y16614D01*
X39716Y16732D01*
G75*
D01*
G02X39867Y16883I151J0*
G01*
X39867Y16883D01*
X40457Y16883D01*
G74*
D01*
G02X40608Y16732I0J151*
G01*
X40608Y16732D01*
X40608Y16614D01*
G75*
D01*
G02X40603Y16575I-151J0*
G01*
G74*
D01*
G02X40608Y16535I146J39*
G01*
X40608Y16535D01*
X40608Y16417D01*
G75*
D01*
G02X40603Y16378I-151J0*
G01*
G74*
D01*
G02X40608Y16339I146J39*
G01*
X40608Y16339D01*
X40608Y16220D01*
G75*
D01*
G02X40603Y16181I-151J0*
G01*
G74*
D01*
G02X40608Y16142I146J39*
G01*
X40608Y16142D01*
X40608Y16024D01*
G75*
D01*
G02X40603Y15984I-151J-1*
G01*
G74*
D01*
G02X40608Y15945I146J39*
G01*
X40608Y15945D01*
X40608Y15827D01*
G75*
D01*
G02X40603Y15787I-151J-1*
G01*
G74*
D01*
G02X40608Y15748I146J39*
G01*
X40608Y15748D01*
X40608Y15630D01*
G75*
D01*
G02X40519Y15492I-151J0*
G01*
G74*
D01*
G02X40608Y15354I62J138*
G01*
X40608Y15354D01*
X40608Y15236D01*
G75*
D01*
G02X40603Y15197I-151J0*
G01*
G74*
D01*
G02X40608Y15157I146J39*
G01*
X40608Y15157D01*
X40608Y15039D01*
G75*
D01*
G02X40603Y15000I-151J0*
G01*
G74*
D01*
G02X40608Y14961I146J39*
G01*
X40608Y14961D01*
X40608Y14843D01*
G75*
D01*
G02X40603Y14803I-151J-1*
G01*
G74*
D01*
G02X40608Y14764I146J39*
G01*
X40608Y14764D01*
X40608Y14646D01*
G75*
D01*
G02X40603Y14606I-151J-1*
G01*
G74*
D01*
G02X40608Y14567I146J39*
G01*
X40608Y14567D01*
X40608Y14449D01*
G75*
D01*
G02X40603Y14409I-151J-1*
G01*
G74*
D01*
G02X40608Y14370I146J39*
G01*
X40608Y14370D01*
X40608Y14252D01*
G75*
D01*
G02X40603Y14213I-151J0*
G01*
G74*
D01*
G02X40608Y14173I146J39*
G01*
X40608Y14173D01*
X40608Y14055D01*
G75*
D01*
G02X40603Y14016I-151J0*
G01*
G74*
D01*
G02X40608Y13976I146J39*
G01*
X40608Y13976D01*
X40608Y13858D01*
G75*
D01*
G02X40603Y13819I-151J0*
G01*
G74*
D01*
G02X40608Y13780I146J39*
G01*
X40608Y13780D01*
X40608Y13661D01*
G75*
D01*
G02X40603Y13622I-151J0*
G01*
G74*
D01*
G02X40608Y13583I146J39*
G01*
X40608Y13583D01*
X40608Y13465D01*
G75*
D01*
G02X40603Y13425I-151J-1*
G01*
G74*
D01*
G02X40608Y13386I146J39*
G01*
X40608Y13386D01*
X40608Y13268D01*
G75*
D01*
G02X40603Y13228I-151J-1*
G01*
G74*
D01*
G02X40608Y13189I146J39*
G01*
X40608Y13189D01*
X40608Y13071D01*
G75*
D01*
G02X40457Y12920I-151J0*
G01*
X40457Y12920D01*
X39867Y12920D01*
G75*
D01*
G02X39716Y13071I0J151*
G01*
X39716Y13071D01*
X39716Y13189D01*
G74*
D01*
G02X39721Y13228I151J0*
G01*
G75*
D01*
G02X39716Y13268I146J39*
G01*
X39716Y13268D01*
X39716Y13386D01*
G74*
D01*
G02X39721Y13425I151J0*
G01*
G75*
D01*
G02X39716Y13465I146J39*
G01*
X39716Y13465D01*
X39716Y13583D01*
D02*
G37*
G36*
X48750Y6500D02*
G75*
D01*
G02X48750Y6500I650J0*
G01*
D02*
G37*
G36*
X51901Y6144D02*
G75*
D01*
G02X52249Y6492I348J0*
G01*
X52249Y6492D01*
X52457Y6492D01*
G74*
D01*
G02X52804Y6144I1J348*
G01*
X52804Y6144D01*
X52804Y5936D01*
G75*
D01*
G02X52457Y5588I-347J-1*
G01*
X52457Y5588D01*
X52249Y5588D01*
G75*
D01*
G02X51901Y5936I0J348*
G01*
X51901Y5936D01*
X51901Y6144D01*
D02*
G37*
G36*
X56750Y6500D02*
G75*
D01*
G02X56750Y6500I650J0*
G01*
D02*
G37*
G36*
X54886Y6040D02*
G75*
D01*
G02X54886Y6040I467J0*
G01*
D02*
G37*
G36*
X49570Y19895D02*
G75*
D01*
G02X49570Y19895I715J0*
G01*
D02*
G37*
G36*
X55892Y14960D02*
G75*
D01*
G02X55892Y14960I467J0*
G01*
D02*
G37*
G36*
X56892Y14960D02*
G75*
D01*
G02X56892Y14960I467J0*
G01*
D02*
G37*
G36*
X55848Y19895D02*
G75*
D01*
G02X55848Y19895I715J0*
G01*
D02*
G37*
G36*
X45091Y12362D02*
G75*
D01*
G02X45091Y12362I347J0*
G01*
D02*
G37*
G36*
X49907Y15064D02*
G75*
D01*
G02X50255Y15412I348J0*
G01*
X50255Y15412D01*
X50463Y15412D01*
G74*
D01*
G02X50811Y15064I0J348*
G01*
X50811Y15064D01*
X50811Y14856D01*
G75*
D01*
G02X50463Y14508I-348J0*
G01*
X50463Y14508D01*
X50255Y14508D01*
G75*
D01*
G02X49907Y14856I0J348*
G01*
X49907Y14856D01*
X49907Y15064D01*
D02*
G37*
G36*
X50892Y14960D02*
G75*
D01*
G02X50892Y14960I467J0*
G01*
D02*
G37*
G36*
X51892Y14960D02*
G75*
D01*
G02X51892Y14960I467J0*
G01*
D02*
G37*
G36*
X52709Y19895D02*
G75*
D01*
G02X52709Y19895I715J0*
G01*
D02*
G37*
G36*
X53199Y16105D02*
G75*
D01*
G02X53601Y16105I201J195*
G01*
X53601Y16105D01*
X53601Y15359D01*
G75*
D01*
G02X53199Y15398I-242J-399*
G01*
X53199Y15398D01*
X53199Y16105D01*
D02*
G37*
G36*
X27704Y9100D02*
G75*
D01*
G02X28106Y9110I196J200*
G01*
X28106Y9110D01*
X28106Y8295D01*
G75*
D01*
G02X27704Y8295I-201J-685*
G01*
X27704Y8295D01*
X27704Y9100D01*
D02*
G37*
G36*
X37595Y9601D02*
X37595Y9601D01*
X37936Y9601D01*
X37936Y9608D01*
G75*
D01*
G02X38171Y9843I235J0*
G01*
X38171Y9843D01*
X38199Y9843D01*
X38199Y10936D01*
X38192Y10936D01*
G75*
D01*
G02X37957Y11171I0J235*
G01*
X37957Y11171D01*
X37957Y11279D01*
G75*
D01*
G02X38192Y11514I235J0*
G01*
X38192Y11514D01*
X38608Y11514D01*
G74*
D01*
G02X38843Y11279I0J235*
G01*
X38843Y11279D01*
X38843Y11171D01*
G75*
D01*
G02X38608Y10936I-235J0*
G01*
X38608Y10936D01*
X38601Y10936D01*
X38601Y9575D01*
G75*
D01*
G02X38542Y9433I-201J0*
G01*
X38542Y9433D01*
X38514Y9404D01*
X38514Y9192D01*
G75*
D01*
G02X38426Y9009I-235J0*
G01*
X38426Y9009D01*
X38426Y7991D01*
G74*
D01*
G02X38514Y7808I146J183*
G01*
X38514Y7808D01*
X38514Y7392D01*
G75*
D01*
G02X38279Y7157I-235J0*
G01*
X38279Y7157D01*
X38171Y7157D01*
G75*
D01*
G02X37936Y7392I0J235*
G01*
X37936Y7392D01*
X37936Y7808D01*
G74*
D01*
G02X38024Y7991I235J0*
G01*
X38024Y7991D01*
X38024Y9009D01*
G75*
D01*
G02X37936Y9192I146J183*
G01*
X37936Y9192D01*
X37936Y9199D01*
X37595Y9199D01*
G75*
D01*
G02X37595Y9601I-195J201*
G01*
D02*
G37*
G36*
X31799Y20273D02*
X31799Y20273D01*
X31799Y21305D01*
G75*
D01*
G02X32201Y21305I201J195*
G01*
X32201Y21305D01*
X32201Y20242D01*
G75*
D01*
G02X31799Y20273I-233J-403*
G01*
D02*
G37*
G36*
X28726Y17656D02*
G75*
D01*
G02X28324Y17656I-201J-422*
G01*
X28324Y17656D01*
X28324Y17825D01*
G75*
D01*
G02X28383Y17967I201J0*
G01*
X28383Y17967D01*
X29358Y18942D01*
G75*
D01*
G02X29500Y19001I142J-141*
G01*
X29500Y19001D01*
X31847Y19001D01*
X32521Y19675D01*
G75*
D01*
G02X32516Y19733I342J59*
G01*
X32516Y19733D01*
X32516Y19942D01*
G75*
D01*
G02X32864Y20289I348J-1*
G01*
X32864Y20289D01*
X33072Y20289D01*
G74*
D01*
G02X33420Y19942I1J347*
G01*
X33420Y19942D01*
X33420Y19733D01*
G75*
D01*
G02X33072Y19386I-348J1*
G01*
X33072Y19386D01*
X32864Y19386D01*
G75*
D01*
G02X32805Y19391I0J347*
G01*
X32805Y19391D01*
X32073Y18658D01*
G74*
D01*
G02X31930Y18599I142J142*
G01*
X31930Y18599D01*
X29583Y18599D01*
X28726Y17742D01*
X28726Y17656D01*
D02*
G37*
G36*
X30547Y20039D02*
G75*
D01*
G02X30547Y19637I420J-201*
G01*
X30547Y19637D01*
X29721Y19637D01*
X27735Y17651D01*
G75*
D01*
G02X27324Y17656I-211J-416*
G01*
X27324Y17656D01*
X27324Y17725D01*
G75*
D01*
G02X27383Y17867I201J0*
G01*
X27383Y17867D01*
X29496Y19980D01*
G75*
D01*
G02X29638Y20039I142J-141*
G01*
X29638Y20039D01*
X30547Y20039D01*
D02*
G37*
G36*
X29059Y17234D02*
G75*
D01*
G02X29059Y17234I466J0*
G01*
D02*
G37*
G36*
X31059Y17234D02*
G75*
D01*
G02X31059Y17234I466J0*
G01*
D02*
G37*
G36*
X33059Y17234D02*
G75*
D01*
G02X33059Y17234I466J0*
G01*
D02*
G37*
G36*
X32059Y17234D02*
G75*
D01*
G02X32059Y17234I466J0*
G01*
D02*
G37*
G36*
X33404Y15580D02*
G75*
D01*
G02X33120Y15296I-4J-280*
G01*
X33120Y15296D01*
X32635Y15781D01*
G75*
D01*
G02X32948Y16036I-109J453*
G01*
X32948Y16036D01*
X33404Y15580D01*
D02*
G37*
G36*
X33059Y16234D02*
G75*
D01*
G02X33059Y16234I466J0*
G01*
D02*
G37*
G36*
X29324Y15813D02*
G75*
D01*
G02X29726Y15813I201J420*
G01*
X29726Y15813D01*
X29726Y14865D01*
G75*
D01*
G02X29324Y14918I-226J-164*
G01*
X29324Y14918D01*
X29324Y15813D01*
D02*
G37*
G36*
X28324Y15813D02*
G75*
D01*
G02X28726Y15813I201J420*
G01*
X28726Y15813D01*
X28726Y14565D01*
G75*
D01*
G02X28300Y14596I-226J-164*
G01*
G74*
D01*
G02X28324Y14672I200J21*
G01*
X28324Y14672D01*
X28324Y15813D01*
D02*
G37*
G36*
X27324Y15796D02*
G75*
D01*
G02X27074Y16130I97J333*
G01*
X27074Y16130D01*
X27074Y16338D01*
G75*
D01*
G02X27421Y16686I347J1*
G01*
X27421Y16686D01*
X27629Y16686D01*
G74*
D01*
G02X27977Y16338I0J348*
G01*
X27977Y16338D01*
X27977Y16130D01*
G75*
D01*
G02X27726Y15796I-348J0*
G01*
X27726Y15796D01*
X27726Y15465D01*
G75*
D01*
G02X27324Y15518I-226J-164*
G01*
X27324Y15518D01*
X27324Y15796D01*
D02*
G37*
G36*
X34753Y24783D02*
G75*
D01*
G02X34285Y24316I-468J1*
G01*
X34285Y24316D01*
X33971Y24316D01*
G75*
D01*
G02X33503Y24783I-1J467*
G01*
X33503Y24783D01*
X33503Y24941D01*
G75*
D01*
G02X33971Y25408I468J-1*
G01*
X33971Y25408D01*
X34285Y25408D01*
G74*
D01*
G02X34753Y24941I1J467*
G01*
X34753Y24941D01*
X34753Y24783D01*
D02*
G37*
G36*
X31367Y27500D02*
X31367Y27500D01*
X31367Y26585D01*
G75*
D01*
G02X30864Y26651I-267J-85*
G01*
X30864Y26651D01*
X30864Y27500D01*
G75*
D01*
G02X31367Y27500I252J393*
G01*
D02*
G37*
G36*
X34499Y27334D02*
G74*
D01*
G02X34753Y26918I213J416*
G01*
X34753Y26918D01*
X34753Y26761D01*
G75*
D01*
G02X34285Y26293I-468J0*
G01*
X34285Y26293D01*
X33971Y26293D01*
G75*
D01*
G02X33503Y26761I0J468*
G01*
X33503Y26761D01*
X33503Y26918D01*
G74*
D01*
G02X33757Y27334I468J0*
G01*
G74*
D01*
G02X33516Y27643I213J415*
G01*
X33516Y27643D01*
X32535Y27643D01*
G74*
D01*
G02X32220Y27442I315J146*
G01*
X32220Y27442D01*
X32012Y27442D01*
G75*
D01*
G02X31664Y27790I0J348*
G01*
X31664Y27790D01*
X31664Y27998D01*
G75*
D01*
G02X32012Y28345I348J-1*
G01*
X32012Y28345D01*
X32220Y28345D01*
G74*
D01*
G02X32535Y28145I1J347*
G01*
X32535Y28145D01*
X33569Y28145D01*
G74*
D01*
G02X33757Y28322I402J238*
G01*
G75*
D01*
G02X33503Y28738I213J416*
G01*
X33503Y28738D01*
X33503Y28895D01*
G75*
D01*
G02X33971Y29362I468J-1*
G01*
X33971Y29362D01*
X34285Y29362D01*
G74*
D01*
G02X34753Y28895I1J467*
G01*
X34753Y28895D01*
X34753Y28738D01*
G75*
D01*
G02X34499Y28322I-468J0*
G01*
G74*
D01*
G02X34753Y27907I212J415*
G01*
X34753Y27907D01*
X34753Y27749D01*
G75*
D01*
G02X34499Y27334I-468J1*
G01*
D02*
G37*
G36*
X29721Y28142D02*
G75*
D01*
G02X29724Y27640I394J-249*
G01*
X29724Y27640D01*
X28332Y27640D01*
G75*
D01*
G02X28332Y28142I-669J251*
G01*
X28332Y28142D01*
X29721Y28142D01*
D02*
G37*
G36*
X37324Y22392D02*
G75*
D01*
G02X37089Y22157I-235J0*
G01*
X37089Y22157D01*
X36981Y22157D01*
G75*
D01*
G02X36746Y22392I0J235*
G01*
X36746Y22392D01*
X36746Y22808D01*
G75*
D01*
G02X36981Y23043I235J0*
G01*
X36981Y23043D01*
X37089Y23043D01*
G74*
D01*
G02X37324Y22808I0J235*
G01*
X37324Y22808D01*
X37324Y22801D01*
X38136Y22801D01*
X38136Y22808D01*
G75*
D01*
G02X38371Y23043I235J0*
G01*
X38371Y23043D01*
X38479Y23043D01*
G74*
D01*
G02X38714Y22808I0J235*
G01*
X38714Y22808D01*
X38714Y22392D01*
G75*
D01*
G02X38479Y22157I-235J0*
G01*
X38479Y22157D01*
X38371Y22157D01*
G75*
D01*
G02X38136Y22392I0J235*
G01*
X38136Y22392D01*
X38136Y22399D01*
X37324Y22399D01*
X37324Y22392D01*
D02*
G37*
G36*
X37394Y20332D02*
G75*
D01*
G02X37159Y20097I-235J0*
G01*
X37159Y20097D01*
X37051Y20097D01*
G75*
D01*
G02X36816Y20332I0J235*
G01*
X36816Y20332D01*
X36816Y20748D01*
G75*
D01*
G02X37051Y20983I235J0*
G01*
X37051Y20983D01*
X37159Y20983D01*
G74*
D01*
G02X37394Y20748I0J235*
G01*
X37394Y20748D01*
X37394Y20741D01*
X38139Y20741D01*
G75*
D01*
G02X38371Y20943I232J-32*
G01*
X38371Y20943D01*
X38479Y20943D01*
G74*
D01*
G02X38714Y20708I0J235*
G01*
X38714Y20708D01*
X38714Y20292D01*
G75*
D01*
G02X38479Y20057I-235J0*
G01*
X38479Y20057D01*
X38371Y20057D01*
G75*
D01*
G02X38136Y20292I0J235*
G01*
X38136Y20292D01*
X38136Y20339D01*
X37394Y20339D01*
X37394Y20332D01*
D02*
G37*
G36*
X38137Y18621D02*
G75*
D01*
G02X38371Y18843I234J-12*
G01*
X38371Y18843D01*
X38479Y18843D01*
G74*
D01*
G02X38714Y18608I0J235*
G01*
X38714Y18608D01*
X38714Y18192D01*
G75*
D01*
G02X38479Y17957I-235J0*
G01*
X38479Y17957D01*
X38371Y17957D01*
G75*
D01*
G02X38136Y18192I0J235*
G01*
X38136Y18192D01*
X38136Y18219D01*
X37434Y18219D01*
X37434Y18212D01*
G75*
D01*
G02X37199Y17977I-235J0*
G01*
X37199Y17977D01*
X37091Y17977D01*
G75*
D01*
G02X36856Y18212I0J235*
G01*
X36856Y18212D01*
X36856Y18628D01*
G75*
D01*
G02X37091Y18863I235J0*
G01*
X37091Y18863D01*
X37199Y18863D01*
G74*
D01*
G02X37434Y18628I0J235*
G01*
X37434Y18628D01*
X37434Y18621D01*
X38137Y18621D01*
D02*
G37*
G36*
X39815Y17638D02*
G75*
D01*
G02X39815Y17638I347J0*
G01*
D02*
G37*
%LPD*%
G36*
X47701Y17795D02*
X47701Y17795D01*
X47701Y23227D01*
X49618Y25144D01*
X49618Y24872D01*
X48097Y23351D01*
G75*
D01*
G03X48038Y23209I141J-142*
G01*
X48038Y23209D01*
X48038Y17628D01*
G74*
D01*
G03X47920Y17404I161J228*
G01*
X47920Y17404D01*
X46012Y15496D01*
X45884Y15496D01*
X45884Y15551D01*
G74*
D01*
G03X45879Y15591I151J1*
G01*
G75*
D01*
G03X45884Y15630I-146J39*
G01*
X45884Y15630D01*
X45884Y15748D01*
G74*
D01*
G03X45879Y15787I151J0*
G01*
G75*
D01*
G03X45884Y15827I-146J39*
G01*
X45884Y15827D01*
X45884Y15882D01*
X45983Y15882D01*
G74*
D01*
G03X46125Y15941I0J201*
G01*
X46125Y15941D01*
X47504Y17320D01*
G75*
D01*
G03X47701Y17795I-4J280*
G01*
D02*
G37*
G36*
X47299Y23310D02*
X47299Y23310D01*
X47299Y17795D01*
G74*
D01*
G03X47220Y17604I201J195*
G01*
X47220Y17604D01*
X45899Y16284D01*
X45884Y16284D01*
X45884Y16339D01*
G74*
D01*
G03X45879Y16378I151J0*
G01*
G75*
D01*
G03X45884Y16417I-146J39*
G01*
X45884Y16417D01*
X45884Y16535D01*
G74*
D01*
G03X45879Y16575I151J1*
G01*
G75*
D01*
G03X45884Y16614I-146J39*
G01*
X45884Y16614D01*
X45884Y16704D01*
G74*
D01*
G03X45912Y16728I116J164*
G01*
X45912Y16728D01*
X46404Y17220D01*
G74*
D01*
G03X46680Y17496I4J280*
G01*
X46680Y17496D01*
X47042Y17858D01*
G75*
D01*
G03X47101Y18000I-141J142*
G01*
X47101Y18000D01*
X47101Y23227D01*
X49326Y25452D01*
X49326Y25420D01*
X47358Y23452D01*
G75*
D01*
G03X47299Y23310I141J-142*
G01*
D02*
G37*
G36*
X41140Y25445D02*
G75*
D01*
G02X42111Y24475I346J-624*
G01*
X42111Y24475D01*
X42501Y24085D01*
X42501Y26526D01*
X41829Y27198D01*
G75*
D01*
G02X40799Y27627I-344J626*
G01*
X40799Y27627D01*
X39606Y27627D01*
G74*
D01*
G02X39369Y27334I451J122*
G01*
G74*
D01*
G02X39623Y26918I213J416*
G01*
X39623Y26918D01*
X39623Y26761D01*
G75*
D01*
G02X39369Y26345I-468J0*
G01*
G74*
D01*
G02X39606Y26052I213J415*
G01*
X39606Y26052D01*
X40450Y26052D01*
G74*
D01*
G02X40593Y25993I1J201*
G01*
X40593Y25993D01*
X41140Y25445D01*
D02*
G37*
G36*
X36009Y12176D02*
X36009Y12176D01*
X35808Y12176D01*
X35358Y12626D01*
X34936Y13049D01*
G75*
D01*
G03X34897Y13399I-236J151*
G01*
X34897Y13399D01*
X38500Y13399D01*
G74*
D01*
G03X38642Y13458I0J201*
G01*
X38642Y13458D01*
X38782Y13598D01*
X38782Y13598D01*
X39097Y13913D01*
X39149Y13913D01*
X38834Y13598D01*
X38816Y13581D01*
X38258Y13022D01*
G75*
D01*
G03X38199Y12880I141J-142*
G01*
X38199Y12880D01*
X38199Y12264D01*
X38192Y12264D01*
G75*
D01*
G03X38009Y12176I0J-235*
G01*
X38009Y12176D01*
X36791Y12176D01*
G74*
D01*
G03X36608Y12264I183J146*
G01*
X36608Y12264D01*
X36192Y12264D01*
G75*
D01*
G03X36009Y12176I0J-235*
G01*
D02*
G37*
G36*
X46199Y23700D02*
X46199Y23700D01*
X46199Y19883D01*
X45900Y19585D01*
G75*
D01*
G03X45901Y19600I-199J21*
G01*
X45901Y19600D01*
X45901Y23305D01*
G74*
D01*
G03X45980Y23496I201J195*
G01*
X45980Y23496D01*
X46200Y23715D01*
G75*
D01*
G03X46199Y23700I199J-21*
G01*
D02*
G37*
G36*
X49228Y26877D02*
G74*
D01*
G03X49189Y26882I39J146*
G01*
X49189Y26882D01*
X49071Y26882D01*
G75*
D01*
G03X49032Y26877I0J-151*
G01*
G74*
D01*
G03X48992Y26882I39J146*
G01*
X48992Y26882D01*
X48874Y26882D01*
G75*
D01*
G03X48835Y26877I0J-151*
G01*
G74*
D01*
G03X48795Y26882I39J146*
G01*
X48795Y26882D01*
X48677Y26882D01*
G75*
D01*
G03X48638Y26877I0J-151*
G01*
G74*
D01*
G03X48599Y26882I39J146*
G01*
X48599Y26882D01*
X48552Y26882D01*
X48552Y26928D01*
G74*
D01*
G03X48547Y26967I150J1*
G01*
G75*
D01*
G03X48552Y27007I-145J38*
G01*
X48552Y27007D01*
X48552Y27125D01*
G74*
D01*
G03X48547Y27164I150J1*
G01*
G75*
D01*
G03X48552Y27204I-145J38*
G01*
X48552Y27204D01*
X48552Y27322D01*
G74*
D01*
G03X48547Y27361I150J1*
G01*
G75*
D01*
G03X48552Y27400I-145J38*
G01*
X48552Y27400D01*
X48552Y27519D01*
G74*
D01*
G03X48463Y27656I150J0*
G01*
G75*
D01*
G03X48552Y27794I-61J137*
G01*
X48552Y27794D01*
X48552Y27840D01*
X48599Y27840D01*
G74*
D01*
G03X48736Y27930I1J151*
G01*
G75*
D01*
G03X48874Y27840I137J60*
G01*
X48874Y27840D01*
X48992Y27840D01*
G74*
D01*
G03X49032Y27845I1J151*
G01*
G75*
D01*
G03X49071Y27840I39J146*
G01*
X49071Y27840D01*
X49189Y27840D01*
G74*
D01*
G03X49327Y27930I0J151*
G01*
G75*
D01*
G03X49465Y27840I137J60*
G01*
X49465Y27840D01*
X49511Y27840D01*
X49511Y27794D01*
G75*
D01*
G03X49516Y27755I150J-1*
G01*
G74*
D01*
G03X49511Y27715I145J38*
G01*
X49511Y27715D01*
X49511Y27597D01*
G75*
D01*
G03X49516Y27558I150J-1*
G01*
G74*
D01*
G03X49511Y27519I145J38*
G01*
X49511Y27519D01*
X49511Y27400D01*
G75*
D01*
G03X49516Y27361I150J-1*
G01*
G74*
D01*
G03X49511Y27322I145J38*
G01*
X49511Y27322D01*
X49511Y27204D01*
G75*
D01*
G03X49600Y27066I150J-1*
G01*
G74*
D01*
G03X49511Y26928I61J137*
G01*
X49511Y26928D01*
X49511Y26882D01*
X49465Y26882D01*
G75*
D01*
G03X49425Y26877I-1J-151*
G01*
G74*
D01*
G03X49386Y26882I39J146*
G01*
X49386Y26882D01*
X49268Y26882D01*
G75*
D01*
G03X49228Y26877I-1J-151*
G01*
D02*
G37*
G36*
X45499Y23305D02*
X45499Y23305D01*
X45499Y19683D01*
X45301Y19485D01*
X45301Y23105D01*
G74*
D01*
G03X45380Y23296I201J195*
G01*
X45380Y23296D01*
X45453Y23369D01*
G74*
D01*
G03X45499Y23305I247J129*
G01*
D02*
G37*
G36*
X49727Y28349D02*
G74*
D01*
G03X49583Y28457I144J42*
G01*
X49583Y28457D01*
X49474Y28457D01*
G75*
D01*
G03X49433Y28719I-263J93*
G01*
X49433Y28719D01*
X49902Y28719D01*
X49902Y28700D01*
G74*
D01*
G03X49901Y28680I199J20*
G01*
X49901Y28680D01*
X49901Y28502D01*
G74*
D01*
G03X49742Y28349I99J262*
G01*
X49742Y28349D01*
X49727Y28349D01*
D02*
G37*
G36*
X45241Y12362D02*
G75*
D01*
G02X45241Y12362I197J0*
G01*
D02*
G37*
G36*
X39965Y17638D02*
G75*
D01*
G02X39965Y17638I197J0*
G01*
D02*
G37*
G36*
X41658Y11916D02*
G75*
D01*
G02X41619Y11921I0J151*
G01*
G74*
D01*
G02X41580Y11916I39J146*
G01*
X41580Y11916D01*
X41525Y11916D01*
X41525Y11309D01*
X41713Y11497D01*
X41713Y11916D01*
X41658Y11916D01*
D02*
G37*
G36*
X48336Y26373D02*
G74*
D01*
G03X48471Y26266I144J43*
G01*
X48471Y26266D01*
X48457Y26251D01*
X47865Y26251D01*
X47987Y26373D01*
X48336Y26373D01*
D02*
G37*
G36*
X41077Y10662D02*
X41077Y10662D01*
X41123Y10707D01*
X41123Y10738D01*
X41080Y10696D01*
G74*
D01*
G02X41077Y10662I280J8*
G01*
D02*
G37*
G36*
X48732Y28376D02*
X48732Y28376D01*
X48732Y28401D01*
G74*
D01*
G02X48714Y28402I6J279*
G01*
G74*
D01*
G02X48732Y28376I113J97*
G01*
D02*
G37*
G54D11*
X45241Y12362D02*
G75*
D01*
G02X45241Y12362I197J0*
G01*
X39965Y17638D02*
G75*
D01*
G02X39965Y17638I197J0*
G01*
G36*
X45241Y12362D02*
G75*
D01*
G02X45241Y12362I197J0*
G01*
D02*
G37*
G75*
D01*
G02X45241Y12362I197J0*
G01*
G36*
X39965Y17638D02*
G75*
D01*
G02X39965Y17638I197J0*
G01*
D02*
G37*
G75*
D01*
G02X39965Y17638I197J0*
G01*
G36*
X49446Y27873D02*
X49446Y27873D01*
X49543Y27776D01*
X49543Y26849D01*
X48520Y26849D01*
X48520Y27873D01*
X49446Y27873D01*
D02*
G37*
X49543Y27776D01*
X49543Y26849D01*
X48520Y26849D01*
X48520Y27873D01*
X49446Y27873D01*
G54D12*
X57208Y23047D02*
G75*
D01*
G02X57208Y23047I-627J-343*
G01*
X44900Y11599D02*
G75*
D01*
G02X44758Y11658I0J201*
G01*
X44528Y11888D01*
G74*
D01*
G02X44477Y11973I141J142*
G01*
X44477Y11043D01*
X44479Y11043D01*
G74*
D01*
G02X44714Y10808I0J235*
G01*
X44714Y10392D01*
G75*
D01*
G02X44626Y10209I-235J0*
G01*
X44626Y9191D01*
G74*
D01*
G02X44714Y9008I146J183*
G01*
X44714Y8592D01*
G75*
D01*
G02X44479Y8357I-235J0*
G01*
X44371Y8357D01*
G75*
D01*
G02X44136Y8592I0J235*
G01*
X44136Y8599D01*
X44060Y8599D01*
G75*
D01*
G02X43991Y8611I-1J201*
G01*
G74*
D01*
G02X43918Y8658I70J189*
G01*
X43796Y8780D01*
G75*
D01*
G02X44070Y9075I-6J280*
G01*
X44136Y9008D01*
X44136Y9008D01*
G74*
D01*
G02X44224Y9191I235J0*
G01*
X44224Y10209D01*
G75*
D01*
G02X44136Y10392I146J183*
G01*
X44136Y10604D01*
X44134Y10607D01*
G75*
D01*
G02X44075Y10749I141J142*
G01*
X44075Y11916D01*
X44020Y11916D01*
G75*
D01*
G02X43981Y11921I0J151*
G01*
G74*
D01*
G02X43942Y11916I39J146*
G01*
X43824Y11916D01*
G75*
D01*
G02X43784Y11921I-1J151*
G01*
G74*
D01*
G02X43745Y11916I39J146*
G01*
X43627Y11916D01*
G75*
D01*
G02X43489Y12006I0J151*
G01*
G74*
D01*
G02X43351Y11916I137J60*
G01*
X43233Y11916D01*
G75*
D01*
G02X43194Y11921I0J151*
G01*
G74*
D01*
G02X43154Y11916I39J146*
G01*
X43099Y11916D01*
X43099Y10873D01*
G75*
D01*
G02X43040Y10731I-201J0*
G01*
X42914Y10604D01*
X42914Y10392D01*
G75*
D01*
G02X42679Y10157I-235J0*
G01*
X42571Y10157D01*
G75*
D01*
G02X42336Y10392I0J235*
G01*
X42336Y10808D01*
G75*
D01*
G02X42571Y11043I235J0*
G01*
X42679Y11043D01*
G74*
D01*
G02X42697Y11042I4J235*
G01*
X42697Y11916D01*
X42643Y11916D01*
G75*
D01*
G02X42603Y11921I-1J151*
G01*
G74*
D01*
G02X42564Y11916I39J146*
G01*
X42446Y11916D01*
G75*
D01*
G02X42406Y11921I-1J151*
G01*
G74*
D01*
G02X42367Y11916I39J146*
G01*
X42249Y11916D01*
G75*
D01*
G02X42209Y11921I-1J151*
G01*
G74*
D01*
G02X42170Y11916I39J146*
G01*
X42115Y11916D01*
X42115Y11414D01*
G75*
D01*
G02X42056Y11272I-201J0*
G01*
X41801Y11017D01*
X41801Y10084D01*
X41808Y10084D01*
G74*
D01*
G02X42043Y9849I0J235*
G01*
X42043Y9741D01*
G75*
D01*
G02X42020Y9639I-235J-1*
G01*
X43348Y8311D01*
X52283Y8311D01*
G74*
D01*
G02X52425Y8252I0J201*
G01*
X54197Y6480D01*
G75*
D01*
G02X53913Y6196I155J-439*
G01*
X52199Y7909D01*
X43265Y7909D01*
G75*
D01*
G02X43123Y7968I0J201*
G01*
X42043Y9048D01*
X42043Y8991D01*
G75*
D01*
G02X41808Y8756I-235J0*
G01*
X41801Y8756D01*
X41801Y8264D01*
X41808Y8264D01*
G74*
D01*
G02X42043Y8029I0J235*
G01*
X42043Y7921D01*
G75*
D01*
G02X41808Y7686I-235J0*
G01*
X41392Y7686D01*
G75*
D01*
G02X41157Y7921I0J235*
G01*
X41157Y8029D01*
G75*
D01*
G02X41392Y8264I235J0*
G01*
X41399Y8264D01*
X41399Y8756D01*
X41392Y8756D01*
G75*
D01*
G02X41157Y8991I0J235*
G01*
X41157Y9099D01*
G75*
D01*
G02X41392Y9334I235J0*
G01*
X41757Y9334D01*
X41584Y9506D01*
X41392Y9506D01*
G75*
D01*
G02X41157Y9741I0J235*
G01*
X41157Y9849D01*
G75*
D01*
G02X41392Y10084I235J0*
G01*
X41399Y10084D01*
X41399Y10415D01*
X39176Y8192D01*
X39176Y7991D01*
G74*
D01*
G02X39264Y7808I146J183*
G01*
X39264Y7392D01*
G75*
D01*
G02X39176Y7209I-235J0*
G01*
X39176Y6508D01*
X40483Y5201D01*
X52229Y5201D01*
X52913Y5884D01*
G75*
D01*
G02X53197Y5600I439J155*
G01*
X52455Y4858D01*
G74*
D01*
G02X52313Y4799I142J141*
G01*
X40400Y4799D01*
G75*
D01*
G02X40258Y4858I0J201*
G01*
X38833Y6283D01*
G75*
D01*
G02X38774Y6425I141J142*
G01*
X38774Y7209D01*
G75*
D01*
G02X38686Y7392I146J183*
G01*
X38686Y7808D01*
G74*
D01*
G02X38774Y7991I235J0*
G01*
X38774Y8275D01*
G75*
D01*
G02X38833Y8417I201J0*
G01*
X40838Y10423D01*
G75*
D01*
G02X40522Y10663I-39J276*
G01*
X40479Y10620D01*
G75*
D01*
G02X40180Y10321I-278J-21*
G01*
X39264Y9404D01*
X39264Y9192D01*
G75*
D01*
G02X39029Y8957I-235J0*
G01*
X38921Y8957D01*
G75*
D01*
G02X38686Y9192I0J235*
G01*
X38686Y9608D01*
G75*
D01*
G02X38921Y9843I235J0*
G01*
X39029Y9843D01*
G74*
D01*
G02X39117Y9826I0J235*
G01*
X39922Y10631D01*
G74*
D01*
G02X40169Y10878I277J30*
G01*
X40729Y11438D01*
X40729Y12016D01*
G75*
D01*
G02X40720Y12067I141J51*
G01*
X40720Y12657D01*
G75*
D01*
G02X40871Y12808I151J0*
G01*
X40989Y12808D01*
G74*
D01*
G02X41028Y12803I0J151*
G01*
G75*
D01*
G02X41068Y12808I39J-146*
G01*
X41186Y12808D01*
G74*
D01*
G02X41225Y12803I0J151*
G01*
G75*
D01*
G02X41265Y12808I39J-146*
G01*
X41383Y12808D01*
G74*
D01*
G02X41422Y12803I0J151*
G01*
G75*
D01*
G02X41461Y12808I39J-146*
G01*
X41580Y12808D01*
G74*
D01*
G02X41619Y12803I0J151*
G01*
G75*
D01*
G02X41658Y12808I39J-146*
G01*
X41776Y12808D01*
G74*
D01*
G02X41816Y12803I1J151*
G01*
G75*
D01*
G02X41855Y12808I39J-146*
G01*
X41973Y12808D01*
G74*
D01*
G02X42013Y12803I1J151*
G01*
G75*
D01*
G02X42052Y12808I39J-146*
G01*
X42170Y12808D01*
G74*
D01*
G02X42209Y12803I0J151*
G01*
G75*
D01*
G02X42249Y12808I39J-146*
G01*
X42367Y12808D01*
G74*
D01*
G02X42406Y12803I0J151*
G01*
G75*
D01*
G02X42446Y12808I39J-146*
G01*
X42564Y12808D01*
G74*
D01*
G02X42603Y12803I0J151*
G01*
G75*
D01*
G02X42643Y12808I39J-146*
G01*
X42761Y12808D01*
G74*
D01*
G02X42800Y12803I0J151*
G01*
G75*
D01*
G02X42839Y12808I39J-146*
G01*
X42957Y12808D01*
G74*
D01*
G02X42997Y12803I1J151*
G01*
G75*
D01*
G02X43036Y12808I39J-146*
G01*
X43154Y12808D01*
G74*
D01*
G02X43194Y12803I1J151*
G01*
G75*
D01*
G02X43233Y12808I39J-146*
G01*
X43351Y12808D01*
G74*
D01*
G02X43489Y12719I0J151*
G01*
G75*
D01*
G02X43627Y12808I138J-62*
G01*
X43745Y12808D01*
G74*
D01*
G02X43784Y12803I0J151*
G01*
G75*
D01*
G02X43824Y12808I39J-146*
G01*
X43942Y12808D01*
G74*
D01*
G02X43981Y12803I0J151*
G01*
G75*
D01*
G02X44020Y12808I39J-146*
G01*
X44139Y12808D01*
G74*
D01*
G02X44178Y12803I0J151*
G01*
G75*
D01*
G02X44217Y12808I39J-146*
G01*
X44335Y12808D01*
G74*
D01*
G02X44473Y12719I0J151*
G01*
G75*
D01*
G02X44611Y12808I138J-62*
G01*
X44729Y12808D01*
G74*
D01*
G02X44880Y12657I0J151*
G01*
X44880Y12104D01*
X44983Y12001D01*
X45575Y12001D01*
G74*
D01*
G02X45717Y11942I0J201*
G01*
X46596Y11064D01*
X46808Y11064D01*
G74*
D01*
G02X47043Y10829I0J235*
G01*
X47043Y10721D01*
G75*
D01*
G02X46808Y10486I-235J0*
G01*
X46392Y10486D01*
G75*
D01*
G02X46157Y10721I0J235*
G01*
X46157Y10829D01*
G74*
D01*
G02X46174Y10917I235J0*
G01*
X45492Y11599D01*
X44900Y11599D01*
X54256Y15415D02*
G75*
D01*
G02X54256Y15415I103J-455*
G01*
X49646Y23047D02*
G75*
D01*
G02X49646Y23047I627J-343*
G01*
X43937Y18522D02*
X44807Y19391D01*
X44899Y19483D01*
X44899Y23105D01*
G75*
D01*
G02X45096Y23580I201J195*
G01*
X46715Y25199D01*
X46695Y25199D01*
G75*
D01*
G02X46669Y25623I-195J201*
G01*
X47090Y26044D01*
X47090Y26044D01*
G75*
D01*
G02X47100Y26446I-190J206*
G01*
X47162Y26446D01*
X47597Y26881D01*
G74*
D01*
G02X47527Y26927I73J187*
G01*
X47505Y26949D01*
X47098Y26949D01*
G75*
D01*
G02X47015Y27450I-156J232*
G01*
X46902Y27563D01*
X46552Y27563D01*
G75*
D01*
G02X46317Y27797I-1J234*
G01*
X46317Y27906D01*
G75*
D01*
G02X46552Y28140I235J-1*
G01*
X46968Y28140D01*
G74*
D01*
G02X47203Y27916I1J234*
G01*
X47428Y27691D01*
X47909Y27691D01*
G74*
D01*
G02X47885Y27711I116J163*
G01*
X47671Y27925D01*
G75*
D01*
G02X47462Y27939I-91J212*
G01*
G74*
D01*
G02X47334Y28057I20J150*
G01*
X47059Y28331D01*
G74*
D01*
G02X46968Y28313I90J216*
G01*
X46552Y28313D01*
G75*
D01*
G02X46317Y28547I-1J234*
G01*
X46317Y28656D01*
G75*
D01*
G02X46552Y28890I235J-1*
G01*
X46968Y28890D01*
G74*
D01*
G02X47122Y28833I1J234*
G01*
G74*
D01*
G02X47280Y28765I6J231*
G01*
X47706Y28339D01*
X47742Y28339D01*
G74*
D01*
G02X47885Y28280I1J201*
G01*
X48101Y28063D01*
X48330Y28063D01*
X48330Y28306D01*
G75*
D01*
G02X48480Y28457I150J1*
G01*
X48581Y28457D01*
G75*
D01*
G02X48473Y28719I168J223*
G01*
X48060Y28719D01*
G75*
D01*
G02X47998Y28732I-1J151*
G01*
G75*
D01*
G02X47909Y28873I62J138*
G01*
X47917Y29269D01*
X47320Y29269D01*
G75*
D01*
G02X47169Y29420I0J151*
G01*
X47169Y30080D01*
G75*
D01*
G02X47320Y30231I151J0*
G01*
X48300Y30231D01*
G74*
D01*
G02X48451Y30080I0J151*
G01*
X48451Y29860D01*
G75*
D01*
G02X48499Y29857I7J-280*
G01*
G75*
D01*
G02X48603Y29898I103J-109*
G01*
X48937Y29898D01*
G74*
D01*
G02X48983Y29891I1J150*
G01*
X48983Y30161D01*
G74*
D01*
G02X49026Y30266I151J1*
G01*
G75*
D01*
G02X49559Y30282I264J93*
G01*
G74*
D01*
G02X49620Y30161I89J121*
G01*
X49620Y29866D01*
G75*
D01*
G02X49469Y29715I-151J0*
G01*
X49134Y29715D01*
G75*
D01*
G02X49088Y29722I-1J151*
G01*
X49088Y29452D01*
G75*
D01*
G02X49086Y29431I-151J4*
G01*
X49669Y29431D01*
X49669Y30060D01*
G75*
D01*
G02X49820Y30211I151J0*
G01*
X51060Y30211D01*
G74*
D01*
G02X51211Y30060I0J151*
G01*
X51211Y29180D01*
G75*
D01*
G02X51061Y29029I-151J0*
G01*
X50076Y29021D01*
X50079Y28929D01*
X50151Y28929D01*
G74*
D01*
G02X50302Y28778I0J151*
G01*
X50302Y28700D01*
G74*
D01*
G02X50303Y28680I199J20*
G01*
X50303Y28340D01*
G75*
D01*
G02X50280Y28246I-201J-1*
G01*
G75*
D01*
G02X50280Y28239I-280J-3*
G01*
G74*
D01*
G02X50292Y28241I31J148*
G01*
G75*
D01*
G02X50410Y28273I117J-199*
G01*
X51024Y28273D01*
G74*
D01*
G02X51130Y28248I1J231*
G01*
G74*
D01*
G02X51279Y28097I2J151*
G01*
X51279Y27999D01*
G75*
D01*
G02X51278Y27983I-151J1*
G01*
X51351Y27983D01*
X51351Y28050D01*
G74*
D01*
G02X51384Y28168I231J1*
G01*
G75*
D01*
G02X51533Y28299I149J-19*
G01*
X51631Y28299D01*
G74*
D01*
G02X51730Y28262I0J151*
G01*
G75*
D01*
G02X51829Y28299I99J-113*
G01*
X51927Y28299D01*
G74*
D01*
G02X52076Y28168I1J151*
G01*
G74*
D01*
G02X52109Y28050I197J119*
G01*
X52109Y27982D01*
G75*
D01*
G02X52130Y27983I21J-229*
G01*
X52266Y27983D01*
G75*
D01*
G02X52333Y27999I67J-134*
G01*
X52431Y27999D01*
G74*
D01*
G02X52530Y27962I0J151*
G01*
G75*
D01*
G02X52629Y27999I99J-113*
G01*
X52727Y27999D01*
G74*
D01*
G02X52780Y27990I2J151*
G01*
G75*
D01*
G02X52833Y27999I51J-142*
G01*
X52931Y27999D01*
G74*
D01*
G02X53030Y27962I0J151*
G01*
G75*
D01*
G02X53129Y27999I99J-113*
G01*
X53227Y27999D01*
G74*
D01*
G02X53299Y27981I1J151*
G01*
X53398Y27981D01*
G75*
D01*
G02X53430Y27983I30J-229*
G01*
X53638Y27983D01*
G75*
D01*
G02X53704Y27995I66J-177*
G01*
X53940Y27995D01*
G74*
D01*
G02X54130Y27805I0J190*
G01*
X54130Y27687D01*
G75*
D01*
G02X53940Y27496I-190J-1*
G01*
X53704Y27496D01*
G75*
D01*
G02X53610Y27521I0J191*
G01*
X53460Y27521D01*
G74*
D01*
G02X53428Y27519I30J229*
G01*
X53299Y27519D01*
G74*
D01*
G02X53227Y27501I71J133*
G01*
X53129Y27501D01*
G75*
D01*
G02X53030Y27538I0J151*
G01*
G74*
D01*
G02X52931Y27501I99J113*
G01*
X52833Y27501D01*
G75*
D01*
G02X52780Y27510I-2J151*
G01*
G74*
D01*
G02X52727Y27501I51J142*
G01*
X52629Y27501D01*
G75*
D01*
G02X52530Y27538I0J151*
G01*
G74*
D01*
G02X52431Y27501I99J113*
G01*
X52333Y27501D01*
G75*
D01*
G02X52258Y27521I0J151*
G01*
X52160Y27521D01*
G74*
D01*
G02X52128Y27519I30J229*
G01*
X51999Y27519D01*
G74*
D01*
G02X51927Y27501I71J133*
G01*
X51829Y27501D01*
G75*
D01*
G02X51730Y27538I0J151*
G01*
G74*
D01*
G02X51689Y27512I100J112*
G01*
X51736Y27465D01*
X53622Y27465D01*
G75*
D01*
G02X53704Y27483I81J-172*
G01*
X53940Y27483D01*
G74*
D01*
G02X54130Y27293I0J190*
G01*
X54130Y27175D01*
G75*
D01*
G02X53940Y26985I-190J0*
G01*
X53704Y26985D01*
G75*
D01*
G02X53622Y27003I-1J190*
G01*
X51640Y27003D01*
X51640Y27003D01*
X51635Y27003D01*
G75*
D01*
G02X51447Y27100I0J231*
G01*
X51330Y27217D01*
X51322Y27217D01*
G75*
D01*
G02X51290Y27219I-2J231*
G01*
X51202Y27219D01*
G74*
D01*
G02X51130Y27201I71J133*
G01*
X51032Y27201D01*
G75*
D01*
G02X51000Y27204I-2J151*
G01*
G75*
D01*
G02X50974Y27032I-225J-54*
G01*
G74*
D01*
G02X50824Y26901I150J20*
G01*
X50726Y26901D01*
G75*
D01*
G02X50635Y26931I-1J151*
G01*
X50522Y26931D01*
G75*
D01*
G02X50403Y26964I0J231*
G01*
G74*
D01*
G02X50290Y27042I19J149*
G01*
X50076Y27042D01*
G74*
D01*
G02X50127Y26928I100J113*
G01*
X50127Y26810D01*
G75*
D01*
G02X50020Y26666I-151J0*
G01*
X50020Y24789D01*
G75*
D01*
G02X49961Y24647I-201J0*
G01*
X48440Y23126D01*
X48440Y17544D01*
G75*
D01*
G02X48204Y17120I-238J-145*
G01*
X46238Y15153D01*
G74*
D01*
G02X46095Y15094I142J142*
G01*
X45884Y15094D01*
X45884Y15039D01*
G75*
D01*
G02X45879Y15000I-151J0*
G01*
G74*
D01*
G02X45884Y14961I146J39*
G01*
X45884Y14843D01*
G75*
D01*
G02X45879Y14803I-151J-1*
G01*
G74*
D01*
G02X45884Y14764I146J39*
G01*
X45884Y14646D01*
G75*
D01*
G02X45879Y14606I-151J-1*
G01*
G74*
D01*
G02X45884Y14567I146J39*
G01*
X45884Y14449D01*
G75*
D01*
G02X45879Y14409I-151J-1*
G01*
G74*
D01*
G02X45884Y14370I146J39*
G01*
X45884Y14252D01*
G75*
D01*
G02X45879Y14213I-151J0*
G01*
G74*
D01*
G02X45884Y14173I146J39*
G01*
X45884Y14168D01*
X46303Y14587D01*
G74*
D01*
G02X46418Y14644I142J141*
G01*
G75*
D01*
G02X46445Y14646I28J-198*
G01*
X48712Y14646D01*
X51559Y17493D01*
X51559Y25065D01*
G75*
D01*
G02X51961Y25065I201J195*
G01*
X51961Y17410D01*
G75*
D01*
G02X51902Y17268I-201J0*
G01*
X48937Y14303D01*
G74*
D01*
G02X48811Y14245I141J141*
G01*
G75*
D01*
G02X48795Y14244I-20J199*
G01*
X46528Y14244D01*
X46206Y13921D01*
X46248Y13921D01*
G75*
D01*
G02X46458Y13523I251J-122*
G01*
G74*
D01*
G02X46420Y13520I35J197*
G01*
X45884Y13520D01*
X45884Y13465D01*
G75*
D01*
G02X45879Y13425I-151J-1*
G01*
G74*
D01*
G02X45884Y13386I146J39*
G01*
X45884Y13268D01*
G75*
D01*
G02X45879Y13228I-151J-1*
G01*
G74*
D01*
G02X45884Y13189I146J39*
G01*
X45884Y13071D01*
G75*
D01*
G02X45733Y12920I-151J0*
G01*
X45143Y12920D01*
G75*
D01*
G02X44992Y13071I0J151*
G01*
X44992Y13189D01*
G74*
D01*
G02X44997Y13228I151J0*
G01*
G75*
D01*
G02X44992Y13268I146J39*
G01*
X44992Y13386D01*
G74*
D01*
G02X44997Y13425I151J0*
G01*
G75*
D01*
G02X44992Y13465I146J39*
G01*
X44992Y13583D01*
G74*
D01*
G02X44997Y13622I151J0*
G01*
G75*
D01*
G02X44992Y13661I146J39*
G01*
X44992Y13780D01*
G74*
D01*
G02X44997Y13819I151J0*
G01*
G75*
D01*
G02X44992Y13858I146J39*
G01*
X44992Y13976D01*
G74*
D01*
G02X44997Y14016I151J1*
G01*
G75*
D01*
G02X44992Y14055I146J39*
G01*
X44992Y14173D01*
G74*
D01*
G02X44997Y14213I151J1*
G01*
G75*
D01*
G02X44992Y14252I146J39*
G01*
X44992Y14370D01*
G74*
D01*
G02X44997Y14409I151J0*
G01*
G75*
D01*
G02X44992Y14449I146J39*
G01*
X44992Y14567D01*
G74*
D01*
G02X44997Y14606I151J0*
G01*
G75*
D01*
G02X44992Y14646I146J39*
G01*
X44992Y14764D01*
G74*
D01*
G02X44997Y14803I151J0*
G01*
G75*
D01*
G02X44992Y14843I146J39*
G01*
X44992Y14961D01*
G74*
D01*
G02X44997Y15000I151J0*
G01*
G75*
D01*
G02X44992Y15039I146J39*
G01*
X44992Y15157D01*
G74*
D01*
G02X44997Y15197I151J1*
G01*
G75*
D01*
G02X44992Y15236I146J39*
G01*
X44992Y15354D01*
G74*
D01*
G02X44997Y15394I151J1*
G01*
G75*
D01*
G02X44992Y15433I146J39*
G01*
X44992Y15551D01*
G74*
D01*
G02X44997Y15591I151J1*
G01*
G75*
D01*
G02X44992Y15630I146J39*
G01*
X44992Y15748D01*
G74*
D01*
G02X44997Y15787I151J0*
G01*
G75*
D01*
G02X44992Y15827I146J39*
G01*
X44992Y15945D01*
G74*
D01*
G02X44997Y15984I151J0*
G01*
G75*
D01*
G02X44992Y16024I146J39*
G01*
X44992Y16142D01*
G74*
D01*
G02X44997Y16181I151J0*
G01*
G75*
D01*
G02X44992Y16220I146J39*
G01*
X44992Y16339D01*
G74*
D01*
G02X44997Y16378I151J0*
G01*
G75*
D01*
G02X44992Y16417I146J39*
G01*
X44992Y16535D01*
G74*
D01*
G02X44997Y16575I151J1*
G01*
G75*
D01*
G02X44992Y16614I146J39*
G01*
X44992Y16732D01*
G74*
D01*
G02X44997Y16772I151J1*
G01*
G75*
D01*
G02X44992Y16811I146J39*
G01*
X44992Y16929D01*
G75*
D01*
G02X45143Y17080I151J0*
G01*
X45696Y17080D01*
X46120Y17504D01*
G74*
D01*
G02X46396Y17780I280J4*
G01*
X46699Y18083D01*
X46699Y23310D01*
G75*
D01*
G02X46758Y23452I201J0*
G01*
X48520Y25214D01*
X48198Y25214D01*
X47280Y24296D01*
G74*
D01*
G02X47004Y24020I280J4*
G01*
X46601Y23617D01*
X46601Y19800D01*
G75*
D01*
G02X46542Y19658I-201J0*
G01*
X44871Y17987D01*
X44871Y17984D01*
G74*
D01*
G02X44880Y17933I141J51*
G01*
X44880Y17343D01*
G75*
D01*
G02X44729Y17192I-151J0*
G01*
X44611Y17192D01*
G75*
D01*
G02X44572Y17197I0J151*
G01*
G74*
D01*
G02X44532Y17192I39J146*
G01*
X44414Y17192D01*
G75*
D01*
G02X44375Y17197I0J151*
G01*
G74*
D01*
G02X44335Y17192I39J146*
G01*
X44217Y17192D01*
G75*
D01*
G02X44178Y17197I0J151*
G01*
G74*
D01*
G02X44139Y17192I39J146*
G01*
X44020Y17192D01*
G75*
D01*
G02X43981Y17197I0J151*
G01*
G74*
D01*
G02X43942Y17192I39J146*
G01*
X43824Y17192D01*
G75*
D01*
G02X43784Y17197I-1J151*
G01*
G74*
D01*
G02X43745Y17192I39J146*
G01*
X43627Y17192D01*
G75*
D01*
G02X43587Y17197I-1J151*
G01*
G74*
D01*
G02X43548Y17192I39J146*
G01*
X43430Y17192D01*
G75*
D01*
G02X43391Y17197I0J151*
G01*
G74*
D01*
G02X43351Y17192I39J146*
G01*
X43233Y17192D01*
G75*
D01*
G02X43095Y17281I0J151*
G01*
G74*
D01*
G02X42957Y17192I138J62*
G01*
X42839Y17192D01*
G75*
D01*
G02X42800Y17197I0J151*
G01*
G74*
D01*
G02X42761Y17192I39J146*
G01*
X42643Y17192D01*
G75*
D01*
G02X42603Y17197I-1J151*
G01*
G74*
D01*
G02X42564Y17192I39J146*
G01*
X42446Y17192D01*
G75*
D01*
G02X42406Y17197I-1J151*
G01*
G74*
D01*
G02X42367Y17192I39J146*
G01*
X42249Y17192D01*
G75*
D01*
G02X42209Y17197I-1J151*
G01*
G74*
D01*
G02X42170Y17192I39J146*
G01*
X42052Y17192D01*
G75*
D01*
G02X42013Y17197I0J151*
G01*
G74*
D01*
G02X41973Y17192I39J146*
G01*
X41855Y17192D01*
G75*
D01*
G02X41816Y17197I0J151*
G01*
G74*
D01*
G02X41776Y17192I39J146*
G01*
X41658Y17192D01*
G75*
D01*
G02X41619Y17197I0J151*
G01*
G74*
D01*
G02X41580Y17192I39J146*
G01*
X41461Y17192D01*
G75*
D01*
G02X41422Y17197I0J151*
G01*
G74*
D01*
G02X41383Y17192I39J146*
G01*
X41265Y17192D01*
G75*
D01*
G02X41225Y17197I-1J151*
G01*
G74*
D01*
G02X41186Y17192I39J146*
G01*
X41068Y17192D01*
G75*
D01*
G02X41028Y17197I-1J151*
G01*
G74*
D01*
G02X40989Y17192I39J146*
G01*
X40871Y17192D01*
G75*
D01*
G02X40720Y17343I0J151*
G01*
X40720Y17933D01*
G75*
D01*
G02X40871Y18084I151J0*
G01*
X40926Y18084D01*
X40926Y18090D01*
X40817Y18199D01*
X39464Y18199D01*
X39464Y18192D01*
G75*
D01*
G02X39229Y17957I-235J0*
G01*
X39121Y17957D01*
G75*
D01*
G02X38886Y18192I0J235*
G01*
X38886Y18608D01*
G75*
D01*
G02X39121Y18843I235J0*
G01*
X39229Y18843D01*
G74*
D01*
G02X39464Y18608I0J235*
G01*
X39464Y18601D01*
X40900Y18601D01*
G75*
D01*
G02X40950Y18595I1J-201*
G01*
G74*
D01*
G02X41042Y18542I51J194*
G01*
X41269Y18316D01*
G74*
D01*
G02X41328Y18173I142J142*
G01*
X41328Y18084D01*
X41383Y18084D01*
G74*
D01*
G02X41422Y18079I0J151*
G01*
G75*
D01*
G02X41461Y18084I39J-146*
G01*
X41516Y18084D01*
X41516Y18599D01*
X39817Y20299D01*
X39464Y20299D01*
X39464Y20292D01*
G75*
D01*
G02X39229Y20057I-235J0*
G01*
X39121Y20057D01*
G75*
D01*
G02X38886Y20292I0J235*
G01*
X38886Y20708D01*
G75*
D01*
G02X39121Y20943I235J0*
G01*
X39229Y20943D01*
G74*
D01*
G02X39464Y20708I0J235*
G01*
X39464Y20701D01*
X39900Y20701D01*
G74*
D01*
G02X40042Y20642I0J201*
G01*
X41859Y18825D01*
G74*
D01*
G02X41918Y18683I141J142*
G01*
X41918Y18084D01*
X41973Y18084D01*
G74*
D01*
G02X42013Y18079I1J151*
G01*
G75*
D01*
G02X42052Y18084I39J-146*
G01*
X42107Y18084D01*
X42107Y19809D01*
X39517Y22399D01*
X39464Y22399D01*
X39464Y22392D01*
G75*
D01*
G02X39229Y22157I-235J0*
G01*
X39121Y22157D01*
G75*
D01*
G02X38886Y22392I0J235*
G01*
X38886Y22808D01*
G75*
D01*
G02X39121Y23043I235J0*
G01*
X39229Y23043D01*
G74*
D01*
G02X39464Y22808I0J235*
G01*
X39464Y22801D01*
X39600Y22801D01*
G74*
D01*
G02X39742Y22742I0J201*
G01*
X42304Y20180D01*
X42304Y23714D01*
X41827Y24191D01*
G75*
D01*
G02X40856Y25161I-344J627*
G01*
X40367Y25650D01*
X39606Y25650D01*
G74*
D01*
G02X39369Y25357I451J122*
G01*
G74*
D01*
G02X39623Y24941I213J416*
G01*
X39623Y24784D01*
G75*
D01*
G02X39155Y24317I-468J1*
G01*
X38841Y24317D01*
G75*
D01*
G02X38373Y24784I-1J467*
G01*
X38373Y24941D01*
G74*
D01*
G02X38627Y25357I468J0*
G01*
G75*
D01*
G02X38373Y25772I212J415*
G01*
X38373Y25930D01*
G74*
D01*
G02X38627Y26345I468J1*
G01*
G75*
D01*
G02X38373Y26761I213J416*
G01*
X38373Y26918D01*
G74*
D01*
G02X38627Y27334I468J0*
G01*
G75*
D01*
G02X38373Y27750I213J416*
G01*
X38373Y27907D01*
G74*
D01*
G02X38627Y28323I468J0*
G01*
G75*
D01*
G02X38373Y28738I212J415*
G01*
X38373Y28896D01*
G75*
D01*
G02X38841Y29363I468J-1*
G01*
X39155Y29363D01*
G74*
D01*
G02X39623Y28896I1J467*
G01*
X39623Y28738D01*
G75*
D01*
G02X39369Y28323I-468J1*
G01*
G74*
D01*
G02X39606Y28029I214J415*
G01*
X40801Y28029D01*
G75*
D01*
G02X42113Y27482I682J-211*
G01*
X42843Y26751D01*
G74*
D01*
G02X42903Y26609I140J143*
G01*
X42903Y18962D01*
X43336Y19396D01*
X43336Y19608D01*
G74*
D01*
G02X43399Y19768I235J0*
G01*
X43399Y20205D01*
G75*
D01*
G02X43801Y20205I201J195*
G01*
X43801Y19809D01*
G74*
D01*
G02X43914Y19608I122J201*
G01*
X43914Y19192D01*
G75*
D01*
G02X43679Y18957I-235J0*
G01*
X43571Y18957D01*
G75*
D01*
G02X43483Y18974I0J235*
G01*
X43099Y18590D01*
X43099Y18003D01*
G75*
D01*
G02X43233Y18084I134J-70*
G01*
X43351Y18084D01*
G74*
D01*
G02X43391Y18079I1J151*
G01*
G75*
D01*
G02X43430Y18084I39J-146*
G01*
X43548Y18084D01*
G74*
D01*
G02X43587Y18079I0J151*
G01*
G75*
D01*
G02X43627Y18084I39J-146*
G01*
X43745Y18084D01*
G74*
D01*
G02X43784Y18079I0J151*
G01*
G75*
D01*
G02X43824Y18084I39J-146*
G01*
X43879Y18084D01*
X43879Y18379D01*
G75*
D01*
G02X43937Y18522I201J2*
G01*
X54054Y23047D02*
G75*
D01*
G02X54054Y23047I-627J-343*
G01*
X39716Y13583D02*
G74*
D01*
G02X39721Y13622I151J0*
G01*
G75*
D01*
G02X39716Y13661I146J39*
G01*
X39716Y13716D01*
X39521Y13716D01*
X39402Y13598D01*
X38601Y12797D01*
X38601Y12264D01*
X38608Y12264D01*
G74*
D01*
G02X38843Y12029I0J235*
G01*
X38843Y11921D01*
G75*
D01*
G02X38608Y11686I-235J0*
G01*
X38192Y11686D01*
G75*
D01*
G02X38009Y11774I0J235*
G01*
X36791Y11774D01*
G74*
D01*
G02X36608Y11686I183J146*
G01*
X36192Y11686D01*
G75*
D01*
G02X36009Y11774I0J235*
G01*
X35725Y11774D01*
G75*
D01*
G02X35583Y11833I0J201*
G01*
X34558Y12858D01*
G75*
D01*
G02X34499Y13000I141J142*
G01*
X34499Y13005D01*
G75*
D01*
G02X34503Y13399I201J195*
G01*
X31800Y13399D01*
G75*
D01*
G02X31658Y13458I0J201*
G01*
X30383Y14733D01*
G75*
D01*
G02X30324Y14875I141J142*
G01*
X30324Y15813D01*
G75*
D01*
G02X30726Y15813I201J420*
G01*
X30726Y14958D01*
X31026Y14658D01*
G75*
D01*
G02X31580Y14604I274J-58*
G01*
X31923Y14262D01*
G75*
D01*
G02X32395Y14501I276J40*
G01*
X32503Y14501D01*
G75*
D01*
G02X32895Y14901I196J200*
G01*
X38915Y14901D01*
X38867Y14949D01*
X35050Y14949D01*
G75*
D01*
G02X34908Y15008I0J201*
G01*
X34458Y15458D01*
G75*
D01*
G02X34399Y15600I141J142*
G01*
X34399Y17317D01*
X33617Y18099D01*
X31674Y18099D01*
X30965Y17390D01*
G75*
D01*
G02X30681Y17674I-439J-155*
G01*
X31449Y18442D01*
G75*
D01*
G02X31591Y18501I142J-141*
G01*
X33700Y18501D01*
G74*
D01*
G02X33842Y18442I0J201*
G01*
X34742Y17542D01*
G74*
D01*
G02X34801Y17400I141J142*
G01*
X34801Y15683D01*
X35133Y15351D01*
X38950Y15351D01*
G74*
D01*
G02X39092Y15292I0J201*
G01*
X39282Y15103D01*
X39716Y15103D01*
X39716Y15157D01*
G74*
D01*
G02X39721Y15197I151J1*
G01*
G75*
D01*
G02X39716Y15236I146J39*
G01*
X39716Y15354D01*
G74*
D01*
G02X39797Y15488I151J0*
G01*
X39611Y15488D01*
G75*
D01*
G02X39469Y15547I0J201*
G01*
X38707Y16308D01*
G74*
D01*
G02X38608Y16286I99J212*
G01*
X38192Y16286D01*
G75*
D01*
G02X37957Y16521I0J235*
G01*
X37957Y16629D01*
G75*
D01*
G02X38192Y16864I235J0*
G01*
X38608Y16864D01*
G74*
D01*
G02X38803Y16760I0J235*
G01*
G74*
D01*
G02X38867Y16717I77J184*
G01*
X39199Y16385D01*
X39199Y16417D01*
X38517Y17099D01*
X36983Y17099D01*
X36720Y16836D01*
G74*
D01*
G02X36843Y16629I112J207*
G01*
X36843Y16521D01*
G75*
D01*
G02X36608Y16286I-235J0*
G01*
X36192Y16286D01*
G75*
D01*
G02X35957Y16521I0J235*
G01*
X35957Y16629D01*
G75*
D01*
G02X36192Y16864I235J0*
G01*
X36209Y16864D01*
G74*
D01*
G02X36258Y16942I190J65*
G01*
X36758Y17442D01*
G75*
D01*
G02X36900Y17501I142J-141*
G01*
X38600Y17501D01*
G74*
D01*
G02X38742Y17442I0J201*
G01*
X39542Y16642D01*
G74*
D01*
G02X39601Y16500I141J142*
G01*
X39601Y16283D01*
X39718Y16166D01*
G74*
D01*
G02X39721Y16181I148J22*
G01*
G75*
D01*
G02X39716Y16220I146J39*
G01*
X39716Y16339D01*
G74*
D01*
G02X39721Y16378I151J0*
G01*
G75*
D01*
G02X39716Y16417I146J39*
G01*
X39716Y16535D01*
G74*
D01*
G02X39721Y16575I151J1*
G01*
G75*
D01*
G02X39716Y16614I146J39*
G01*
X39716Y16732D01*
G75*
D01*
G02X39867Y16883I151J0*
G01*
X40457Y16883D01*
G74*
D01*
G02X40608Y16732I0J151*
G01*
X40608Y16614D01*
G75*
D01*
G02X40603Y16575I-151J0*
G01*
G74*
D01*
G02X40608Y16535I146J39*
G01*
X40608Y16417D01*
G75*
D01*
G02X40603Y16378I-151J0*
G01*
G74*
D01*
G02X40608Y16339I146J39*
G01*
X40608Y16220D01*
G75*
D01*
G02X40603Y16181I-151J0*
G01*
G74*
D01*
G02X40608Y16142I146J39*
G01*
X40608Y16024D01*
G75*
D01*
G02X40603Y15984I-151J-1*
G01*
G74*
D01*
G02X40608Y15945I146J39*
G01*
X40608Y15827D01*
G75*
D01*
G02X40603Y15787I-151J-1*
G01*
G74*
D01*
G02X40608Y15748I146J39*
G01*
X40608Y15630D01*
G75*
D01*
G02X40519Y15492I-151J0*
G01*
G74*
D01*
G02X40608Y15354I62J138*
G01*
X40608Y15236D01*
G75*
D01*
G02X40603Y15197I-151J0*
G01*
G74*
D01*
G02X40608Y15157I146J39*
G01*
X40608Y15039D01*
G75*
D01*
G02X40603Y15000I-151J0*
G01*
G74*
D01*
G02X40608Y14961I146J39*
G01*
X40608Y14843D01*
G75*
D01*
G02X40603Y14803I-151J-1*
G01*
G74*
D01*
G02X40608Y14764I146J39*
G01*
X40608Y14646D01*
G75*
D01*
G02X40603Y14606I-151J-1*
G01*
G74*
D01*
G02X40608Y14567I146J39*
G01*
X40608Y14449D01*
G75*
D01*
G02X40603Y14409I-151J-1*
G01*
G74*
D01*
G02X40608Y14370I146J39*
G01*
X40608Y14252D01*
G75*
D01*
G02X40603Y14213I-151J0*
G01*
G74*
D01*
G02X40608Y14173I146J39*
G01*
X40608Y14055D01*
G75*
D01*
G02X40603Y14016I-151J0*
G01*
G74*
D01*
G02X40608Y13976I146J39*
G01*
X40608Y13858D01*
G75*
D01*
G02X40603Y13819I-151J0*
G01*
G74*
D01*
G02X40608Y13780I146J39*
G01*
X40608Y13661D01*
G75*
D01*
G02X40603Y13622I-151J0*
G01*
G74*
D01*
G02X40608Y13583I146J39*
G01*
X40608Y13465D01*
G75*
D01*
G02X40603Y13425I-151J-1*
G01*
G74*
D01*
G02X40608Y13386I146J39*
G01*
X40608Y13268D01*
G75*
D01*
G02X40603Y13228I-151J-1*
G01*
G74*
D01*
G02X40608Y13189I146J39*
G01*
X40608Y13071D01*
G75*
D01*
G02X40457Y12920I-151J0*
G01*
X39867Y12920D01*
G75*
D01*
G02X39716Y13071I0J151*
G01*
X39716Y13189D01*
G74*
D01*
G02X39721Y13228I151J0*
G01*
G75*
D01*
G02X39716Y13268I146J39*
G01*
X39716Y13386D01*
G74*
D01*
G02X39721Y13425I151J0*
G01*
G75*
D01*
G02X39716Y13465I146J39*
G01*
X39716Y13583D01*
X48750Y6500D02*
G75*
D01*
G02X48750Y6500I650J0*
G01*
X51901Y6144D02*
G75*
D01*
G02X52249Y6492I348J0*
G01*
X52457Y6492D01*
G74*
D01*
G02X52804Y6144I1J348*
G01*
X52804Y5936D01*
G75*
D01*
G02X52457Y5588I-347J-1*
G01*
X52249Y5588D01*
G75*
D01*
G02X51901Y5936I0J348*
G01*
X51901Y6144D01*
X56750Y6500D02*
G75*
D01*
G02X56750Y6500I650J0*
G01*
X54886Y6040D02*
G75*
D01*
G02X54886Y6040I467J0*
G01*
X49570Y19895D02*
G75*
D01*
G02X49570Y19895I715J0*
G01*
X55892Y14960D02*
G75*
D01*
G02X55892Y14960I467J0*
G01*
X56892Y14960D02*
G75*
D01*
G02X56892Y14960I467J0*
G01*
X55848Y19895D02*
G75*
D01*
G02X55848Y19895I715J0*
G01*
X45091Y12362D02*
G75*
D01*
G02X45091Y12362I347J0*
G01*
X49907Y15064D02*
G75*
D01*
G02X50255Y15412I348J0*
G01*
X50463Y15412D01*
G74*
D01*
G02X50811Y15064I0J348*
G01*
X50811Y14856D01*
G75*
D01*
G02X50463Y14508I-348J0*
G01*
X50255Y14508D01*
G75*
D01*
G02X49907Y14856I0J348*
G01*
X49907Y15064D01*
X50892Y14960D02*
G75*
D01*
G02X50892Y14960I467J0*
G01*
X51892Y14960D02*
G75*
D01*
G02X51892Y14960I467J0*
G01*
X52709Y19895D02*
G75*
D01*
G02X52709Y19895I715J0*
G01*
X53199Y16105D02*
G75*
D01*
G02X53601Y16105I201J195*
G01*
X53601Y15359D01*
G75*
D01*
G02X53199Y15398I-242J-399*
G01*
X53199Y16105D01*
X27704Y9100D02*
G75*
D01*
G02X28106Y9110I196J200*
G01*
X28106Y8295D01*
G75*
D01*
G02X27704Y8295I-201J-685*
G01*
X27704Y9100D01*
X37595Y9601D02*
X37936Y9601D01*
X37936Y9608D01*
G75*
D01*
G02X38171Y9843I235J0*
G01*
X38199Y9843D01*
X38199Y10936D01*
X38192Y10936D01*
G75*
D01*
G02X37957Y11171I0J235*
G01*
X37957Y11279D01*
G75*
D01*
G02X38192Y11514I235J0*
G01*
X38608Y11514D01*
G74*
D01*
G02X38843Y11279I0J235*
G01*
X38843Y11171D01*
G75*
D01*
G02X38608Y10936I-235J0*
G01*
X38601Y10936D01*
X38601Y9575D01*
G75*
D01*
G02X38542Y9433I-201J0*
G01*
X38514Y9404D01*
X38514Y9192D01*
G75*
D01*
G02X38426Y9009I-235J0*
G01*
X38426Y7991D01*
G74*
D01*
G02X38514Y7808I146J183*
G01*
X38514Y7392D01*
G75*
D01*
G02X38279Y7157I-235J0*
G01*
X38171Y7157D01*
G75*
D01*
G02X37936Y7392I0J235*
G01*
X37936Y7808D01*
G74*
D01*
G02X38024Y7991I235J0*
G01*
X38024Y9009D01*
G75*
D01*
G02X37936Y9192I146J183*
G01*
X37936Y9199D01*
X37595Y9199D01*
G75*
D01*
G02X37595Y9601I-195J201*
G01*
X31799Y20273D02*
X31799Y21305D01*
G75*
D01*
G02X32201Y21305I201J195*
G01*
X32201Y20242D01*
G75*
D01*
G02X31799Y20273I-233J-403*
G01*
X28726Y17656D02*
G75*
D01*
G02X28324Y17656I-201J-422*
G01*
X28324Y17825D01*
G75*
D01*
G02X28383Y17967I201J0*
G01*
X29358Y18942D01*
G75*
D01*
G02X29500Y19001I142J-141*
G01*
X31847Y19001D01*
X32521Y19675D01*
G75*
D01*
G02X32516Y19733I342J59*
G01*
X32516Y19942D01*
G75*
D01*
G02X32864Y20289I348J-1*
G01*
X33072Y20289D01*
G74*
D01*
G02X33420Y19942I1J347*
G01*
X33420Y19733D01*
G75*
D01*
G02X33072Y19386I-348J1*
G01*
X32864Y19386D01*
G75*
D01*
G02X32805Y19391I0J347*
G01*
X32073Y18658D01*
G74*
D01*
G02X31930Y18599I142J142*
G01*
X29583Y18599D01*
X28726Y17742D01*
X28726Y17656D01*
X30547Y20039D02*
G75*
D01*
G02X30547Y19637I420J-201*
G01*
X29721Y19637D01*
X27735Y17651D01*
G75*
D01*
G02X27324Y17656I-211J-416*
G01*
X27324Y17725D01*
G75*
D01*
G02X27383Y17867I201J0*
G01*
X29496Y19980D01*
G75*
D01*
G02X29638Y20039I142J-141*
G01*
X30547Y20039D01*
X29059Y17234D02*
G75*
D01*
G02X29059Y17234I466J0*
G01*
X31059Y17234D02*
G75*
D01*
G02X31059Y17234I466J0*
G01*
X33059Y17234D02*
G75*
D01*
G02X33059Y17234I466J0*
G01*
X32059Y17234D02*
G75*
D01*
G02X32059Y17234I466J0*
G01*
X33404Y15580D02*
G75*
D01*
G02X33120Y15296I-4J-280*
G01*
X32635Y15781D01*
G75*
D01*
G02X32948Y16036I-109J453*
G01*
X33404Y15580D01*
X33059Y16234D02*
G75*
D01*
G02X33059Y16234I466J0*
G01*
X29324Y15813D02*
G75*
D01*
G02X29726Y15813I201J420*
G01*
X29726Y14865D01*
G75*
D01*
G02X29324Y14918I-226J-164*
G01*
X29324Y15813D01*
X28324Y15813D02*
G75*
D01*
G02X28726Y15813I201J420*
G01*
X28726Y14565D01*
G75*
D01*
G02X28300Y14596I-226J-164*
G01*
G74*
D01*
G02X28324Y14672I200J21*
G01*
X28324Y15813D01*
X27324Y15796D02*
G75*
D01*
G02X27074Y16130I97J333*
G01*
X27074Y16338D01*
G75*
D01*
G02X27421Y16686I347J1*
G01*
X27629Y16686D01*
G74*
D01*
G02X27977Y16338I0J348*
G01*
X27977Y16130D01*
G75*
D01*
G02X27726Y15796I-348J0*
G01*
X27726Y15465D01*
G75*
D01*
G02X27324Y15518I-226J-164*
G01*
X27324Y15796D01*
X34753Y24783D02*
G75*
D01*
G02X34285Y24316I-468J1*
G01*
X33971Y24316D01*
G75*
D01*
G02X33503Y24783I-1J467*
G01*
X33503Y24941D01*
G75*
D01*
G02X33971Y25408I468J-1*
G01*
X34285Y25408D01*
G74*
D01*
G02X34753Y24941I1J467*
G01*
X34753Y24783D01*
X31367Y27500D02*
X31367Y26585D01*
G75*
D01*
G02X30864Y26651I-267J-85*
G01*
X30864Y27500D01*
G75*
D01*
G02X31367Y27500I252J393*
G01*
X34499Y27334D02*
G74*
D01*
G02X34753Y26918I213J416*
G01*
X34753Y26761D01*
G75*
D01*
G02X34285Y26293I-468J0*
G01*
X33971Y26293D01*
G75*
D01*
G02X33503Y26761I0J468*
G01*
X33503Y26918D01*
G74*
D01*
G02X33757Y27334I468J0*
G01*
G74*
D01*
G02X33516Y27643I213J415*
G01*
X32535Y27643D01*
G74*
D01*
G02X32220Y27442I315J146*
G01*
X32012Y27442D01*
G75*
D01*
G02X31664Y27790I0J348*
G01*
X31664Y27998D01*
G75*
D01*
G02X32012Y28345I348J-1*
G01*
X32220Y28345D01*
G74*
D01*
G02X32535Y28145I1J347*
G01*
X33569Y28145D01*
G74*
D01*
G02X33757Y28322I402J238*
G01*
G75*
D01*
G02X33503Y28738I213J416*
G01*
X33503Y28895D01*
G75*
D01*
G02X33971Y29362I468J-1*
G01*
X34285Y29362D01*
G74*
D01*
G02X34753Y28895I1J467*
G01*
X34753Y28738D01*
G75*
D01*
G02X34499Y28322I-468J0*
G01*
G74*
D01*
G02X34753Y27907I212J415*
G01*
X34753Y27749D01*
G75*
D01*
G02X34499Y27334I-468J1*
G01*
X29721Y28142D02*
G75*
D01*
G02X29724Y27640I394J-249*
G01*
X28332Y27640D01*
G75*
D01*
G02X28332Y28142I-669J251*
G01*
X29721Y28142D01*
X37324Y22392D02*
G75*
D01*
G02X37089Y22157I-235J0*
G01*
X36981Y22157D01*
G75*
D01*
G02X36746Y22392I0J235*
G01*
X36746Y22808D01*
G75*
D01*
G02X36981Y23043I235J0*
G01*
X37089Y23043D01*
G74*
D01*
G02X37324Y22808I0J235*
G01*
X37324Y22801D01*
X38136Y22801D01*
X38136Y22808D01*
G75*
D01*
G02X38371Y23043I235J0*
G01*
X38479Y23043D01*
G74*
D01*
G02X38714Y22808I0J235*
G01*
X38714Y22392D01*
G75*
D01*
G02X38479Y22157I-235J0*
G01*
X38371Y22157D01*
G75*
D01*
G02X38136Y22392I0J235*
G01*
X38136Y22399D01*
X37324Y22399D01*
X37324Y22392D01*
X37394Y20332D02*
G75*
D01*
G02X37159Y20097I-235J0*
G01*
X37051Y20097D01*
G75*
D01*
G02X36816Y20332I0J235*
G01*
X36816Y20748D01*
G75*
D01*
G02X37051Y20983I235J0*
G01*
X37159Y20983D01*
G74*
D01*
G02X37394Y20748I0J235*
G01*
X37394Y20741D01*
X38139Y20741D01*
G75*
D01*
G02X38371Y20943I232J-32*
G01*
X38479Y20943D01*
G74*
D01*
G02X38714Y20708I0J235*
G01*
X38714Y20292D01*
G75*
D01*
G02X38479Y20057I-235J0*
G01*
X38371Y20057D01*
G75*
D01*
G02X38136Y20292I0J235*
G01*
X38136Y20339D01*
X37394Y20339D01*
X37394Y20332D01*
X38137Y18621D02*
G75*
D01*
G02X38371Y18843I234J-12*
G01*
X38479Y18843D01*
G74*
D01*
G02X38714Y18608I0J235*
G01*
X38714Y18192D01*
G75*
D01*
G02X38479Y17957I-235J0*
G01*
X38371Y17957D01*
G75*
D01*
G02X38136Y18192I0J235*
G01*
X38136Y18219D01*
X37434Y18219D01*
X37434Y18212D01*
G75*
D01*
G02X37199Y17977I-235J0*
G01*
X37091Y17977D01*
G75*
D01*
G02X36856Y18212I0J235*
G01*
X36856Y18628D01*
G75*
D01*
G02X37091Y18863I235J0*
G01*
X37199Y18863D01*
G74*
D01*
G02X37434Y18628I0J235*
G01*
X37434Y18621D01*
X38137Y18621D01*
X39815Y17638D02*
G75*
D01*
G02X39815Y17638I347J0*
G01*
X54172Y26666D02*
G75*
D01*
G02X54290Y26699I119J-197*
G01*
X54457Y26699D01*
X54457Y27022D01*
G75*
D01*
G02X54379Y27175I112J153*
G01*
X54379Y27293D01*
G74*
D01*
G02X54392Y27362I191J0*
G01*
G75*
D01*
G02X54379Y27431I177J69*
G01*
X54379Y27549D01*
G74*
D01*
G02X54392Y27618I191J0*
G01*
G75*
D01*
G02X54379Y27687I177J69*
G01*
X54379Y27805D01*
G74*
D01*
G02X54451Y27954I191J0*
G01*
X54451Y28241D01*
X54282Y28241D01*
G75*
D01*
G02X54164Y28274I1J232*
G01*
G75*
D01*
G02X54033Y28423I19J149*
G01*
X54033Y28522D01*
G74*
D01*
G02X54070Y28620I151J1*
G01*
G75*
D01*
G02X54033Y28719I113J99*
G01*
X54033Y28783D01*
X53906Y28910D01*
G75*
D01*
G02X54190Y29194I4J280*
G01*
X54256Y29128D01*
X54256Y29128D01*
X54422Y28962D01*
G74*
D01*
G02X54531Y28817I41J144*
G01*
X54531Y28719D01*
G75*
D01*
G02X54531Y28704I-150J-7*
G01*
X54682Y28704D01*
G74*
D01*
G02X54800Y28671I1J231*
G01*
G74*
D01*
G02X54931Y28522I19J149*
G01*
X54931Y28423D01*
G75*
D01*
G02X54913Y28352I-150J0*
G01*
X54913Y27962D01*
G74*
D01*
G02X54996Y27805I106J156*
G01*
X54996Y27744D01*
X55067Y27744D01*
G74*
D01*
G02X55166Y27707I0J151*
G01*
G75*
D01*
G02X55264Y27744I99J-113*
G01*
X55363Y27744D01*
G74*
D01*
G02X55434Y27726I0J151*
G01*
X56272Y27726D01*
G75*
D01*
G02X56324Y27735I51J-142*
G01*
X56422Y27735D01*
G74*
D01*
G02X56521Y27698I0J151*
G01*
G75*
D01*
G02X56619Y27735I99J-113*
G01*
X56718Y27735D01*
G74*
D01*
G02X56789Y27717I0J151*
G01*
X56850Y27717D01*
X56858Y27719D01*
G75*
D01*
G02X56921Y27728I64J-221*
G01*
X57464Y27728D01*
X57464Y27730D01*
G74*
D01*
G02X57468Y27764I151J1*
G01*
X57430Y28441D01*
G75*
D01*
G02X57580Y28601I150J10*
G01*
X59629Y28611D01*
G75*
D01*
G02X59730Y28573I1J-151*
G01*
X59730Y32899D01*
X26211Y32899D01*
X26211Y4451D01*
X59730Y4451D01*
X59730Y26316D01*
G74*
D01*
G02X59661Y26299I70J134*
G01*
X57611Y26289D01*
X57610Y26289D01*
G75*
D01*
G02X57459Y26440I0J151*
G01*
X57459Y27210D01*
G74*
D01*
G02X57464Y27248I151J1*
G01*
X57464Y27266D01*
X56981Y27266D01*
G74*
D01*
G02X56910Y27255I70J220*
G01*
X56789Y27255D01*
G74*
D01*
G02X56718Y27237I71J131*
G01*
X56619Y27237D01*
G75*
D01*
G02X56521Y27273I-1J150*
G01*
G74*
D01*
G02X56422Y27237I97J114*
G01*
X56324Y27237D01*
G75*
D01*
G02X56238Y27263I-2J150*
G01*
X55434Y27263D01*
G74*
D01*
G02X55363Y27245I71J132*
G01*
X55264Y27245D01*
G75*
D01*
G02X55166Y27282I1J151*
G01*
G74*
D01*
G02X55067Y27245I99J113*
G01*
X54996Y27245D01*
X54996Y27175D01*
G75*
D01*
G02X54919Y27022I-190J0*
G01*
X54919Y26587D01*
G74*
D01*
G02X54936Y26517I134J70*
G01*
X54936Y26419D01*
G75*
D01*
G02X54805Y26269I-151J0*
G01*
G74*
D01*
G02X54687Y26237I117J199*
G01*
X54538Y26237D01*
G74*
D01*
G02X54539Y26221I149J17*
G01*
X54539Y26123D01*
G75*
D01*
G02X54491Y26013I-151J0*
G01*
X54491Y25880D01*
G75*
D01*
G02X54432Y25738I-201J0*
G01*
X54257Y25563D01*
X53510Y24816D01*
G75*
D01*
G02X53226Y25100I-280J4*
G01*
X54089Y25963D01*
X54089Y26013D01*
G75*
D01*
G02X54041Y26123I102J110*
G01*
X54041Y26221D01*
G74*
D01*
G02X54078Y26320I151J0*
G01*
G75*
D01*
G02X54041Y26419I113J99*
G01*
X54041Y26517D01*
G74*
D01*
G02X54172Y26666I151J1*
G01*
X41077Y10662D02*
X41123Y10707D01*
X41123Y10738D01*
X41080Y10696D01*
G74*
D01*
G02X41077Y10662I280J8*
G01*
X41658Y11916D02*
G75*
D01*
G02X41619Y11921I0J151*
G01*
G74*
D01*
G02X41580Y11916I39J146*
G01*
X41525Y11916D01*
X41525Y11309D01*
X41713Y11497D01*
X41713Y11916D01*
X41658Y11916D01*
X36009Y12176D02*
X35808Y12176D01*
X35358Y12626D01*
X34936Y13049D01*
G75*
D01*
G03X34897Y13399I-236J151*
G01*
X38500Y13399D01*
G74*
D01*
G03X38642Y13458I0J201*
G01*
X38782Y13598D01*
X38782Y13598D01*
X39097Y13913D01*
X39149Y13913D01*
X38834Y13598D01*
X38816Y13581D01*
X38258Y13022D01*
G75*
D01*
G03X38199Y12880I141J-142*
G01*
X38199Y12264D01*
X38192Y12264D01*
G75*
D01*
G03X38009Y12176I0J-235*
G01*
X36791Y12176D01*
G74*
D01*
G03X36608Y12264I183J146*
G01*
X36192Y12264D01*
G75*
D01*
G03X36009Y12176I0J-235*
G01*
X47701Y17795D02*
X47701Y23227D01*
X49618Y25144D01*
X49618Y24872D01*
X48097Y23351D01*
G75*
D01*
G03X48038Y23209I141J-142*
G01*
X48038Y17628D01*
G74*
D01*
G03X47920Y17404I161J228*
G01*
X46012Y15496D01*
X45884Y15496D01*
X45884Y15551D01*
G74*
D01*
G03X45879Y15591I151J1*
G01*
G75*
D01*
G03X45884Y15630I-146J39*
G01*
X45884Y15748D01*
G74*
D01*
G03X45879Y15787I151J0*
G01*
G75*
D01*
G03X45884Y15827I-146J39*
G01*
X45884Y15882D01*
X45983Y15882D01*
G74*
D01*
G03X46125Y15941I0J201*
G01*
X47504Y17320D01*
G75*
D01*
G03X47701Y17795I-4J280*
G01*
X47299Y23310D02*
X47299Y17795D01*
G74*
D01*
G03X47220Y17604I201J195*
G01*
X45899Y16284D01*
X45884Y16284D01*
X45884Y16339D01*
G74*
D01*
G03X45879Y16378I151J0*
G01*
G75*
D01*
G03X45884Y16417I-146J39*
G01*
X45884Y16535D01*
G74*
D01*
G03X45879Y16575I151J1*
G01*
G75*
D01*
G03X45884Y16614I-146J39*
G01*
X45884Y16704D01*
G74*
D01*
G03X45912Y16728I116J164*
G01*
X46404Y17220D01*
G74*
D01*
G03X46680Y17496I4J280*
G01*
X47042Y17858D01*
G75*
D01*
G03X47101Y18000I-141J142*
G01*
X47101Y23227D01*
X49326Y25452D01*
X49326Y25420D01*
X47358Y23452D01*
G75*
D01*
G03X47299Y23310I141J-142*
G01*
X45499Y23305D02*
X45499Y19683D01*
X45301Y19485D01*
X45301Y23105D01*
G74*
D01*
G03X45380Y23296I201J195*
G01*
X45453Y23369D01*
G74*
D01*
G03X45499Y23305I247J129*
G01*
X46199Y23700D02*
X46199Y19883D01*
X45900Y19585D01*
G75*
D01*
G03X45901Y19600I-199J21*
G01*
X45901Y23305D01*
G74*
D01*
G03X45980Y23496I201J195*
G01*
X46200Y23715D01*
G75*
D01*
G03X46199Y23700I199J-21*
G01*
X41140Y25445D02*
G75*
D01*
G02X42111Y24475I346J-624*
G01*
X42501Y24085D01*
X42501Y26526D01*
X41829Y27198D01*
G75*
D01*
G02X40799Y27627I-344J626*
G01*
X39606Y27627D01*
G74*
D01*
G02X39369Y27334I451J122*
G01*
G74*
D01*
G02X39623Y26918I213J416*
G01*
X39623Y26761D01*
G75*
D01*
G02X39369Y26345I-468J0*
G01*
G74*
D01*
G02X39606Y26052I213J415*
G01*
X40450Y26052D01*
G74*
D01*
G02X40593Y25993I1J201*
G01*
X41140Y25445D01*
X48336Y26373D02*
G74*
D01*
G03X48471Y26266I144J43*
G01*
X48457Y26251D01*
X47865Y26251D01*
X47987Y26373D01*
X48336Y26373D01*
X49228Y26877D02*
G74*
D01*
G03X49189Y26882I39J146*
G01*
X49071Y26882D01*
G75*
D01*
G03X49032Y26877I0J-151*
G01*
G74*
D01*
G03X48992Y26882I39J146*
G01*
X48874Y26882D01*
G75*
D01*
G03X48835Y26877I0J-151*
G01*
G74*
D01*
G03X48795Y26882I39J146*
G01*
X48677Y26882D01*
G75*
D01*
G03X48638Y26877I0J-151*
G01*
G74*
D01*
G03X48599Y26882I39J146*
G01*
X48552Y26882D01*
X48552Y26928D01*
G74*
D01*
G03X48547Y26967I150J1*
G01*
G75*
D01*
G03X48552Y27007I-145J38*
G01*
X48552Y27125D01*
G74*
D01*
G03X48547Y27164I150J1*
G01*
G75*
D01*
G03X48552Y27204I-145J38*
G01*
X48552Y27322D01*
G74*
D01*
G03X48547Y27361I150J1*
G01*
G75*
D01*
G03X48552Y27400I-145J38*
G01*
X48552Y27519D01*
G74*
D01*
G03X48463Y27656I150J0*
G01*
G75*
D01*
G03X48552Y27794I-61J137*
G01*
X48552Y27840D01*
X48599Y27840D01*
G74*
D01*
G03X48736Y27930I1J151*
G01*
G75*
D01*
G03X48874Y27840I137J60*
G01*
X48992Y27840D01*
G74*
D01*
G03X49032Y27845I1J151*
G01*
G75*
D01*
G03X49071Y27840I39J146*
G01*
X49189Y27840D01*
G74*
D01*
G03X49327Y27930I0J151*
G01*
G75*
D01*
G03X49465Y27840I137J60*
G01*
X49511Y27840D01*
X49511Y27794D01*
G75*
D01*
G03X49516Y27755I150J-1*
G01*
G74*
D01*
G03X49511Y27715I145J38*
G01*
X49511Y27597D01*
G75*
D01*
G03X49516Y27558I150J-1*
G01*
G74*
D01*
G03X49511Y27519I145J38*
G01*
X49511Y27400D01*
G75*
D01*
G03X49516Y27361I150J-1*
G01*
G74*
D01*
G03X49511Y27322I145J38*
G01*
X49511Y27204D01*
G75*
D01*
G03X49600Y27066I150J-1*
G01*
G74*
D01*
G03X49511Y26928I61J137*
G01*
X49511Y26882D01*
X49465Y26882D01*
G75*
D01*
G03X49425Y26877I-1J-151*
G01*
G74*
D01*
G03X49386Y26882I39J146*
G01*
X49268Y26882D01*
G75*
D01*
G03X49228Y26877I-1J-151*
G01*
X48732Y28376D02*
X48732Y28401D01*
G74*
D01*
G02X48714Y28402I6J279*
G01*
G74*
D01*
G02X48732Y28376I113J97*
G01*
X49727Y28349D02*
G74*
D01*
G03X49583Y28457I144J42*
G01*
X49474Y28457D01*
G75*
D01*
G03X49433Y28719I-263J93*
G01*
X49902Y28719D01*
X49902Y28700D01*
G74*
D01*
G03X49901Y28680I199J20*
G01*
X49901Y28502D01*
G74*
D01*
G03X49742Y28349I99J262*
G01*
X49727Y28349D01*
X34062Y27894D02*
X34128Y27828D01*
X38998Y25851D02*
X40450Y25851D01*
X41127Y17638D02*
X41127Y18173D01*
X40900Y18400D01*
X39175Y18400D01*
X39175Y20500D02*
X39900Y20500D01*
X41717Y18683D01*
X41717Y17638D01*
X39175Y22600D02*
X39600Y22600D01*
X42308Y19892D01*
X42308Y17638D01*
X40450Y25851D02*
X42505Y23797D01*
X42505Y17638D01*
X38998Y27828D02*
X41482Y27828D01*
X41486Y27825D02*
X42702Y26609D01*
X42655Y26655D01*
X42702Y17638D02*
X42702Y26609D01*
X27800Y24464D02*
X27800Y24435D01*
X27800Y21900D01*
X32200Y25800D02*
X34077Y25800D01*
X34128Y25851D01*
X32000Y21500D02*
X32000Y19870D01*
X31968Y19838D01*
X27525Y17234D02*
X27525Y17725D01*
X29638Y19838D01*
X30968Y19838D01*
X28525Y17234D02*
X28525Y17825D01*
X29500Y18800D01*
X31930Y18800D01*
X32968Y19838D01*
X36400Y16575D02*
X36400Y16800D01*
X36900Y17300D01*
X38600Y17300D01*
X39400Y16500D01*
X39400Y16200D01*
X39714Y15886D01*
X40162Y15886D01*
X38400Y16575D02*
X38725Y16575D01*
X39611Y15689D01*
X40162Y15689D01*
X40162Y15492D02*
X38733Y15492D01*
X38400Y15825D01*
X36400Y15825D01*
X35100Y15800D02*
X36375Y15800D01*
X36400Y15825D01*
X31600Y16160D02*
X31525Y16234D01*
X31600Y16160D02*
X31600Y15400D01*
X30525Y17234D02*
X31591Y18300D01*
X33700Y18300D01*
X34600Y17400D01*
X30525Y16234D02*
X30525Y14875D01*
X34700Y13000D02*
X35725Y11975D01*
X38400Y11975D01*
X27525Y16234D02*
X27525Y15325D01*
X27500Y15300D01*
X33400Y15300D02*
X32500Y16200D01*
X29525Y16234D02*
X29525Y14675D01*
X34700Y13200D02*
X34700Y13000D01*
X31800Y13600D02*
X38500Y13600D01*
X39014Y14114D01*
X30525Y14875D02*
X31800Y13600D01*
X31300Y14600D02*
X32000Y13900D01*
X38400Y13900D01*
X38811Y14311D01*
X32200Y14300D02*
X38300Y14300D01*
X38508Y14508D01*
X34600Y17400D02*
X34600Y15600D01*
X35050Y15150D02*
X38950Y15150D01*
X39198Y14902D01*
X34600Y15600D02*
X35050Y15150D01*
X40930Y12362D02*
X40930Y11355D01*
X38975Y9400D01*
X38225Y9400D02*
X38225Y7600D01*
X38400Y11225D02*
X38400Y9575D01*
X38225Y9400D01*
X37400Y9400D01*
X35160Y7579D02*
X35160Y9360D01*
X35200Y9400D01*
X31343Y7709D02*
X31343Y9357D01*
X31300Y9400D01*
X36400Y11225D02*
X36400Y10100D01*
X27905Y7609D02*
X27905Y9195D01*
X41324Y12362D02*
X41324Y10624D01*
X38975Y8275D01*
X41600Y9025D02*
X41600Y7975D01*
X41600Y9775D02*
X41600Y11100D01*
X41914Y12362D02*
X41914Y11414D01*
X41600Y11100D01*
X42898Y12362D02*
X42898Y10873D01*
X42625Y10600D01*
X44425Y10600D02*
X44425Y8800D01*
X45175Y10600D02*
X45175Y8800D01*
X45175Y10600D02*
X46025Y10600D01*
X46600Y10025D01*
X44276Y12362D02*
X44276Y10749D01*
X44425Y10600D01*
X43489Y12362D02*
X43489Y10714D01*
X43375Y10600D01*
X43400Y9700D02*
X43400Y10575D01*
X43375Y10600D01*
X46600Y9200D02*
X46600Y10025D01*
X44473Y12362D02*
X44473Y11827D01*
X44670Y12362D02*
X44670Y12030D01*
X44900Y11800D01*
X45575Y11800D01*
X46600Y10775D01*
X42898Y17638D02*
X42898Y18673D01*
X43625Y19400D01*
X43095Y17638D02*
X43095Y18095D01*
X44375Y19375D01*
X44375Y19400D01*
X44400Y20400D02*
X44400Y19425D01*
X44375Y19400D01*
X43600Y20400D02*
X43600Y19425D01*
X43625Y19400D01*
X44080Y17638D02*
X44080Y18380D01*
X44473Y17638D02*
X44473Y18373D01*
X44670Y17638D02*
X44670Y18070D01*
X46400Y19800D01*
X46400Y23700D01*
X45438Y16870D02*
X45770Y16870D01*
X45438Y16083D02*
X45983Y16083D01*
X45438Y15295D02*
X46095Y15295D01*
X45438Y13720D02*
X46420Y13720D01*
X46500Y13800D01*
X45438Y13917D02*
X45917Y13917D01*
X46095Y15295D02*
X48239Y17439D01*
X45983Y16083D02*
X47500Y17600D01*
X45770Y16870D02*
X46900Y18000D01*
X45100Y19400D02*
X45100Y23300D01*
X44080Y18380D02*
X45100Y19400D01*
X45700Y19600D02*
X45700Y23500D01*
X44473Y18373D02*
X45700Y19600D01*
X53400Y16300D02*
X53400Y15001D01*
X53359Y14960D01*
X55300Y16300D02*
X55300Y15019D01*
X55359Y14960D01*
X41600Y7225D02*
X42675Y7225D01*
X38975Y6425D02*
X38975Y8275D01*
X38975Y6425D02*
X40400Y5000D01*
X52313Y5000D01*
X53353Y6040D01*
X41127Y12362D02*
X41127Y11027D01*
X40800Y10700D01*
X27900Y9300D02*
X27900Y9200D01*
X28525Y16234D02*
X28525Y14475D01*
X28500Y14400D02*
X28500Y14575D01*
X28525Y14600D01*
X37035Y22600D02*
X38425Y22600D01*
X37105Y20540D02*
X38385Y20540D01*
X38425Y20500D01*
X37145Y18420D02*
X38405Y18420D01*
X38425Y18400D01*
X36285Y22600D02*
X36285Y20610D01*
X36355Y20540D01*
X36355Y18460D01*
X36355Y18460D02*
X36375Y18440D01*
X47152Y26882D02*
X47070Y26800D01*
X47560Y26882D02*
X47152Y26882D01*
X48244Y27263D02*
X47645Y27263D01*
X48244Y27656D02*
X47766Y27656D01*
X47580Y27842D01*
X47645Y27263D02*
X47560Y27178D01*
X49327Y27066D02*
X49032Y27361D01*
X49327Y27656D02*
X49032Y27361D01*
X46500Y25400D02*
X46730Y25400D01*
X47904Y26574D01*
X48539Y26574D01*
X45100Y23300D02*
X47850Y26050D01*
X48540Y26050D01*
X48736Y26246D01*
X48736Y26574D01*
X45700Y23500D02*
X47920Y25720D01*
X48540Y25720D01*
X48933Y26113D01*
X48933Y26574D01*
X46400Y23700D02*
X48115Y25415D01*
X48615Y25415D01*
X49130Y25930D01*
X49130Y26574D01*
X47500Y17600D02*
X47500Y23310D01*
X46900Y23310D02*
X49327Y25737D01*
X49527Y25337D02*
X49527Y26570D01*
X47500Y23310D02*
X49527Y25337D01*
X46900Y18000D02*
X46900Y23310D01*
X49327Y25737D02*
X49327Y26574D01*
X49819Y24789D02*
X49819Y26869D01*
X49819Y24789D02*
X48239Y23209D01*
X48239Y17439D02*
X48239Y23209D01*
X49327Y27656D02*
X49327Y28327D01*
X48770Y30013D02*
X48770Y30390D01*
X48760Y30400D01*
X49301Y29600D02*
X49640Y29600D01*
X49290Y30360D02*
X49290Y30025D01*
X49301Y30013D01*
X48770Y29600D02*
X48480Y29600D01*
X48460Y29580D01*
X49130Y28148D02*
X49130Y28470D01*
X49210Y28550D01*
X49911Y28148D02*
X50102Y28340D01*
X49911Y28148D02*
X49571Y28148D01*
X50102Y28340D02*
X50102Y28680D01*
X49740Y28490D02*
X49500Y28490D01*
X49328Y28318D01*
X43265Y8110D02*
X52283Y8110D01*
X54353Y6040D01*
X41600Y9775D02*
X43265Y8110D01*
X38400Y11975D02*
X38400Y12880D01*
X39437Y13917D01*
X40162Y13917D01*
X48320Y28430D02*
X48360Y28470D01*
X48590Y28470D01*
X48736Y28324D01*
X48736Y27656D02*
X48736Y28324D01*
X48933Y28148D02*
X48933Y28497D01*
X48750Y28680D01*
X54282Y28768D02*
X54282Y28818D01*
X53910Y29190D01*
X51760Y25260D02*
X51760Y17410D01*
X48795Y14445D01*
X46445Y14445D01*
X45917Y13917D01*
X47669Y27069D02*
X47560Y27178D01*
X48241Y27069D02*
X47669Y27069D01*
X47869Y26869D02*
X48244Y26869D01*
X47869Y26869D02*
X47245Y26245D01*
X46910Y26245D01*
X53230Y24820D02*
X54290Y25880D01*
X54290Y26172D01*
X44473Y11827D02*
X45160Y11140D01*
X45160Y10615D01*
X45175Y10600D01*
X39014Y14114D02*
X40162Y14114D01*
X38811Y14311D02*
X40162Y14311D01*
X38508Y14508D02*
X40162Y14508D01*
X39198Y14902D02*
X40162Y14902D01*
X32700Y14700D02*
X40157Y14700D01*
X44425Y8800D02*
X44060Y8800D01*
X43810Y9050D01*
X36285Y22600D02*
X35210Y22600D01*
X36355Y20540D02*
X35180Y20540D01*
X47580Y28138D02*
X47742Y28138D01*
X48027Y27853D01*
X48244Y27853D01*
X49327Y27066D02*
X50084Y27066D01*
X50240Y26910D01*
X50240Y26740D01*
X26060Y4300D02*
X59880Y4300D01*
X59880Y33050D01*
X26060Y33050D01*
X26060Y4300D01*
G54D13*
X32116Y27894D02*
X34062Y27894D01*
X27662Y27891D02*
X30113Y27891D01*
X31116Y27894D02*
X31116Y26516D01*
G54D14*
X35270Y18440D02*
X36375Y18440D01*
X36375Y18440D02*
X36395Y18420D01*
X46760Y28602D02*
X46663Y28602D01*
X46940Y27852D02*
X46663Y27852D01*
X25960Y4200D02*
X25960Y7095D01*
X25960Y4200D02*
X29362Y4200D01*
X59980Y4200D02*
X56578Y4200D01*
X59980Y4200D02*
X59980Y7095D01*
X59980Y33150D02*
X59980Y30255D01*
X59980Y33150D02*
X56578Y33150D01*
X25960Y33150D02*
X29362Y33150D01*
X25960Y33150D02*
X25960Y30255D01*
X23991Y4200D02*
X20054Y4200D01*
X22023Y2231D02*
X22023Y6169D01*
X20547Y4200D02*
G75*
D01*
G02X20547Y4200I1476J0*
G01*
X61949Y4200D02*
X65886Y4200D01*
X63917Y2231D02*
X63917Y6169D01*
X62441Y4200D02*
G75*
D01*
G02X62441Y4200I1476J0*
G01*
X63425Y4200D02*
G75*
D01*
G02X63425Y4200I492J0*
G01*
X23991Y33150D02*
X20054Y33150D01*
X22023Y31181D02*
X22023Y35119D01*
X20547Y33150D02*
G75*
D01*
G02X20547Y33150I1476J0*
G01*
X21039Y33150D02*
G75*
D01*
G02X21039Y33150I984J0*
G01*
X21531Y33150D02*
G75*
D01*
G02X21531Y33150I492J0*
G01*
X25960Y4200D02*
X25960Y7095D01*
X25960Y4200D02*
X29362Y4200D01*
X59980Y4200D02*
X56578Y4200D01*
X59980Y4200D02*
X59980Y7095D01*
X59980Y33150D02*
X59980Y30255D01*
X59980Y33150D02*
X56578Y33150D01*
X25960Y33150D02*
X29362Y33150D01*
X25960Y33150D02*
X25960Y30255D01*
X23991Y4200D02*
X20054Y4200D01*
X22023Y2231D02*
X22023Y6169D01*
X20547Y4200D02*
G75*
D01*
G02X20547Y4200I1476J0*
G01*
X61949Y4200D02*
X65886Y4200D01*
X63917Y2231D02*
X63917Y6169D01*
X62441Y4200D02*
G75*
D01*
G02X62441Y4200I1476J0*
G01*
X63425Y4200D02*
G75*
D01*
G02X63425Y4200I492J0*
G01*
X23991Y33150D02*
X20054Y33150D01*
X22023Y31181D02*
X22023Y35119D01*
X20547Y33150D02*
G75*
D01*
G02X20547Y33150I1476J0*
G01*
X21039Y33150D02*
G75*
D01*
G02X21039Y33150I984J0*
G01*
X21531Y33150D02*
G75*
D01*
G02X21531Y33150I492J0*
G01*
G54D15*
X54690Y25630D02*
X54690Y26169D01*
X51322Y26722D02*
X51260Y26660D01*
X51322Y27152D02*
X51322Y26722D01*
X54290Y26468D02*
X54687Y26468D01*
X54688Y27234D02*
X54688Y26469D01*
X56125Y27194D02*
X56125Y26815D01*
X56921Y27201D02*
X56921Y26801D01*
X51071Y27150D02*
X51319Y27150D01*
X50522Y27458D02*
X50777Y27458D01*
X51081Y27450D02*
X51319Y27450D01*
X50777Y27458D02*
X50785Y27450D01*
X50522Y27162D02*
X50763Y27162D01*
X50775Y27150D01*
X51635Y27234D02*
X53822Y27234D01*
X51426Y27448D02*
X51640Y27234D01*
X51319Y27450D02*
X51322Y27448D01*
X51426Y27448D01*
X54688Y27490D02*
X55013Y27490D01*
X55314Y27495D02*
X56364Y27495D01*
X56373Y27486D01*
X47116Y28602D02*
X47580Y28138D01*
X50410Y28042D02*
X51024Y28042D01*
X50410Y28338D02*
X50710Y28338D01*
X50398Y28350D02*
X50410Y28338D01*
X50398Y28680D02*
X50398Y28350D01*
X50778Y27750D02*
X51028Y27750D01*
X51030Y27752D02*
X51580Y27752D01*
X50710Y28338D02*
X50710Y28590D01*
X51330Y28048D02*
X51330Y28480D01*
X51878Y27750D02*
X52128Y27750D01*
X51878Y28050D02*
X51878Y27750D01*
X51330Y28480D02*
X51320Y28490D01*
X51582Y28050D02*
X51582Y27750D01*
X52130Y28048D02*
X52130Y28480D01*
X52678Y27750D02*
X52882Y27750D01*
X52130Y28480D02*
X52120Y28490D01*
X52130Y27752D02*
X52380Y27752D01*
X53178Y27750D02*
X53428Y27750D01*
X53430Y27752D02*
X53815Y27752D01*
X53430Y28048D02*
X53430Y28480D01*
X53420Y28490D01*
X54282Y28473D02*
X54682Y28473D01*
X54682Y27751D01*
X50398Y28680D02*
X50780Y28680D01*
X50710Y28590D02*
X50790Y28670D01*
X50780Y28680D02*
X50790Y28670D01*
X54680Y29300D02*
X54680Y28770D01*
X56669Y27486D02*
X56910Y27486D01*
X56921Y27497D01*
X58623Y27497D01*
X58640Y27480D01*
X46760Y28602D02*
X47116Y28602D01*
X46940Y27180D02*
X47558Y27180D01*
X47332Y27459D02*
X46940Y27852D01*
X48244Y27459D02*
X47332Y27459D01*
G54D16*
X49819Y27263D02*
X50421Y27263D01*
X49819Y27459D02*
X50520Y27459D01*
X49819Y27656D02*
X50389Y27656D01*
X50482Y27750D01*
X50421Y27263D02*
X50522Y27162D01*
X49819Y27853D02*
X50221Y27853D01*
X50410Y28042D01*
G54D17*
X27742Y24435D03*
X27905Y7609D03*
X31343Y7709D03*
X35160Y7579D03*
X53424Y19895D03*
X56563Y19895D03*
X50285Y19895D03*
X50273Y22704D03*
X56581Y22704D03*
X41483Y24818D03*
X27662Y27891D03*
X41486Y27825D03*
X53427Y22704D03*
G54D18*
X27800Y21900D03*
X32200Y25800D03*
X31100Y26500D03*
X32000Y21500D03*
X35100Y15800D03*
X31600Y15400D03*
X32700Y14700D03*
X31300Y14600D03*
X29500Y14700D03*
X28500Y14400D03*
X34700Y13200D03*
X32200Y14300D03*
X27900Y9300D03*
X44400Y20400D03*
X43600Y20400D03*
X46500Y25400D03*
X46500Y13800D03*
X45100Y23300D03*
X45700Y23500D03*
X47000Y24300D03*
X46400Y17500D03*
X47500Y17600D03*
X31300Y9400D03*
X35200Y9400D03*
X37400Y9400D03*
X46600Y9200D03*
X48200Y17400D03*
X27500Y15300D03*
X33400Y15300D03*
X53400Y16300D03*
X40200Y10600D03*
X43400Y9700D03*
X40800Y10700D03*
X55300Y16310D03*
X42680Y7220D03*
X47070Y26800D03*
X50240Y26740D03*
X51260Y26660D03*
X56130Y26810D03*
X51320Y28490D03*
X52120Y28490D03*
X53420Y28490D03*
X50790Y28670D03*
X54680Y29300D03*
X54690Y25580D03*
X48760Y30400D03*
X48460Y29580D03*
X49290Y30360D03*
X49210Y28550D03*
X49740Y28490D03*
X49630Y29600D03*
X48320Y28430D03*
X48750Y28680D03*
X58190Y25940D03*
X59100Y25930D03*
X58110Y28950D03*
X59120Y28960D03*
X53020Y28200D03*
X52570Y28210D03*
X52670Y26870D03*
X53270Y26880D03*
X52060Y26870D03*
X57300Y27040D03*
X57300Y27930D03*
X56520Y27950D03*
X55670Y27940D03*
X55650Y27060D03*
X55160Y27950D03*
X55160Y27050D03*
X56690Y29150D03*
X55700Y29160D03*
X57280Y30400D03*
X55430Y30440D03*
X53690Y30420D03*
X50340Y30450D03*
X51660Y29440D03*
X52810Y29680D03*
X50780Y25920D03*
X52370Y25910D03*
X53550Y25880D03*
X55600Y25940D03*
X56860Y25920D03*
X56290Y24860D03*
X54400Y24840D03*
X50260Y25230D03*
X46940Y27180D03*
X51820Y30450D03*
X35270Y18440D03*
X56920Y26800D03*
X53910Y29190D03*
X51760Y25260D03*
X53230Y24820D03*
X46900Y26250D03*
X49250Y27600D03*
X49220Y27150D03*
X48820Y27140D03*
X48820Y27600D03*
X43790Y9060D03*
X50000Y28240D03*
X36410Y10080D03*
X35170Y20560D03*
X35180Y22590D03*
G54D19*
X57359Y14960D03*
X52359Y14960D03*
X51359Y14960D03*
X53359Y14960D03*
X55359Y14960D03*
X54359Y14960D03*
X56359Y14960D03*
X31525Y17234D03*
X33525Y17234D03*
X33525Y16234D03*
X32525Y17234D03*
X28525Y17234D03*
X28525Y16234D03*
X27525Y17234D03*
X31525Y16234D03*
X30525Y17234D03*
X30525Y16234D03*
X29525Y17234D03*
X29525Y16234D03*
X32525Y16234D03*
X31968Y19838D03*
X30968Y19838D03*
X31116Y27894D03*
X30116Y27894D03*
X54353Y6040D03*
X53353Y6040D03*
X55353Y6040D03*
G54D20*
X50359Y14960D03*
X27525Y16234D03*
X32968Y19838D03*
X32116Y27894D03*
X52353Y6040D03*
G54D21*
X50255Y14856D02*
X50463Y14856D01*
X50463Y15064D01*
X50255Y15064D01*
X50255Y14856D01*D02*
X27421Y16130D02*
X27629Y16130D01*
X27629Y16338D01*
X27421Y16338D01*
X27421Y16130D01*D02*
X32864Y19734D02*
X33072Y19734D01*
X33072Y19942D01*
X32864Y19942D01*
X32864Y19734D01*D02*
X32012Y27790D02*
X32220Y27790D01*
X32220Y27998D01*
X32012Y27998D01*
X32012Y27790D01*D02*
X52249Y5936D02*
X52457Y5936D01*
X52457Y6144D01*
X52249Y6144D01*
X52249Y5936D01*D02*
G54D22*
X41600Y7225D03*
X41600Y7975D03*
X46600Y10025D03*
X46600Y10775D03*
X38400Y11975D03*
X38400Y11225D03*
X36400Y15825D03*
X36400Y16575D03*
X38400Y15825D03*
X38400Y16575D03*
X41600Y9045D03*
X41600Y9795D03*
X36400Y11225D03*
X36400Y11975D03*
X46760Y28602D03*
X46760Y27852D03*
G54D23*
X41392Y7171D02*
X41808Y7171D01*
X41808Y7279D01*
X41392Y7279D01*
X41392Y7171D01*D02*
X41392Y7921D02*
X41808Y7921D01*
X41808Y8029D01*
X41392Y8029D01*
X41392Y7921D01*D02*
X38921Y7392D02*
X39029Y7392D01*
X39029Y7808D01*
X38921Y7808D01*
X38921Y7392D01*D02*
X38171Y7392D02*
X38279Y7392D01*
X38279Y7808D01*
X38171Y7808D01*
X38171Y7392D01*D02*
X45121Y8592D02*
X45229Y8592D01*
X45229Y9008D01*
X45121Y9008D01*
X45121Y8592D01*D02*
X44371Y8592D02*
X44479Y8592D01*
X44479Y9008D01*
X44371Y9008D01*
X44371Y8592D01*D02*
X38171Y9192D02*
X38279Y9192D01*
X38279Y9608D01*
X38171Y9608D01*
X38171Y9192D01*D02*
X38921Y9192D02*
X39029Y9192D01*
X39029Y9608D01*
X38921Y9608D01*
X38921Y9192D01*D02*
X43321Y10392D02*
X43429Y10392D01*
X43429Y10808D01*
X43321Y10808D01*
X43321Y10392D01*D02*
X42571Y10392D02*
X42679Y10392D01*
X42679Y10808D01*
X42571Y10808D01*
X42571Y10392D01*D02*
X44371Y10392D02*
X44479Y10392D01*
X44479Y10808D01*
X44371Y10808D01*
X44371Y10392D01*D02*
X45121Y10392D02*
X45229Y10392D01*
X45229Y10808D01*
X45121Y10808D01*
X45121Y10392D01*D02*
X46392Y9971D02*
X46808Y9971D01*
X46808Y10079D01*
X46392Y10079D01*
X46392Y9971D01*D02*
X46392Y10721D02*
X46808Y10721D01*
X46808Y10829D01*
X46392Y10829D01*
X46392Y10721D01*D02*
X38192Y11921D02*
X38608Y11921D01*
X38608Y12029D01*
X38192Y12029D01*
X38192Y11921D01*D02*
X38192Y11171D02*
X38608Y11171D01*
X38608Y11279D01*
X38192Y11279D01*
X38192Y11171D01*D02*
X36192Y15771D02*
X36608Y15771D01*
X36608Y15879D01*
X36192Y15879D01*
X36192Y15771D01*D02*
X36192Y16521D02*
X36608Y16521D01*
X36608Y16629D01*
X36192Y16629D01*
X36192Y16521D01*D02*
X38192Y15771D02*
X38608Y15771D01*
X38608Y15879D01*
X38192Y15879D01*
X38192Y15771D01*D02*
X38192Y16521D02*
X38608Y16521D01*
X38608Y16629D01*
X38192Y16629D01*
X38192Y16521D01*D02*
X39121Y18192D02*
X39229Y18192D01*
X39229Y18608D01*
X39121Y18608D01*
X39121Y18192D01*D02*
X38371Y18192D02*
X38479Y18192D01*
X38479Y18608D01*
X38371Y18608D01*
X38371Y18192D01*D02*
X43571Y19192D02*
X43679Y19192D01*
X43679Y19608D01*
X43571Y19608D01*
X43571Y19192D01*D02*
X44321Y19192D02*
X44429Y19192D01*
X44429Y19608D01*
X44321Y19608D01*
X44321Y19192D01*D02*
X39121Y20292D02*
X39229Y20292D01*
X39229Y20708D01*
X39121Y20708D01*
X39121Y20292D01*D02*
X38371Y20292D02*
X38479Y20292D01*
X38479Y20708D01*
X38371Y20708D01*
X38371Y20292D01*D02*
X39121Y22392D02*
X39229Y22392D01*
X39229Y22808D01*
X39121Y22808D01*
X39121Y22392D01*D02*
X38371Y22392D02*
X38479Y22392D01*
X38479Y22808D01*
X38371Y22808D01*
X38371Y22392D01*D02*
X41392Y8991D02*
X41808Y8991D01*
X41808Y9099D01*
X41392Y9099D01*
X41392Y8991D01*D02*
X41392Y9741D02*
X41808Y9741D01*
X41808Y9849D01*
X41392Y9849D01*
X41392Y9741D01*D02*
X36192Y11171D02*
X36608Y11171D01*
X36608Y11279D01*
X36192Y11279D01*
X36192Y11171D01*D02*
X36192Y11921D02*
X36608Y11921D01*
X36608Y12029D01*
X36192Y12029D01*
X36192Y11921D01*D02*
X37091Y18212D02*
X37199Y18212D01*
X37199Y18628D01*
X37091Y18628D01*
X37091Y18212D01*D02*
X36341Y18212D02*
X36449Y18212D01*
X36449Y18628D01*
X36341Y18628D01*
X36341Y18212D01*D02*
X37051Y20332D02*
X37159Y20332D01*
X37159Y20748D01*
X37051Y20748D01*
X37051Y20332D01*D02*
X36301Y20332D02*
X36409Y20332D01*
X36409Y20748D01*
X36301Y20748D01*
X36301Y20332D01*D02*
X36981Y22392D02*
X37089Y22392D01*
X37089Y22808D01*
X36981Y22808D01*
X36981Y22392D01*D02*
X36231Y22392D02*
X36339Y22392D01*
X36339Y22808D01*
X36231Y22808D01*
X36231Y22392D01*D02*
X46552Y28548D02*
X46968Y28548D01*
X46968Y28656D01*
X46552Y28656D01*
X46552Y28548D01*D02*
X46552Y27798D02*
X46968Y27798D01*
X46968Y27906D01*
X46552Y27906D01*
X46552Y27798D01*D02*
G54D24*
X38975Y7600D03*
X38225Y7600D03*
X45175Y8800D03*
X44425Y8800D03*
X38225Y9400D03*
X38975Y9400D03*
X43375Y10600D03*
X42625Y10600D03*
X44425Y10600D03*
X45175Y10600D03*
X39175Y18400D03*
X38425Y18400D03*
X43625Y19400D03*
X44375Y19400D03*
X39175Y20500D03*
X38425Y20500D03*
X39175Y22600D03*
X38425Y22600D03*
X37145Y18420D03*
X36395Y18420D03*
X37105Y20540D03*
X36355Y20540D03*
X37035Y22600D03*
X36285Y22600D03*
G54D25*
X40930Y12362D03*
X41127Y12362D03*
X41324Y12362D03*
X41520Y12362D03*
X41717Y12362D03*
X41914Y12362D03*
X42111Y12362D03*
X42308Y12362D03*
X42505Y12362D03*
X42702Y12362D03*
X42898Y12362D03*
X43095Y12362D03*
X43292Y12362D03*
X43489Y12362D03*
X43686Y12362D03*
X43883Y12362D03*
X44080Y12362D03*
X44276Y12362D03*
X44473Y12362D03*
X44670Y12362D03*
X40930Y17638D03*
X41127Y17638D03*
X41520Y17638D03*
X41324Y17638D03*
X41717Y17638D03*
X41914Y17638D03*
X42308Y17638D03*
X42111Y17638D03*
X42505Y17638D03*
X42702Y17638D03*
X43095Y17638D03*
X42898Y17638D03*
X43292Y17638D03*
X43489Y17638D03*
X43883Y17638D03*
X43686Y17638D03*
X44080Y17638D03*
X44276Y17638D03*
X44670Y17638D03*
X44473Y17638D03*
G54D26*
X40162Y13130D03*
X40162Y13327D03*
X45438Y13130D03*
X45438Y13327D03*
X40162Y13524D03*
X40162Y13917D03*
X40162Y13720D03*
X40162Y14114D03*
X45438Y13917D03*
X45438Y13524D03*
X45438Y13720D03*
X45438Y14114D03*
X40162Y14311D03*
X40162Y14705D03*
X40162Y14508D03*
X40162Y14902D03*
X45438Y14705D03*
X45438Y14311D03*
X45438Y14508D03*
X45438Y14902D03*
X40162Y15098D03*
X40162Y15492D03*
X40162Y15295D03*
X40162Y15689D03*
X45438Y15492D03*
X45438Y15098D03*
X45438Y15295D03*
X45438Y15689D03*
X40162Y15886D03*
X40162Y16280D03*
X40162Y16083D03*
X40162Y16476D03*
X45438Y16280D03*
X45438Y15886D03*
X45438Y16083D03*
X45438Y16476D03*
X40162Y16673D03*
X40162Y16870D03*
X45438Y16673D03*
X45438Y16870D03*
G54D27*
X34128Y24862D03*
X38998Y24862D03*
X34128Y25851D03*
X38998Y25851D03*
X34128Y26839D03*
X38998Y26840D03*
X34128Y27828D03*
X38998Y27828D03*
X34128Y28817D03*
X38998Y28817D03*
G54D28*
X33971Y24784D02*
X34285Y24784D01*
X34285Y24940D01*
X33971Y24940D01*
X33971Y24784D01*D02*
X38841Y24784D02*
X39155Y24784D01*
X39155Y24940D01*
X38841Y24940D01*
X38841Y24784D01*D02*
X33971Y25773D02*
X34285Y25773D01*
X34285Y25929D01*
X33971Y25929D01*
X33971Y25773D01*D02*
X38841Y25773D02*
X39155Y25773D01*
X39155Y25929D01*
X38841Y25929D01*
X38841Y25773D01*D02*
X33971Y26761D02*
X34285Y26761D01*
X34285Y26917D01*
X33971Y26917D01*
X33971Y26761D01*D02*
X38841Y26762D02*
X39155Y26762D01*
X39155Y26918D01*
X38841Y26918D01*
X38841Y26762D01*D02*
X33971Y27750D02*
X34285Y27750D01*
X34285Y27906D01*
X33971Y27906D01*
X33971Y27750D01*D02*
X38841Y27750D02*
X39155Y27750D01*
X39155Y27906D01*
X38841Y27906D01*
X38841Y27750D01*D02*
X33971Y28739D02*
X34285Y28739D01*
X34285Y28895D01*
X33971Y28895D01*
X33971Y28739D01*D02*
X38841Y28739D02*
X39155Y28739D01*
X39155Y28895D01*
X38841Y28895D01*
X38841Y28739D01*D02*
G54D29*
X50482Y27750D03*
X50778Y27750D03*
X50785Y27450D03*
X51081Y27450D03*
X51071Y27150D03*
X50775Y27150D03*
X50398Y28680D03*
X50102Y28680D03*
X51582Y27750D03*
X51878Y27750D03*
X51582Y28050D03*
X51878Y28050D03*
X52382Y27750D03*
X52678Y27750D03*
X52882Y27750D03*
X53178Y27750D03*
X55314Y27495D03*
X55018Y27495D03*
X56373Y27486D03*
X56669Y27486D03*
G54D30*
X58600Y28940D03*
G54D31*
X58650Y25940D03*
G54D32*
X58640Y27480D03*
G54D33*
X48244Y27066D03*
X48244Y26869D03*
X49819Y26869D03*
X49819Y27066D03*
X48244Y27263D03*
X48244Y27459D03*
X48244Y27853D03*
X48244Y27656D03*
X49819Y27263D03*
X49819Y27459D03*
X49819Y27656D03*
X49819Y27853D03*
G54D34*
X48933Y26574D03*
X48539Y26574D03*
X48736Y26574D03*
X49130Y26574D03*
X49327Y26574D03*
X49524Y26574D03*
X48933Y28148D03*
X48736Y28148D03*
X48539Y28148D03*
X49130Y28148D03*
X49524Y28148D03*
X49327Y28148D03*
G54D35*
X51322Y27152D03*
X51322Y27448D03*
X50522Y27162D03*
X50522Y27458D03*
X50410Y28338D03*
X50410Y28042D03*
X50710Y28338D03*
X50710Y28042D03*
X51030Y27752D03*
X51030Y28048D03*
X51330Y28048D03*
X51330Y27752D03*
X52130Y27752D03*
X52130Y28048D03*
X53430Y27752D03*
X53430Y28048D03*
X56125Y27490D03*
X56125Y27194D03*
X54682Y28473D03*
X54682Y28768D03*
X54282Y28473D03*
X54282Y28768D03*
X56921Y27201D03*
X56921Y27497D03*
X54687Y26468D03*
X54687Y26172D03*
X54290Y26468D03*
X54290Y26172D03*
X47580Y28138D03*
X47580Y27842D03*
X47560Y27178D03*
X47560Y26882D03*
G54D36*
X53822Y27746D03*
X53822Y27490D03*
X53822Y27234D03*
X54688Y27746D03*
X54688Y27490D03*
X54688Y27234D03*
G54D37*
X53704Y27687D02*
X53940Y27687D01*
X53940Y27805D01*
X53704Y27805D01*
X53704Y27687D01*D02*
X53704Y27431D02*
X53940Y27431D01*
X53940Y27549D01*
X53704Y27549D01*
X53704Y27431D01*D02*
X53704Y27175D02*
X53940Y27175D01*
X53940Y27293D01*
X53704Y27293D01*
X53704Y27175D01*D02*
X54570Y27687D02*
X54806Y27687D01*
X54806Y27805D01*
X54570Y27805D01*
X54570Y27687D01*D02*
X54570Y27431D02*
X54806Y27431D01*
X54806Y27549D01*
X54570Y27549D01*
X54570Y27431D01*D02*
X54570Y27175D02*
X54806Y27175D01*
X54806Y27293D01*
X54570Y27293D01*
X54570Y27175D01*D02*
G54D38*
X48770Y29600D03*
X48770Y30013D03*
X49301Y30013D03*
X49301Y29600D03*

M02*
